<svg xmlns="http://www.w3.org/2000/svg" version="1.1" width="3300" height="2000"><g id="Notes"><style>
    text {
      font-family: monospace;
      text-anchor: middle;
    }
    text.emphasis {
      font-weight:bold;
    }
    text.lanchor {
      text-anchor: start;
    }
  </style><rect height="2200" id="artboard" fill="white" width="3300" x="0" y="0"/><line id="" style="fill:none;stroke:black;stroke-width:0.5;" x1="263" x2="3036" y1="292" y2="292"/><text class="lanchor emphasis" transform="matrix(1 0 0 1 263 322)">Weight/Scale Variations</text><text transform="matrix(1 0 0 1 559.711 322)">Ultralight</text><text transform="matrix(1 0 0 1 856.422 322)">Thin</text><text transform="matrix(1 0 0 1 1153.13 322)">Light</text><text transform="matrix(1 0 0 1 1449.84 322)">Regular</text><text transform="matrix(1 0 0 1 1746.56 322)">Medium</text><text transform="matrix(1 0 0 1 2043.27 322)">Semibold</text><text transform="matrix(1 0 0 1 2339.98 322)">Bold</text><text transform="matrix(1 0 0 1 2636.69 322)">Heavy</text><text transform="matrix(1 0 0 1 2933.4 322)">Black</text><text id="template-version" style="text-anchor: end;" transform="matrix(1 0 0 1 3036 1933)">Template v.1.0</text><text class="lanchor" transform="matrix(1 0 0 1 263 726)">Small</text><text class="lanchor" transform="matrix(1 0 0 1 263 1156)">Medium</text><text class="lanchor" transform="matrix(1 0 0 1 263 1586)">Large</text></g><g id="Guides"><g id="H-reference" style="fill:#27AAE1;stroke:none;" transform="matrix(1 0 0 1 339 696)"><path d="M 54.9316 0 L 57.666 0 L 30.5664 -70.459 L 28.0762 -70.459 L 0.976562 0 L 3.66211 0 L 12.9395 -24.4629 L 45.7031 -24.4629 Z M 29.1992 -67.0898 L 29.4434 -67.0898 L 44.8242 -26.709 L 13.8184 -26.709 Z"/></g><line id="Baseline-S" style="fill:none;stroke:#27AAE1;opacity:1;stroke-width:0.577;" x1="263" x2="3036" y1="696" y2="696"/><line id="Capline-S" style="fill:none;stroke:#27AAE1;opacity:1;stroke-width:0.577;" x1="263" x2="3036" y1="625.541" y2="625.541"/><g id="H-reference" style="fill:#27AAE1;stroke:none;" transform="matrix(1 0 0 1 339 1126)"><path d="M 54.9316 0 L 57.666 0 L 30.5664 -70.459 L 28.0762 -70.459 L 0.976562 0 L 3.66211 0 L 12.9395 -24.4629 L 45.7031 -24.4629 Z M 29.1992 -67.0898 L 29.4434 -67.0898 L 44.8242 -26.709 L 13.8184 -26.709 Z"/></g><line id="Baseline-M" style="fill:none;stroke:#27AAE1;opacity:1;stroke-width:0.577;" x1="263" x2="3036" y1="1126" y2="1126"/><line id="Capline-M" style="fill:none;stroke:#27AAE1;opacity:1;stroke-width:0.577;" x1="263" x2="3036" y1="1055.54" y2="1055.54"/><g id="H-reference" style="fill:#27AAE1;stroke:none;" transform="matrix(1 0 0 1 339 1556)"><path d="M 54.9316 0 L 57.666 0 L 30.5664 -70.459 L 28.0762 -70.459 L 0.976562 0 L 3.66211 0 L 12.9395 -24.4629 L 45.7031 -24.4629 Z M 29.1992 -67.0898 L 29.4434 -67.0898 L 44.8242 -26.709 L 13.8184 -26.709 Z"/></g><line id="Baseline-L" style="fill:none;stroke:#27AAE1;opacity:1;stroke-width:0.577;" x1="263" x2="3036" y1="1556" y2="1556"/><line id="Capline-L" style="fill:none;stroke:#27AAE1;opacity:1;stroke-width:0.577;" x1="263" x2="3036" y1="1485.54" y2="1485.54"/><rect height="119.336" id="left-margin" style="fill:darkred;stroke:none;opacity:0.4;" width="12.4512" x="1394.06" y="1030.79"/><rect height="119.336" id="right-margin" style="fill:darkgreen;stroke:none;opacity:0.4;" width="12.4512" x="1502.5112" y="1030.79"/><rect x="1406.5112" y="1045" width="96" height="96" fill="none" stroke="blue" stroke-dasharray="5"/><rect x="1394.06" y="1030.79" width="120.9024" height="119.336" fill="none" stroke="blue"/></g><g id="Symbols"><g id="Bold-L" transform="matrix(1 0 0 1 2266 1556)"><path d="M60.953 6.373  20.963 -33.617  31.928 -44.582  60.953 -15.557  122.711 -77.316  133.676 -66.351  60.953 6.373 Z"/></g><g id="Semibold-L" transform="matrix(1 0 0 1 1970.27 1556)"><path d="M60.953 4.69  22.645 -33.617  31.857 -42.83  60.953 -13.735  122.781 -75.564  131.994 -66.351  60.953 4.69 Z"/></g><g id="Medium-L" transform="matrix(1 0 0 1 1674.31 1556)"><path d="M60.953 3.428  23.907 -33.617  31.805 -41.515  60.953 -12.368  122.834 -74.249  130.732 -66.351  60.953 3.428 Z"/></g><g id="Regular-L" transform="matrix(1 0 0 1 1378.56 1556)"><path d="M60.953 2.503  24.832 -33.617  31.766 -40.551  60.953 -11.365  122.873 -73.285  129.806 -66.351  60.953 2.503 Z"/></g><g id="Light-L" transform="matrix(1 0 0 1 1082.77 1556)"><path d="M61.139 0.518  27.189 -33.431  32.448 -38.629  61.139 -9.938  122.252 -71.114  127.511 -65.855  61.139 0.518 Z"/></g><g id="Thin-L" transform="matrix(1 0 0 1 787.282 1556)"><path d="M61.325 -1.467  29.546 -33.245  33.131 -36.706  61.325 -8.512  121.632 -68.944  125.217 -65.359  61.325 -1.467 Z"/></g><g id="Ultralight-L" transform="matrix(1 0 0 1 491.205 1556)"><path d="M61.436 -2.657  30.96 -33.134  33.54 -35.552  61.436 -7.656  121.26 -67.641  123.84 -65.061  61.436 -2.657 Z"/></g><g id="Bold-M" transform="matrix(1 0 0 1 2281.8 1126)"><path d="M47.75 -1.23  15.25 -33.73  26.5 -44.98  47.75 -23.73  93.5 -69.48  104.75 -58.23  47.75 -1.23 Z"/></g><g id="Semibold-M" transform="matrix(1 0 0 1 1985.97 1126)"><path d="M47.75 -2.969  16.989 -33.73  26.446 -43.187  47.75 -21.882  93.554 -67.687  103.011 -58.23  47.75 -2.969 Z"/></g><g id="Medium-M" transform="matrix(1 0 0 1 1689.91 1126)"><path d="M47.75 -4.273  18.294 -33.73  26.405 -41.841  47.75 -20.496  93.595 -66.341  101.707 -58.23  47.75 -4.273 Z"/></g><g id="Regular-M" transform="matrix(1 0 0 1 1394.06 1126)"><path d="M47.75 -5.23  19.25 -33.73  26.375 -40.855  47.75 -19.48  93.625 -65.355  100.75 -58.23  47.75 -5.23 Z"/></g><g id="Light-M" transform="matrix(1 0 0 1 1098.18 1126)"><path d="M47.75 -6.961  21.077 -33.634  26.423 -38.98  47.75 -17.653  93.577 -63.48  98.923 -58.134  47.75 -6.961 Z"/></g><g id="Thin-M" transform="matrix(1 0 0 1 802.565 1126)"><path d="M47.75 -8.691  22.904 -33.538  26.471 -37.105  47.75 -15.826  93.529 -61.605  97.096 -58.038  47.75 -8.691 Z"/></g><g id="Ultralight-M" transform="matrix(1 0 0 1 506.415 1126)"><path d="M47.75 -9.73  24 -33.48  26.5 -35.98  47.75 -14.73  93.5 -60.48  96 -57.98  47.75 -9.73 Z"/></g><g id="Bold-S" transform="matrix(1 0 0 1 2294.23 696)"><path d="M38.957 -12.842  19.133 -32.764  27.319 -40.95  38.957 -29.411  67.361 -57.716  75.547 -49.432  38.957 -12.842 Z"/></g><g id="Semibold-S" transform="matrix(1 0 0 1 1998.1 696)"><path d="M38.957 -14.214  20.505 -32.764  27.276 -39.535  38.957 -27.953  67.404 -56.302  74.175 -49.432  38.957 -14.214 Z"/></g><g id="Medium-S" transform="matrix(1 0 0 1 1701.85 696)"><path d="M38.957 -15.243  21.535 -32.764  27.244 -38.474  38.957 -26.86  67.436 -55.24  73.145 -49.432  38.957 -15.243 Z"/></g><g id="Regular-S" transform="matrix(1 0 0 1 1405.73 696)"><path d="M38.957 -15.998  22.289 -32.764  27.221 -37.696  38.957 -26.058  67.46 -54.462  72.391 -49.432  38.957 -15.998 Z"/></g><g id="Light-S" transform="matrix(1 0 0 1 1109.75 696)"><path d="M38.957 -17.364  23.731 -32.689  27.258 -36.216  38.957 -24.616  67.422 -52.982  70.949 -49.356  38.957 -17.364 Z"/></g><g id="Thin-S" transform="matrix(1 0 0 1 814.015 696)"><path d="M38.957 -18.729  25.172 -32.613  27.296 -34.737  38.957 -23.175  67.384 -51.503  69.508 -49.28  38.957 -18.729 Z"/></g><g id="Ultralight-S" transform="matrix(1 0 0 1 517.792 696)"><path d="M38.957 -19.549  26.037 -32.567  27.319 -33.849  38.957 -22.31  67.361 -50.615  68.643 -49.235  38.957 -19.549 Z"/></g></g></svg>