<svg xmlns="http://www.w3.org/2000/svg" version="1.1" width="3300" height="2000"><g id="Notes"><style>
    text {
      font-family: monospace;
      text-anchor: middle;
    }
    text.emphasis {
      font-weight:bold;
    }
    text.lanchor {
      text-anchor: start;
    }
  </style><rect height="2200" id="artboard" fill="white" width="3300" x="0" y="0"/><line id="" style="fill:none;stroke:black;stroke-width:0.5;" x1="263" x2="3036" y1="292" y2="292"/><text class="lanchor emphasis" transform="matrix(1 0 0 1 263 322)">Weight/Scale Variations</text><text transform="matrix(1 0 0 1 559.711 322)">Ultralight</text><text transform="matrix(1 0 0 1 856.422 322)">Thin</text><text transform="matrix(1 0 0 1 1153.13 322)">Light</text><text transform="matrix(1 0 0 1 1449.84 322)">Regular</text><text transform="matrix(1 0 0 1 1746.56 322)">Medium</text><text transform="matrix(1 0 0 1 2043.27 322)">Semibold</text><text transform="matrix(1 0 0 1 2339.98 322)">Bold</text><text transform="matrix(1 0 0 1 2636.69 322)">Heavy</text><text transform="matrix(1 0 0 1 2933.4 322)">Black</text><text id="template-version" style="text-anchor: end;" transform="matrix(1 0 0 1 3036 1933)">Template v.1.0</text><text class="lanchor" transform="matrix(1 0 0 1 263 726)">Small</text><text class="lanchor" transform="matrix(1 0 0 1 263 1156)">Medium</text><text class="lanchor" transform="matrix(1 0 0 1 263 1586)">Large</text></g><g id="Guides"><g id="H-reference" style="fill:#27AAE1;stroke:none;" transform="matrix(1 0 0 1 339 696)"><path d="M 54.9316 0 L 57.666 0 L 30.5664 -70.459 L 28.0762 -70.459 L 0.976562 0 L 3.66211 0 L 12.9395 -24.4629 L 45.7031 -24.4629 Z M 29.1992 -67.0898 L 29.4434 -67.0898 L 44.8242 -26.709 L 13.8184 -26.709 Z"/></g><line id="Baseline-S" style="fill:none;stroke:#27AAE1;opacity:1;stroke-width:0.577;" x1="263" x2="3036" y1="696" y2="696"/><line id="Capline-S" style="fill:none;stroke:#27AAE1;opacity:1;stroke-width:0.577;" x1="263" x2="3036" y1="625.541" y2="625.541"/><g id="H-reference" style="fill:#27AAE1;stroke:none;" transform="matrix(1 0 0 1 339 1126)"><path d="M 54.9316 0 L 57.666 0 L 30.5664 -70.459 L 28.0762 -70.459 L 0.976562 0 L 3.66211 0 L 12.9395 -24.4629 L 45.7031 -24.4629 Z M 29.1992 -67.0898 L 29.4434 -67.0898 L 44.8242 -26.709 L 13.8184 -26.709 Z"/></g><line id="Baseline-M" style="fill:none;stroke:#27AAE1;opacity:1;stroke-width:0.577;" x1="263" x2="3036" y1="1126" y2="1126"/><line id="Capline-M" style="fill:none;stroke:#27AAE1;opacity:1;stroke-width:0.577;" x1="263" x2="3036" y1="1055.54" y2="1055.54"/><g id="H-reference" style="fill:#27AAE1;stroke:none;" transform="matrix(1 0 0 1 339 1556)"><path d="M 54.9316 0 L 57.666 0 L 30.5664 -70.459 L 28.0762 -70.459 L 0.976562 0 L 3.66211 0 L 12.9395 -24.4629 L 45.7031 -24.4629 Z M 29.1992 -67.0898 L 29.4434 -67.0898 L 44.8242 -26.709 L 13.8184 -26.709 Z"/></g><line id="Baseline-L" style="fill:none;stroke:#27AAE1;opacity:1;stroke-width:0.577;" x1="263" x2="3036" y1="1556" y2="1556"/><line id="Capline-L" style="fill:none;stroke:#27AAE1;opacity:1;stroke-width:0.577;" x1="263" x2="3036" y1="1485.54" y2="1485.54"/><rect height="119.336" id="left-margin" style="fill:darkred;stroke:none;opacity:0.4;" width="12.4512" x="1394.06" y="1030.79"/><rect height="119.336" id="right-margin" style="fill:darkgreen;stroke:none;opacity:0.4;" width="12.4512" x="1502.5112" y="1030.79"/><rect x="1406.5112" y="1045" width="96" height="96" fill="none" stroke="blue" stroke-dasharray="5"/><rect x="1394.06" y="1030.79" width="120.9024" height="119.336" fill="none" stroke="blue"/></g><g id="Symbols"><g id="Bold-L" transform="matrix(1 0 0 1 2266 1556)"><path d="M133.354 35.72  124.485 26.851 Q124.485 26.851 124.485 26.851 Q124.485 26.851 124.485 26.851 H30.476 Q24.224 26.851 19.771 22.399 Q15.319 17.946 15.319 11.694 V-80.541 Q15.319 -81.025 15.319 -81.509 Q15.319 -81.992 15.319 -82.315 L8.062 -89.41 L16.286 -97.795 L141.578 27.496 L133.354 35.72 Z M30.476 11.694 H109.328 L30.476 -67.319 V11.694 Q30.476 11.694 30.476 11.694 Q30.476 11.694 30.476 11.694 Z M139.643 11.694  125.775 -2.012 V-68.77 H59.179 L30.476 -97.472 H124.324 Q130.643 -97.472 135.143 -92.973 Q139.643 -88.473 139.643 -82.154 V11.694 Z"/></g><g id="Semibold-L" transform="matrix(1 0 0 1 1970.27 1556)"><path d="M132.513 34.598  123.013 25.099 Q123.013 25.099 123.013 25.099 Q123.013 25.099 123.013 25.099 H29.845 Q24.576 25.099 20.824 21.346 Q17.071 17.594 17.071 12.325 V-79.84 Q17.071 -80.114 17.071 -80.387 Q17.071 -80.661 17.071 -80.843 L9.184 -88.639 L16.847 -96.393 L140.175 26.935 L132.513 34.598 Z M29.845 12.325 H110.239 L29.845 -68.23 V12.325 Q29.845 12.325 29.845 12.325 Q29.845 12.325 29.845 12.325 Z M137.82 10.782  125.775 -1.171 V-68.419 H58.618 L31.388 -95.65 H124.955 Q130.261 -95.65 134.041 -91.871 Q137.82 -88.091 137.82 -82.785 V10.782 Z"/></g><g id="Medium-L" transform="matrix(1 0 0 1 1674.31 1556)"><path d="M131.882 33.757  121.909 23.784 Q121.909 23.784 121.909 23.784 Q121.909 23.784 121.909 23.784 H29.372 Q24.84 23.784 21.613 20.557 Q18.386 17.33 18.386 12.798 V-79.314 Q18.386 -79.43 18.386 -79.546 Q18.386 -79.661 18.386 -79.739 L10.026 -88.06 L17.268 -95.341 L139.124 26.515 L131.882 33.757 Z M29.372 12.798 H110.922 L29.372 -68.914 V12.798 Q29.372 12.798 29.372 12.798 Q29.372 12.798 29.372 12.798 Z M136.453 10.099  125.775 -0.54 V-68.157 H58.197 L32.071 -94.283 H125.428 Q129.976 -94.283 133.214 -91.044 Q136.453 -87.806 136.453 -83.258 V10.099 Z"/></g><g id="Regular-L" transform="matrix(1 0 0 1 1378.56 1556)"><path d="M131.419 33.14  121.099 22.82 Q121.099 22.82 121.099 22.82 Q121.099 22.82 121.099 22.82 H29.025 Q25.034 22.82 22.192 19.978 Q19.35 17.136 19.35 13.145 V-78.929 Q19.35 -78.929 19.35 -78.929 Q19.35 -78.929 19.35 -78.929 L10.643 -87.636 L17.576 -94.57 L138.352 26.206 L131.419 33.14 Z M29.025 13.145 H111.424 L29.025 -69.415 V13.145 Q29.025 13.145 29.025 13.145 Q29.025 13.145 29.025 13.145 Z M135.45 9.598  125.775 -0.077 V-67.964 H57.889 L32.572 -93.28 H125.775 Q129.766 -93.28 132.608 -90.438 Q135.45 -87.596 135.45 -83.605 V9.598 Z"/></g><g id="Light-L" transform="matrix(1 0 0 1 1082.77 1556)"><path d="M129.186 27.434  121.223 19.471 Q120.975 19.533 120.696 19.564 Q120.417 19.595 120.106 19.595 H31.878 Q28.073 19.595 25.324 16.846 Q22.575 14.097 22.575 10.292 V-77.936 Q22.575 -78.247 22.606 -78.495 Q22.637 -78.743 22.761 -78.991 L15.915 -85.838 L21.174 -91.097 L134.445 22.175 L129.186 27.434 Z M31.878 12.277 H114.029 L29.893 -72.02 V10.292 Q29.893 11.16 30.452 11.718 Q31.01 12.277 31.878 12.277 Z M132.225 5.008  124.907 -2.31 V-65.607 H61.61 L37.162 -90.055 H122.922 Q126.727 -90.055 129.476 -87.306 Q132.225 -84.557 132.225 -80.752 V5.008 Z"/></g><g id="Thin-L" transform="matrix(1 0 0 1 787.282 1556)"><path d="M126.953 21.728  121.347 16.122 Q120.851 16.246 120.293 16.308 Q119.734 16.37 119.114 16.37 H34.731 Q31.112 16.37 28.456 13.714 Q25.8 11.058 25.8 7.439 V-76.944 Q25.8 -77.564 25.862 -78.06 Q25.924 -78.557 26.172 -79.053 L21.186 -84.039 L24.77 -87.624 L130.538 18.144 L126.953 21.728 Z M34.731 11.408 H116.633 L30.762 -74.625 V7.439 Q30.762 9.176 31.878 10.292 Q32.994 11.408 34.731 11.408 Z M129 0.419  124.038 -4.543 V-63.25 H65.331 L41.751 -86.83 H120.069 Q123.688 -86.83 126.344 -84.174 Q129 -81.518 129 -77.899 V0.419 Z"/></g><g id="Ultralight-L" transform="matrix(1 0 0 1 491.205 1556)"><path d="M125.614 18.305  121.421 14.113 Q120.776 14.274 120.051 14.354 Q119.325 14.435 118.519 14.435 H36.443 Q32.935 14.435 30.335 11.835 Q27.735 9.235 27.735 5.728 V-76.349 Q27.735 -77.155 27.816 -77.8 Q27.896 -78.445 28.219 -79.09 L24.349 -82.96 L26.929 -85.54 L128.194 15.725 L125.614 18.305 Z M36.443 10.888 H118.196 L31.283 -76.187 V5.728 Q31.283 7.985 32.734 9.436 Q34.185 10.888 36.443 10.888 Z M127.065 -2.335  123.517 -5.882 V-61.836 H67.564 L44.505 -84.895 H118.358 Q121.865 -84.895 124.465 -82.295 Q127.065 -79.695 127.065 -76.187 V-2.335 Z"/></g><g id="Bold-M" transform="matrix(1 0 0 1 2281.8 1126)"><path d="M100.875 20.395  94.375 14.02 Q94.375 14.02 94.375 14.02 Q94.375 14.02 94.375 14.02 H26.5 Q20.003 14.02 15.377 9.394 Q10.75 4.767 10.75 -1.73 V-67.73 Q10.75 -68.23 10.812 -68.792 Q10.875 -69.355 10.875 -69.605 L4.375 -76.105 L12.625 -84.48 L109.25 12.145 L100.875 20.395 Z M26.5 -1.73 H78.625 L26.5 -53.855 V-1.73 Q26.5 -1.73 26.5 -1.73 Q26.5 -1.73 26.5 -1.73 Z M109.25 -2.105  95 -16.355 V-55.98 H55.375 L26.875 -84.48 H93.5 Q99.997 -84.48 104.623 -79.853 Q109.25 -75.227 109.25 -68.73 V-2.105 Z"/></g><g id="Semibold-M" transform="matrix(1 0 0 1 1985.97 1126)"><path d="M100.005 19.254  92.853 12.172 Q92.853 12.172 92.853 12.172 Q92.853 12.172 92.853 12.172 H25.848 Q20.382 12.172 16.49 8.28 Q12.598 4.388 12.598 -1.078 V-67.023 Q12.598 -67.306 12.633 -67.624 Q12.668 -67.942 12.668 -68.083 L5.516 -75.29 L13.223 -83.067 L107.837 11.547 L100.005 19.254 Z M25.848 -1.078 H79.603 L25.848 -54.833 V-1.078 Q25.848 -1.078 25.848 -1.078 Q25.848 -1.078 25.848 -1.078 Z M107.402 -3.083  95 -15.485 V-55.654 H54.831 L27.853 -82.632 H94.152 Q99.618 -82.632 103.51 -78.74 Q107.402 -74.848 107.402 -69.382 V-3.083 Z"/></g><g id="Medium-M" transform="matrix(1 0 0 1 1689.91 1126)"><path d="M99.353 18.398  91.712 10.786 Q91.712 10.786 91.712 10.786 Q91.712 10.786 91.712 10.786 H25.359 Q20.666 10.786 17.325 7.445 Q13.984 4.104 13.984 -0.589 V-66.494 Q13.984 -66.613 13.999 -66.748 Q14.014 -66.882 14.014 -66.942 L6.372 -74.678 L13.671 -82.007 L106.777 11.099 L99.353 18.398 Z M25.359 -0.589 H80.337 L25.359 -55.567 V-0.589 Q25.359 -0.589 25.359 -0.589 Q25.359 -0.589 25.359 -0.589 Z M106.016 -3.817  95 -14.833 V-55.409 H54.424 L28.587 -81.246 H94.641 Q99.334 -81.246 102.675 -77.905 Q106.016 -74.563 106.016 -69.871 V-3.817 Z"/></g><g id="Regular-M" transform="matrix(1 0 0 1 1394.06 1126)"><path d="M98.875 17.77  90.875 9.77 Q90.875 9.77 90.875 9.77 Q90.875 9.77 90.875 9.77 H25 Q20.875 9.77 17.938 6.833 Q15 3.895 15 -0.23 V-66.105 Q15 -66.105 15 -66.105 Q15 -66.105 15 -66.105 L7 -74.23 L14 -81.23 L106 10.77 L98.875 17.77 Z M25 -0.23 H80.875 L25 -56.105 V-0.23 Q25 -0.23 25 -0.23 Q25 -0.23 25 -0.23 Z M105 -4.355  95 -14.355 V-55.23 H54.125 L29.125 -80.23 H95 Q99.125 -80.23 102.062 -77.292 Q105 -74.355 105 -70.23 V-4.355 Z"/></g><g id="Light-M" transform="matrix(1 0 0 1 1098.18 1126)"><path d="M97.962 13.347  91.788 7.174 Q91.548 7.222 91.356 7.246 Q91.163 7.27 90.923 7.27 H26.539 Q22.798 7.27 20.149 4.621 Q17.5 1.972 17.5 -1.769 V-66.153 Q17.5 -66.393 17.524 -66.586 Q17.548 -66.778 17.644 -66.97 L11.423 -73.268 L16.692 -78.537 L103.308 8.078 L97.962 13.347 Z M26.539 -0.23 H84.385 L25 -59.615 V-1.769 Q25 -1.095 25.433 -0.663 Q25.866 -0.23 26.539 -0.23 Z M102.5 -6.855  95 -14.355 V-54.845 H54.51 L31.625 -77.73 H93.461 Q97.202 -77.73 99.851 -75.081 Q102.5 -72.432 102.5 -68.691 V-6.855 Z"/></g><g id="Thin-M" transform="matrix(1 0 0 1 802.565 1126)"><path d="M97.048 8.924  92.702 4.578 Q92.221 4.674 91.837 4.722 Q91.452 4.77 90.971 4.77 H28.077 Q24.721 4.77 22.36 2.41 Q20 0.049 20 -3.307 V-66.201 Q20 -66.682 20.048 -67.066 Q20.096 -67.451 20.288 -67.836 L15.846 -72.307 L19.385 -75.845 L100.615 5.385 L97.048 8.924 Z M28.077 -0.23 H87.894 L25 -63.124 V-3.307 Q25 -1.961 25.865 -1.095 Q26.731 -0.23 28.077 -0.23 Z M100 -9.355  95 -14.355 V-54.461 H54.894 L34.125 -75.23 H91.923 Q95.279 -75.23 97.639 -72.869 Q100 -70.509 100 -67.153 V-9.355 Z"/></g><g id="Ultralight-M" transform="matrix(1 0 0 1 506.415 1126)"><path d="M96.5 6.27  93.25 3.02 Q92.625 3.145 92.125 3.208 Q91.625 3.27 91 3.27 H29 Q25.875 3.27 23.688 1.083 Q21.5 -1.105 21.5 -4.23 V-66.23 Q21.5 -66.855 21.562 -67.355 Q21.625 -67.855 21.875 -68.355 L18.5 -71.73 L21 -74.23 L99 3.77 L96.5 6.27 Z M29 -0.23 H90 L25 -65.23 V-4.23 Q25 -2.48 26.125 -1.355 Q27.25 -0.23 29 -0.23 Z M98.5 -10.855  95 -14.355 V-54.23 H55.125 L35.625 -73.73 H91 Q94.125 -73.73 96.312 -71.542 Q98.5 -69.355 98.5 -66.23 V-10.855 Z"/></g><g id="Bold-S" transform="matrix(1 0 0 1 2294.23 696)"><path d="M77.421 5.305  73.18 1.261 Q73.18 1.261 73.18 1.261 Q73.18 1.261 73.18 1.261 H22.486 Q17.686 1.261 14.267 -2.157 Q10.849 -5.576 10.849 -10.376 V-59.59 Q10.849 -59.985 10.898 -60.429 Q10.947 -60.872 10.947 -61.07 L6.805 -65.113 L12.821 -71.228 L83.338 -0.613 L77.421 5.305 Z M22.486 -10.376 H61.542 L22.486 -49.432 V-10.376 Q22.486 -10.376 22.486 -10.376 Q22.486 -10.376 22.486 -10.376 Z M83.831 -10.376  73.377 -20.831 V-50.024 H44.184 L22.486 -71.721 H72.194 Q76.994 -71.721 80.413 -68.303 Q83.831 -64.884 83.831 -60.083 V-10.376 Z"/></g><g id="Semibold-S" transform="matrix(1 0 0 1 1998.1 696)"><path d="M76.735 4.404  71.979 -0.197 Q71.979 -0.197 71.979 -0.197 Q71.979 -0.197 71.979 -0.197 H21.972 Q17.985 -0.197 15.146 -3.036 Q12.307 -5.875 12.307 -9.862 V-59.033 Q12.307 -59.256 12.334 -59.507 Q12.362 -59.758 12.362 -59.869 L7.706 -64.47 L13.293 -70.113 L82.223 -1.084 L76.735 4.404 Z M21.972 -9.862 H62.314 L21.972 -50.204 V-9.862 Q21.972 -9.862 21.972 -9.862 Q21.972 -9.862 21.972 -9.862 Z M82.373 -11.148  73.377 -20.145 V-49.766 H43.755 L23.258 -70.263 H72.708 Q76.695 -70.263 79.534 -67.424 Q82.373 -64.585 82.373 -60.598 V-11.148 Z"/></g><g id="Medium-S" transform="matrix(1 0 0 1 1701.85 696)"><path d="M76.22 3.729  71.079 -1.29 Q71.079 -1.29 71.079 -1.29 Q71.079 -1.29 71.079 -1.29 H21.586 Q18.209 -1.29 15.805 -3.695 Q13.4 -6.099 13.4 -9.476 V-58.615 Q13.4 -58.709 13.412 -58.815 Q13.424 -58.922 13.424 -58.969 L8.381 -63.988 L13.647 -69.277 L81.387 -1.438 L76.22 3.729 Z M21.586 -9.476 H62.893 L21.586 -50.783 V-9.476 Q21.586 -9.476 21.586 -9.476 Q21.586 -9.476 21.586 -9.476 Z M81.28 -11.727  73.377 -19.63 V-49.574 H43.434 L23.837 -69.17 H73.094 Q76.471 -69.17 78.875 -66.765 Q81.28 -64.361 81.28 -60.984 V-11.727 Z"/></g><g id="Regular-S" transform="matrix(1 0 0 1 1405.73 696)"><path d="M75.843 3.234  70.418 -2.092 Q70.418 -2.092 70.418 -2.092 Q70.418 -2.092 70.418 -2.092 H21.303 Q18.374 -2.092 16.288 -4.178 Q14.202 -6.264 14.202 -9.193 V-58.308 Q14.202 -58.308 14.202 -58.308 Q14.202 -58.308 14.202 -58.308 L8.876 -63.634 L13.906 -68.664 L80.774 -1.697 L75.843 3.234 Z M21.303 -9.193 H63.317 L21.303 -51.207 V-9.193 Q21.303 -9.193 21.303 -9.193 Q21.303 -9.193 21.303 -9.193 Z M80.478 -12.152  73.377 -19.253 V-49.432 H43.198 L24.262 -68.368 H73.377 Q76.306 -68.368 78.392 -66.282 Q80.478 -64.196 80.478 -61.267 V-12.152 Z"/></g><g id="Light-S" transform="matrix(1 0 0 1 1109.75 696)"><path d="M75.122 -0.256  71.139 -4.141 Q70.949 -4.103 70.798 -4.084 Q70.646 -4.065 70.456 -4.065 H22.517 Q19.891 -4.065 18.033 -5.923 Q16.175 -7.781 16.175 -10.407 V-58.346 Q16.175 -58.536 16.194 -58.688 Q16.213 -58.839 16.288 -58.991 L12.366 -62.875 L16.031 -66.539 L78.649 -3.822 L75.122 -0.256 Z M22.517 -9.193 H66.087 L21.303 -53.977 V-10.407 Q21.303 -9.876 21.644 -9.534 Q21.986 -9.193 22.517 -9.193 Z M78.505 -14.124  73.377 -19.253 V-49.129 H43.501 L26.234 -66.395 H72.163 Q74.789 -66.395 76.647 -64.537 Q78.505 -62.679 78.505 -60.053 V-14.124 Z"/></g><g id="Thin-S" transform="matrix(1 0 0 1 814.015 696)"><path d="M74.401 -3.746  71.86 -6.189 Q71.48 -6.113 71.177 -6.075 Q70.873 -6.037 70.494 -6.037 H23.731 Q21.408 -6.037 19.778 -7.668 Q18.147 -9.298 18.147 -11.621 V-58.384 Q18.147 -58.763 18.185 -59.067 Q18.223 -59.37 18.375 -59.674 L15.856 -62.117 L18.155 -64.415 L76.525 -5.946 L74.401 -3.746 Z M23.731 -9.193 H68.855 L21.303 -56.745 V-11.621 Q21.303 -10.559 21.986 -9.876 Q22.669 -9.193 23.731 -9.193 Z M76.533 -16.097  73.377 -19.253 V-48.825 H43.805 L28.207 -64.423 H70.949 Q73.272 -64.423 74.902 -62.792 Q76.533 -61.162 76.533 -58.839 V-16.097 Z"/></g><g id="Ultralight-S" transform="matrix(1 0 0 1 517.792 696)"><path d="M73.969 -5.84  72.292 -7.418 Q71.799 -7.319 71.404 -7.27 Q71.01 -7.22 70.517 -7.22 H24.459 Q22.319 -7.22 20.825 -8.715 Q19.331 -10.209 19.331 -12.349 V-58.407 Q19.331 -58.9 19.38 -59.294 Q19.429 -59.689 19.626 -60.083 L17.95 -61.661 L19.429 -63.141 L75.251 -7.22 L73.969 -5.84 Z M24.459 -9.193 H70.517 L21.303 -58.407 V-12.349 Q21.303 -10.968 22.191 -10.081 Q23.078 -9.193 24.459 -9.193 Z M75.35 -17.28  73.377 -19.253 V-48.643 H43.987 L29.39 -63.239 H70.221 Q72.361 -63.239 73.855 -61.745 Q75.35 -60.251 75.35 -58.111 V-17.28 Z"/></g></g></svg>