<svg xmlns="http://www.w3.org/2000/svg" version="1.1" width="3300" height="2000"><g id="Notes"><style>
    text {
      font-family: monospace;
      text-anchor: middle;
    }
    text.emphasis {
      font-weight:bold;
    }
    text.lanchor {
      text-anchor: start;
    }
  </style><rect height="2200" id="artboard" fill="white" width="3300" x="0" y="0"/><line id="" style="fill:none;stroke:black;stroke-width:0.5;" x1="263" x2="3036" y1="292" y2="292"/><text class="lanchor emphasis" transform="matrix(1 0 0 1 263 322)">Weight/Scale Variations</text><text transform="matrix(1 0 0 1 559.711 322)">Ultralight</text><text transform="matrix(1 0 0 1 856.422 322)">Thin</text><text transform="matrix(1 0 0 1 1153.13 322)">Light</text><text transform="matrix(1 0 0 1 1449.84 322)">Regular</text><text transform="matrix(1 0 0 1 1746.56 322)">Medium</text><text transform="matrix(1 0 0 1 2043.27 322)">Semibold</text><text transform="matrix(1 0 0 1 2339.98 322)">Bold</text><text transform="matrix(1 0 0 1 2636.69 322)">Heavy</text><text transform="matrix(1 0 0 1 2933.4 322)">Black</text><text id="template-version" style="text-anchor: end;" transform="matrix(1 0 0 1 3036 1933)">Template v.1.0</text><text class="lanchor" transform="matrix(1 0 0 1 263 726)">Small</text><text class="lanchor" transform="matrix(1 0 0 1 263 1156)">Medium</text><text class="lanchor" transform="matrix(1 0 0 1 263 1586)">Large</text></g><g id="Guides"><g id="H-reference" style="fill:#27AAE1;stroke:none;" transform="matrix(1 0 0 1 339 696)"><path d="M 54.9316 0 L 57.666 0 L 30.5664 -70.459 L 28.0762 -70.459 L 0.976562 0 L 3.66211 0 L 12.9395 -24.4629 L 45.7031 -24.4629 Z M 29.1992 -67.0898 L 29.4434 -67.0898 L 44.8242 -26.709 L 13.8184 -26.709 Z"/></g><line id="Baseline-S" style="fill:none;stroke:#27AAE1;opacity:1;stroke-width:0.577;" x1="263" x2="3036" y1="696" y2="696"/><line id="Capline-S" style="fill:none;stroke:#27AAE1;opacity:1;stroke-width:0.577;" x1="263" x2="3036" y1="625.541" y2="625.541"/><g id="H-reference" style="fill:#27AAE1;stroke:none;" transform="matrix(1 0 0 1 339 1126)"><path d="M 54.9316 0 L 57.666 0 L 30.5664 -70.459 L 28.0762 -70.459 L 0.976562 0 L 3.66211 0 L 12.9395 -24.4629 L 45.7031 -24.4629 Z M 29.1992 -67.0898 L 29.4434 -67.0898 L 44.8242 -26.709 L 13.8184 -26.709 Z"/></g><line id="Baseline-M" style="fill:none;stroke:#27AAE1;opacity:1;stroke-width:0.577;" x1="263" x2="3036" y1="1126" y2="1126"/><line id="Capline-M" style="fill:none;stroke:#27AAE1;opacity:1;stroke-width:0.577;" x1="263" x2="3036" y1="1055.54" y2="1055.54"/><g id="H-reference" style="fill:#27AAE1;stroke:none;" transform="matrix(1 0 0 1 339 1556)"><path d="M 54.9316 0 L 57.666 0 L 30.5664 -70.459 L 28.0762 -70.459 L 0.976562 0 L 3.66211 0 L 12.9395 -24.4629 L 45.7031 -24.4629 Z M 29.1992 -67.0898 L 29.4434 -67.0898 L 44.8242 -26.709 L 13.8184 -26.709 Z"/></g><line id="Baseline-L" style="fill:none;stroke:#27AAE1;opacity:1;stroke-width:0.577;" x1="263" x2="3036" y1="1556" y2="1556"/><line id="Capline-L" style="fill:none;stroke:#27AAE1;opacity:1;stroke-width:0.577;" x1="263" x2="3036" y1="1485.54" y2="1485.54"/><rect height="119.336" id="left-margin" style="fill:darkred;stroke:none;opacity:0.4;" width="12.4512" x="1394.06" y="1030.79"/><rect height="119.336" id="right-margin" style="fill:darkgreen;stroke:none;opacity:0.4;" width="12.4512" x="1502.5112" y="1030.79"/><rect x="1406.5112" y="1045" width="96" height="96" fill="none" stroke="blue" stroke-dasharray="5"/><rect x="1394.06" y="1030.79" width="120.9024" height="119.336" fill="none" stroke="blue"/></g><g id="Symbols"><g id="Bold-L" transform="matrix(1 0 0 1 2266 1556)"><path d="M77.239 24.433  28.864 -1.851 V-40.551 L2.902 -54.58 L77.239 -95.054 L151.898 -54.58 V-1.69 H138.514 V-46.84 L125.775 -40.551 V-1.851 L77.239 24.433 Z M77.239 -29.264  123.517 -54.58  77.239 -79.412  31.283 -54.58  77.239 -29.264 Z M77.239 9.275  112.23 -10.075 V-32.65 L77.239 -14.106 L42.248 -32.972 V-10.075 L77.239 9.275 Z"/></g><g id="Semibold-L" transform="matrix(1 0 0 1 1970.27 1556)"><path d="M77.239 23.731  29.565 -2.272 V-40.972 L4.445 -54.58 L77.239 -94.283 L150.355 -54.58 V-2.461 H138.584 V-47.751 L125.004 -40.972 V-2.272 L77.239 23.731 Z M77.239 -28.212  125.48 -54.58  77.239 -80.464  29.32 -54.58  77.239 -28.212 Z M77.239 10.397  113.141 -9.444 V-33.982 L77.239 -14.877 L41.336 -34.304 V-9.444 L77.239 10.397 Z"/></g><g id="Medium-L" transform="matrix(1 0 0 1 1674.31 1556)"><path d="M77.239 23.206  30.091 -2.587 V-41.287 L5.602 -54.58 L77.239 -93.704 L149.198 -54.58 V-3.04 H138.636 V-48.435 L124.425 -41.287 V-2.587 L77.239 23.206 Z M77.239 -27.423  126.953 -54.58  77.239 -81.253  27.847 -54.58  77.239 -27.423 Z M77.239 11.238  113.825 -8.971 V-34.981 L77.239 -15.456 L40.653 -35.304 V-8.971 L77.239 11.238 Z"/></g><g id="Regular-L" transform="matrix(1 0 0 1 1378.56 1556)"><path d="M77.239 22.82  30.476 -2.819 V-41.519 L6.45 -54.58 L77.239 -93.28 L148.35 -54.58 V-3.464 H138.675 V-48.936 L124.001 -41.519 V-2.819 L77.239 22.82 Z M77.239 -26.845  128.032 -54.58  77.239 -81.831  26.768 -54.58  77.239 -26.845 Z M77.239 11.855  114.326 -8.624 V-35.714 L77.239 -15.88 L40.151 -36.036 V-8.624 L77.239 11.855 Z"/></g><g id="Light-L" transform="matrix(1 0 0 1 1082.77 1556)"><path d="M77.301 15.377  34.198 -8.215 V-43.193 L13.148 -54.58 L77.301 -89.559 L141.651 -54.58 V-8.55 H134.333 V-50.301 L120.404 -43.193 V-8.215 L77.301 15.377 Z M77.301 -27.899  126.234 -54.58  77.301 -80.901  28.566 -54.58  77.301 -27.899 Z M77.301 7.079  113.086 -12.593 V-38.753 L77.301 -19.613 L41.516 -39.013 V-12.593 L77.301 7.079 Z"/></g><g id="Thin-L" transform="matrix(1 0 0 1 787.282 1556)"><path d="M77.363 7.935  37.919 -13.61 V-44.868 L19.846 -54.58 L77.363 -85.838 L134.954 -54.58 V-13.635 H129.992 V-51.665 L116.807 -44.868 V-13.61 L77.363 7.935 Z M77.363 -28.954  124.435 -54.58  77.363 -79.971  30.365 -54.58  77.363 -28.954 Z M77.363 2.304  111.845 -16.562 V-41.792 L77.363 -23.345 L42.88 -41.99 V-16.562 L77.363 2.304 Z"/></g><g id="Ultralight-L" transform="matrix(1 0 0 1 491.205 1556)"><path d="M77.4 3.47  40.151 -16.847 V-45.872 L23.865 -54.58 L77.4 -83.605 L130.935 -54.58 V-16.686 H127.388 V-52.484 L114.649 -45.872 V-16.847 L77.4 3.47 Z M77.4 -29.586  123.356 -54.58  77.4 -79.412  31.444 -54.58  77.4 -29.586 Z M77.4 -0.561  111.101 -18.944 V-43.615 L77.4 -25.585 L43.699 -43.776 V-18.944 L77.4 -0.561 Z"/></g><g id="Bold-M" transform="matrix(1 0 0 1 2281.8 1126)"><path d="M60 11.52  23.25 -8.23 V-38.23 L1.375 -50.23 L60 -82.105 L118.625 -50.23 V-8.355 H104.75 V-42.605 L96.75 -38.23 V-8.23 L60 11.52 Z M60 -34.23  89.625 -50.23  60 -66.23  30.375 -50.23  60 -34.23 Z M60 -4.23  82.875 -16.605 V-30.73 L60 -18.355 L37.125 -30.73 V-16.605 L60 -4.23 Z"/></g><g id="Semibold-M" transform="matrix(1 0 0 1 1985.97 1126)"><path d="M60 10.759  24.011 -8.665 V-38.665 L2.951 -50.23 L60 -81.29 L117.049 -50.23 V-9.17 H104.859 V-43.529 L95.989 -38.665 V-8.665 L60 10.759 Z M60 -33.143  91.636 -50.23  60 -67.317  28.364 -50.23  60 -33.143 Z M60 -3.089  83.799 -15.953 V-32.143 L60 -19.17 L36.201 -32.143 V-15.953 L60 -3.089 Z"/></g><g id="Medium-M" transform="matrix(1 0 0 1 1689.91 1126)"><path d="M60 10.189  24.581 -8.991 V-38.991 L4.133 -50.23 L60 -80.678 L115.867 -50.23 V-9.782 H104.94 V-44.222 L95.418 -38.991 V-8.991 L60 10.189 Z M60 -32.328  93.144 -50.23  60 -68.132  26.856 -50.23  60 -32.328 Z M60 -2.233  84.492 -15.464 V-33.203 L60 -19.782 L35.508 -33.203 V-15.464 L60 -2.233 Z"/></g><g id="Regular-M" transform="matrix(1 0 0 1 1394.06 1126)"><path d="M60 9.77  25 -9.23 V-39.23 L5 -50.23 L60 -80.23 L115 -50.23 V-10.23 H105 V-44.73 L95 -39.23 V-9.23 L60 9.77 Z M60 -31.73  94.25 -50.23  60 -68.73  25.75 -50.23  60 -31.73 Z M60 -1.605  85 -15.105 V-33.98 L60 -20.23 L35 -33.98 V-15.105 L60 -1.605 Z"/></g><g id="Light-M" transform="matrix(1 0 0 1 1098.18 1126)"><path d="M60 4  27.5 -13.653 V-40.769 L10.193 -50.23 L60 -77.345 L109.807 -50.23 V-14.269 H102.308 V-46.076 L92.5 -40.769 V-13.653 L60 4 Z M60 -31.73  94.202 -50.23  60 -68.73  25.798 -50.23  60 -31.73 Z M60 -4.538  85 -18.038 V-36.769 L60 -23.124 L35 -36.769 V-18.038 L60 -4.538 Z"/></g><g id="Thin-M" transform="matrix(1 0 0 1 802.565 1126)"><path d="M60 -1.768  30 -18.076 V-42.307 L15.384 -50.23 L60 -74.461 L104.615 -50.23 V-18.307 H99.615 V-47.422 L90 -42.307 V-18.076 L60 -1.768 Z M60 -31.73  94.154 -50.23  60 -68.73  25.846 -50.23  60 -31.73 Z M60 -7.47  85 -20.97 V-39.557 L60 -26.017 L35 -39.557 V-20.97 L60 -7.47 Z"/></g><g id="Ultralight-M" transform="matrix(1 0 0 1 506.415 1126)"><path d="M60 -5.23  31.5 -20.73 V-43.23 L18.5 -50.23 L60 -72.73 L101.5 -50.23 V-20.73 H98 V-48.23 L88.5 -43.23 V-20.73 L60 -5.23 Z M60 -31.73  94.125 -50.23  60 -68.73  25.875 -50.23  60 -31.73 Z M60 -9.23  85 -22.73 V-41.23 L60 -27.753 L35 -41.23 V-22.73 L60 -9.23 Z"/></g><g id="Bold-S" transform="matrix(1 0 0 1 2294.23 696)"><path d="M47.34 -0.711  19.922 -14.321 V-37.991 L1.874 -47.065 L47.34 -69.847 L92.806 -47.065 V-14.815 H82.648 V-41.838 L74.758 -37.991 V-14.321 L47.34 -0.711 Z M47.34 -35.723  70.418 -47.065  47.34 -58.407  24.262 -47.065  47.34 -35.723 Z M47.34 -12.152  64.599 -20.732 V-32.666 L47.34 -24.283 L30.081 -32.666 V-20.732 L47.34 -12.152 Z"/></g><g id="Semibold-S" transform="matrix(1 0 0 1 1998.1 696)"><path d="M47.34 -1.312  20.523 -14.665 V-38.335 L3.117 -47.065 L47.34 -69.204 L91.563 -47.065 V-15.458 H82.734 V-42.567 L74.157 -38.335 V-14.665 L47.34 -1.312 Z M47.34 -34.866  72.005 -47.065  47.34 -59.264  22.675 -47.065  47.34 -34.866 Z M47.34 -11.251  65.328 -20.218 V-33.781 L47.34 -24.926 L29.352 -33.781 V-20.218 L47.34 -11.251 Z"/></g><g id="Medium-S" transform="matrix(1 0 0 1 1701.85 696)"><path d="M47.34 -1.762  20.973 -14.922 V-38.592 L4.05 -47.065 L47.34 -68.722 L90.63 -47.065 V-15.94 H82.798 V-43.114 L73.707 -38.592 V-14.922 L47.34 -1.762 Z M47.34 -34.222  73.195 -47.065  47.34 -59.908  21.485 -47.065  47.34 -34.222 Z M47.34 -10.576  65.875 -19.832 V-34.617 L47.34 -25.408 L28.805 -34.617 V-19.832 L47.34 -10.576 Z"/></g><g id="Regular-S" transform="matrix(1 0 0 1 1405.73 696)"><path d="M47.34 -2.092  21.303 -15.11 V-38.78 L4.734 -47.065 L47.34 -68.368 L89.946 -47.065 V-16.294 H82.845 V-43.514 L73.377 -38.78 V-15.11 L47.34 -2.092 Z M47.34 -33.751  74.067 -47.065  47.34 -60.379  20.613 -47.065  47.34 -33.751 Z M47.34 -10.081  66.276 -19.549 V-35.23 L47.34 -25.762 L28.404 -35.23 V-19.549 L47.34 -10.081 Z"/></g><g id="Light-S" transform="matrix(1 0 0 1 1109.75 696)"><path d="M47.34 -6.644  23.276 -18.601 V-39.994 L8.831 -47.065 L47.34 -66.092 L85.849 -47.065 V-19.481 H80.721 V-44.577 L71.404 -39.994 V-18.601 L47.34 -6.644 Z M47.34 -33.751  74.029 -47.065  47.34 -60.379  20.651 -47.065  47.34 -33.751 Z M47.34 -12.395  66.276 -21.863 V-37.43 L47.34 -28.045 L28.404 -37.43 V-21.863 L47.34 -12.395 Z"/></g><g id="Thin-S" transform="matrix(1 0 0 1 814.015 696)"><path d="M47.34 -11.196  25.248 -22.09 V-41.208 L12.927 -47.065 L47.34 -63.816 L81.753 -47.065 V-22.667 H78.597 V-45.639 L69.432 -41.208 V-22.09 L47.34 -11.196 Z M47.34 -33.751  73.992 -47.065  47.34 -60.379  20.688 -47.065  47.34 -33.751 Z M47.34 -14.708  66.276 -24.176 V-39.63 L47.34 -30.328 L28.404 -39.63 V-24.176 L47.34 -14.708 Z"/></g><g id="Ultralight-S" transform="matrix(1 0 0 1 517.792 696)"><path d="M47.34 -13.927  26.431 -24.184 V-41.936 L15.386 -47.065 L47.34 -62.45 L79.294 -47.065 V-24.578 H77.322 V-46.276 L68.249 -41.936 V-24.184 L47.34 -13.927 Z M47.34 -33.751  73.969 -47.065  47.34 -60.379  20.711 -47.065  47.34 -33.751 Z M47.34 -16.097  66.276 -25.565 V-40.95 L47.34 -31.698 L28.404 -40.95 V-25.565 L47.34 -16.097 Z"/></g></g></svg>