<svg xmlns="http://www.w3.org/2000/svg" version="1.1" width="3300" height="2000"><g id="Notes"><style>
    text {
      font-family: monospace;
      text-anchor: middle;
    }
    text.emphasis {
      font-weight:bold;
    }
    text.lanchor {
      text-anchor: start;
    }
  </style><rect height="2200" id="artboard" fill="white" width="3300" x="0" y="0"/><line id="" style="fill:none;stroke:black;stroke-width:0.5;" x1="263" x2="3036" y1="292" y2="292"/><text class="lanchor emphasis" transform="matrix(1 0 0 1 263 322)">Weight/Scale Variations</text><text transform="matrix(1 0 0 1 559.711 322)">Ultralight</text><text transform="matrix(1 0 0 1 856.422 322)">Thin</text><text transform="matrix(1 0 0 1 1153.13 322)">Light</text><text transform="matrix(1 0 0 1 1449.84 322)">Regular</text><text transform="matrix(1 0 0 1 1746.56 322)">Medium</text><text transform="matrix(1 0 0 1 2043.27 322)">Semibold</text><text transform="matrix(1 0 0 1 2339.98 322)">Bold</text><text transform="matrix(1 0 0 1 2636.69 322)">Heavy</text><text transform="matrix(1 0 0 1 2933.4 322)">Black</text><text id="template-version" style="text-anchor: end;" transform="matrix(1 0 0 1 3036 1933)">Template v.1.0</text><text class="lanchor" transform="matrix(1 0 0 1 263 726)">Small</text><text class="lanchor" transform="matrix(1 0 0 1 263 1156)">Medium</text><text class="lanchor" transform="matrix(1 0 0 1 263 1586)">Large</text></g><g id="Guides"><g id="H-reference" style="fill:#27AAE1;stroke:none;" transform="matrix(1 0 0 1 339 696)"><path d="M 54.9316 0 L 57.666 0 L 30.5664 -70.459 L 28.0762 -70.459 L 0.976562 0 L 3.66211 0 L 12.9395 -24.4629 L 45.7031 -24.4629 Z M 29.1992 -67.0898 L 29.4434 -67.0898 L 44.8242 -26.709 L 13.8184 -26.709 Z"/></g><line id="Baseline-S" style="fill:none;stroke:#27AAE1;opacity:1;stroke-width:0.577;" x1="263" x2="3036" y1="696" y2="696"/><line id="Capline-S" style="fill:none;stroke:#27AAE1;opacity:1;stroke-width:0.577;" x1="263" x2="3036" y1="625.541" y2="625.541"/><g id="H-reference" style="fill:#27AAE1;stroke:none;" transform="matrix(1 0 0 1 339 1126)"><path d="M 54.9316 0 L 57.666 0 L 30.5664 -70.459 L 28.0762 -70.459 L 0.976562 0 L 3.66211 0 L 12.9395 -24.4629 L 45.7031 -24.4629 Z M 29.1992 -67.0898 L 29.4434 -67.0898 L 44.8242 -26.709 L 13.8184 -26.709 Z"/></g><line id="Baseline-M" style="fill:none;stroke:#27AAE1;opacity:1;stroke-width:0.577;" x1="263" x2="3036" y1="1126" y2="1126"/><line id="Capline-M" style="fill:none;stroke:#27AAE1;opacity:1;stroke-width:0.577;" x1="263" x2="3036" y1="1055.54" y2="1055.54"/><g id="H-reference" style="fill:#27AAE1;stroke:none;" transform="matrix(1 0 0 1 339 1556)"><path d="M 54.9316 0 L 57.666 0 L 30.5664 -70.459 L 28.0762 -70.459 L 0.976562 0 L 3.66211 0 L 12.9395 -24.4629 L 45.7031 -24.4629 Z M 29.1992 -67.0898 L 29.4434 -67.0898 L 44.8242 -26.709 L 13.8184 -26.709 Z"/></g><line id="Baseline-L" style="fill:none;stroke:#27AAE1;opacity:1;stroke-width:0.577;" x1="263" x2="3036" y1="1556" y2="1556"/><line id="Capline-L" style="fill:none;stroke:#27AAE1;opacity:1;stroke-width:0.577;" x1="263" x2="3036" y1="1485.54" y2="1485.54"/><rect height="119.336" id="left-margin" style="fill:darkred;stroke:none;opacity:0.4;" width="12.4512" x="1394.06" y="1030.79"/><rect height="119.336" id="right-margin" style="fill:darkgreen;stroke:none;opacity:0.4;" width="12.4512" x="1502.5112" y="1030.79"/><rect x="1406.5112" y="1045" width="96" height="96" fill="none" stroke="blue" stroke-dasharray="5"/><rect x="1394.06" y="1030.79" width="120.9024" height="119.336" fill="none" stroke="blue"/></g><g id="Symbols"><g id="Bold-L" transform="matrix(1 0 0 1 2266 1556)"><path d="M146.093 15.241  130.774 0.084 V-68.125 Q130.774 -68.125 130.774 -68.125 Q130.774 -68.125 130.774 -68.125 H104.329 L91.267 -82.154 H63.855 L56.599 -74.091 L45.956 -84.734 L57.631 -97.472 H97.234 L110.779 -83.444 H130.774 Q136.976 -83.444 141.534 -78.885 Q146.093 -74.327 146.093 -68.125 V15.241 Z M24.026 26.851 Q17.729 26.851 13.299 22.421 Q8.869 17.991 8.869 11.694 V-68.125 Q8.869 -74.327 13.299 -78.885 Q17.729 -83.444 24.026 -83.444 H31.121 L46.279 -68.125 H24.026 Q24.026 -68.125 24.026 -68.125 Q24.026 -68.125 24.026 -68.125 V11.694 Q24.026 11.694 24.026 11.694 Q24.026 11.694 24.026 11.694 H126.097 L141.416 26.851 H24.026 Z M101.426 -12.977 Q97.758 -7.069 91.368 -3.493 Q84.979 0.084 77.423 0.084 Q65.226 0.084 57.123 -8.032 Q49.02 -16.149 49.02 -28.296 Q49.02 -35.991 52.487 -42.383 Q55.954 -48.775 61.92 -52.484 L71.595 -42.809 Q67.226 -41.286 64.573 -37.362 Q61.92 -33.438 61.92 -28.177 Q61.92 -21.685 66.274 -17.251 Q70.627 -12.816 77.4 -12.816 Q82.414 -12.816 86.438 -15.477 Q90.461 -18.137 91.913 -22.491 L101.426 -12.977 Z M97.556 -48.452 Q101.426 -44.582 103.603 -39.613 Q105.78 -34.644 105.78 -28.619 Q105.78 -27.732 105.619 -27.006 Q105.457 -26.281 105.296 -25.555 L74.498 -56.192 Q75.223 -56.354 75.949 -56.515 Q76.674 -56.676 77.561 -56.676 Q83.497 -56.676 88.591 -54.419 Q93.686 -52.161 97.556 -48.452 Z M136.256 38.139  3.548 -94.57  11.771 -102.794  144.48 29.915  136.256 38.139 Z"/></g><g id="Semibold-L" transform="matrix(1 0 0 1 1970.27 1556)"><path d="M144.27 15.311  131.405 2.537 V-68.756 Q131.405 -68.756 131.405 -68.756 Q131.405 -68.756 131.405 -68.756 H104.188 L91.688 -82.785 H63.294 L55.267 -73.601 L46.307 -82.561 L57.813 -95.65 H97.023 L109.797 -81.621 H131.405 Q136.523 -81.621 140.396 -77.748 Q144.27 -73.874 144.27 -68.756 V15.311 Z M23.395 25.099 Q18.154 25.099 14.388 21.332 Q10.621 17.566 10.621 12.325 V-68.756 Q10.621 -73.874 14.388 -77.748 Q18.154 -81.621 23.395 -81.621 H32.103 L44.877 -68.756 H23.395 Q23.395 -68.756 23.395 -68.756 Q23.395 -68.756 23.395 -68.756 V12.325 Q23.395 12.325 23.395 12.325 Q23.395 12.325 23.395 12.325 H125.957 L138.822 25.099 H23.395 Z M100.795 -12.837 Q97.109 -7.184 90.974 -3.761 Q84.838 -0.337 77.423 -0.337 Q65.401 -0.337 57.421 -8.36 Q49.441 -16.382 49.441 -28.296 Q49.441 -35.791 52.767 -41.967 Q56.094 -48.144 61.78 -51.853 L70.333 -43.299 Q66.041 -41.457 63.49 -37.448 Q60.938 -33.438 60.938 -28.205 Q60.938 -21.264 65.573 -16.55 Q70.207 -11.835 77.4 -11.835 Q82.484 -11.835 86.543 -14.39 Q90.602 -16.946 92.403 -21.229 L100.795 -12.837 Z M97.276 -48.172 Q101.076 -44.372 103.218 -39.425 Q105.359 -34.478 105.359 -28.478 Q105.359 -27.276 105.198 -26.235 Q105.037 -25.194 104.806 -24.153 L73.166 -55.702 Q74.207 -55.933 75.248 -56.094 Q76.289 -56.256 77.491 -56.256 Q83.356 -56.256 88.416 -54.068 Q93.476 -51.881 97.276 -48.172 Z M135.415 37.017  3.828 -94.57  11.491 -102.233  143.078 29.354  135.415 37.017 Z"/></g><g id="Medium-L" transform="matrix(1 0 0 1 1674.31 1556)"><path d="M142.903 15.364  131.878 4.378 V-69.229 Q131.878 -69.229 131.878 -69.229 Q131.878 -69.229 131.878 -69.229 H104.083 L92.004 -83.258 H62.873 L54.268 -73.232 L46.57 -80.93 L57.95 -94.283 H96.866 L109.061 -80.254 H131.878 Q136.183 -80.254 139.543 -76.894 Q142.903 -73.534 142.903 -69.229 V15.364 Z M22.922 23.784 Q18.472 23.784 15.204 20.516 Q11.936 17.248 11.936 12.798 V-69.229 Q11.936 -73.534 15.204 -76.894 Q18.472 -80.254 22.922 -80.254 H32.839 L43.825 -69.229 H22.922 Q22.922 -69.229 22.922 -69.229 Q22.922 -69.229 22.922 -69.229 V12.798 Q22.922 12.798 22.922 12.798 Q22.922 12.798 22.922 12.798 H125.852 L136.877 23.784 H22.922 Z M100.322 -12.732 Q96.623 -7.271 90.678 -3.961 Q84.733 -0.652 77.423 -0.652 Q65.532 -0.652 57.644 -8.605 Q49.756 -16.558 49.756 -28.296 Q49.756 -35.64 52.978 -41.655 Q56.199 -47.671 61.675 -51.38 L69.387 -43.668 Q65.152 -41.586 62.677 -37.512 Q60.202 -33.438 60.202 -28.227 Q60.202 -20.949 65.047 -16.024 Q69.891 -11.099 77.4 -11.099 Q82.536 -11.099 86.622 -13.575 Q90.707 -16.052 92.771 -20.283 L100.322 -12.732 Z M97.066 -47.962 Q100.813 -44.214 102.928 -39.284 Q105.044 -34.354 105.044 -28.373 Q105.044 -26.934 104.883 -25.657 Q104.721 -24.379 104.437 -23.101 L72.166 -55.334 Q73.444 -55.618 74.722 -55.779 Q76 -55.94 77.439 -55.94 Q83.251 -55.94 88.285 -53.805 Q93.318 -51.671 97.066 -47.962 Z M134.784 36.176  4.038 -94.57  11.281 -101.812  142.026 28.933  134.784 36.176 Z"/></g><g id="Regular-L" transform="matrix(1 0 0 1 1378.56 1556)"><path d="M141.9 15.403  132.225 5.728 V-69.576 Q132.225 -69.576 132.225 -69.576 Q132.225 -69.576 132.225 -69.576 H104.006 L92.235 -83.605 H62.565 L53.535 -72.962 L46.763 -79.735 L58.05 -93.28 H96.75 L108.521 -79.251 H132.225 Q135.934 -79.251 138.917 -76.268 Q141.9 -73.285 141.9 -69.576 V15.403 Z M22.575 22.82 Q18.705 22.82 15.803 19.918 Q12.9 17.015 12.9 13.145 V-69.576 Q12.9 -73.285 15.803 -76.268 Q18.705 -79.251 22.575 -79.251 H33.379 L43.054 -69.576 H22.575 Q22.575 -69.576 22.575 -69.576 Q22.575 -69.576 22.575 -69.576 V13.145 Q22.575 13.145 22.575 13.145 Q22.575 13.145 22.575 13.145 H125.775 L135.45 22.82 H22.575 Z M99.975 -12.655 Q96.266 -7.334 90.461 -4.109 Q84.656 -0.884 77.423 -0.884 Q65.629 -0.884 57.808 -8.785 Q49.988 -16.686 49.988 -28.296 Q49.988 -35.53 53.132 -41.427 Q56.276 -47.324 61.598 -51.032 L68.692 -43.937 Q64.5 -41.68 62.081 -37.559 Q59.663 -33.438 59.663 -28.243 Q59.663 -20.717 64.661 -15.638 Q69.66 -10.559 77.4 -10.559 Q82.575 -10.559 86.679 -12.977 Q90.784 -15.396 93.041 -19.589 L99.975 -12.655 Z M96.911 -47.807 Q100.62 -44.099 102.716 -39.181 Q104.812 -34.262 104.812 -28.296 Q104.812 -26.684 104.651 -25.232 Q104.49 -23.781 104.168 -22.33 L71.434 -55.064 Q72.885 -55.386 74.336 -55.547 Q75.788 -55.709 77.4 -55.709 Q83.174 -55.709 88.188 -53.612 Q93.203 -51.516 96.911 -47.807 Z M134.321 35.559  4.192 -94.57  11.126 -101.504  141.255 28.625  134.321 35.559 Z"/></g><g id="Light-L" transform="matrix(1 0 0 1 1082.77 1556)"><path d="M138.675 11.123  131.357 3.805 V-67.033 Q131.357 -67.84 130.798 -68.429 Q130.24 -69.018 129.372 -69.018 H103.82 L91.987 -82.737 H62.813 L54.527 -73.087 L49.367 -78.184 L59.414 -90.055 H95.386 L107.219 -76.336 H129.372 Q133.081 -76.336 135.878 -73.539 Q138.675 -70.742 138.675 -67.033 V11.123 Z M25.428 19.595 Q21.634 19.595 18.88 16.84 Q16.125 14.086 16.125 10.292 V-67.033 Q16.125 -70.742 18.88 -73.539 Q21.634 -76.336 25.428 -76.336 H36.294 L43.612 -69.018 H25.428 Q24.56 -69.018 24.002 -68.429 Q23.443 -67.84 23.443 -67.033 V10.292 Q23.443 11.16 24.002 11.718 Q24.56 12.277 25.428 12.277 H124.907 L132.225 19.595 H25.428 Z M98.424 -14.206 Q95.045 -9.138 89.611 -6.096 Q84.176 -3.055 77.423 -3.055 Q66.559 -3.055 59.297 -10.367 Q52.034 -17.679 52.034 -28.412 Q52.034 -35.158 55.024 -40.652 Q58.013 -46.145 63.024 -49.606 L68.382 -44.248 Q64.252 -41.928 61.802 -37.774 Q59.352 -33.62 59.352 -28.392 Q59.352 -20.717 64.475 -15.545 Q69.598 -10.373 77.417 -10.373 Q82.575 -10.373 86.741 -12.822 Q90.908 -15.272 93.227 -19.403 L98.424 -14.206 Z M95.423 -46.443 Q98.759 -43.106 100.67 -38.823 Q102.58 -34.539 102.704 -29.227 Q102.704 -28.172 102.605 -27.217 Q102.505 -26.262 102.245 -25.307 L74.287 -53.265 Q75.242 -53.464 76.197 -53.594 Q77.152 -53.724 78.206 -53.724 Q83.327 -53.6 87.706 -51.69 Q92.086 -49.78 95.423 -46.443 Z M135.748 33.636  8.162 -93.95  13.421 -99.209  141.007 28.377  135.748 33.636 Z"/></g><g id="Thin-L" transform="matrix(1 0 0 1 787.282 1556)"><path d="M135.45 6.844  130.488 1.882 V-64.491 Q130.488 -66.103 129.372 -67.282 Q128.256 -68.46 126.519 -68.46 H103.634 L91.739 -81.868 H63.061 L55.52 -73.211 L51.972 -76.634 L60.779 -86.83 H94.021 L105.916 -73.421 H126.519 Q130.228 -73.421 132.839 -70.81 Q135.45 -68.199 135.45 -64.491 V6.844 Z M28.281 16.37 Q24.563 16.37 21.956 13.764 Q19.35 11.157 19.35 7.439 V-64.491 Q19.35 -68.199 21.956 -70.81 Q24.563 -73.421 28.281 -73.421 H39.209 L44.17 -68.46 H28.281 Q26.544 -68.46 25.428 -67.282 Q24.312 -66.103 24.312 -64.491 V7.439 Q24.312 9.176 25.428 10.292 Q26.544 11.408 28.281 11.408 H124.038 L129 16.37 H28.281 Z M96.874 -15.756 Q93.825 -10.942 88.76 -8.084 Q83.696 -5.225 77.423 -5.225 Q67.489 -5.225 60.785 -11.948 Q54.081 -18.671 54.081 -28.527 Q54.081 -34.786 56.915 -39.876 Q59.749 -44.967 64.45 -48.18 L68.072 -44.558 Q64.004 -42.176 61.523 -37.989 Q59.042 -33.802 59.042 -28.542 Q59.042 -20.717 64.289 -15.452 Q69.536 -10.187 77.433 -10.187 Q82.575 -10.187 86.803 -12.667 Q91.032 -15.148 93.413 -19.217 L96.874 -15.756 Z M93.934 -45.079 Q96.899 -42.114 98.623 -38.465 Q100.347 -34.816 100.595 -30.157 Q100.595 -29.661 100.558 -29.202 Q100.521 -28.743 100.322 -28.284 L77.139 -51.467 Q77.598 -51.541 78.057 -51.64 Q78.516 -51.74 79.013 -51.74 Q83.479 -51.491 87.225 -49.767 Q90.97 -48.043 93.934 -45.079 Z M137.174 31.714  12.131 -93.33  15.716 -96.914  140.759 28.129  137.174 31.714 Z"/></g><g id="Ultralight-L" transform="matrix(1 0 0 1 491.205 1556)"><path d="M133.515 4.276  129.968 0.729 V-62.965 Q129.968 -65.061 128.516 -66.593 Q127.065 -68.125 124.808 -68.125 H103.523 L91.59 -81.347 H63.21 L56.115 -73.285 L53.535 -75.704 L61.598 -84.895 H93.203 L105.135 -71.672 H124.808 Q128.516 -71.672 131.016 -69.173 Q133.515 -66.674 133.515 -62.965 V4.276 Z M29.992 14.435 Q26.32 14.435 23.803 11.917 Q21.285 9.4 21.285 5.728 V-62.965 Q21.285 -66.674 23.803 -69.173 Q26.32 -71.672 29.992 -71.672 H40.958 L44.505 -68.125 H29.992 Q27.735 -68.125 26.284 -66.593 Q24.832 -65.061 24.832 -62.965 V5.728 Q24.832 7.985 26.284 9.436 Q27.735 10.888 29.992 10.888 H123.517 L127.065 14.435 H29.992 Z M95.944 -16.686 Q93.092 -12.025 88.25 -9.276 Q83.408 -6.527 77.423 -6.527 Q68.047 -6.527 61.678 -12.897 Q55.309 -19.266 55.309 -28.596 Q55.309 -34.562 58.05 -39.411 Q60.791 -44.26 65.306 -47.324 L67.886 -44.744 Q63.855 -42.325 61.356 -38.118 Q58.856 -33.911 58.856 -28.631 Q58.856 -20.717 64.177 -15.396 Q69.499 -10.075 77.443 -10.075 Q82.575 -10.075 86.841 -12.574 Q91.106 -15.074 93.525 -19.105 L95.944 -16.686 Z M93.041 -44.26 Q95.782 -41.519 97.395 -38.25 Q99.008 -34.982 99.33 -30.715 Q99.33 -30.554 99.33 -30.392 Q99.33 -30.231 99.169 -30.07 L78.851 -50.387 Q79.013 -50.387 79.174 -50.468 Q79.335 -50.549 79.496 -50.549 Q83.571 -50.226 86.936 -48.614 Q90.3 -47.001 93.041 -44.26 Z M138.03 30.56  14.513 -92.957  17.093 -95.537  140.61 27.98  138.03 30.56 Z"/></g><g id="Bold-M" transform="matrix(1 0 0 1 2281.8 1126)"><path d="M114.25 0.27  98.5 -15.48 V-58.73 Q98.5 -58.73 98.5 -58.73 Q98.5 -58.73 98.5 -58.73 H80.125 L69.625 -68.73 H50.75 L47.75 -66.105 L36.625 -77.23 L44.5 -84.48 H75.5 L86.5 -74.48 H98.5 Q105.125 -74.48 109.688 -69.917 Q114.25 -65.355 114.25 -58.73 V0.27 Z M21.5 14.02 Q14.875 14.02 10.312 9.458 Q5.75 4.895 5.75 -1.73 V-58.73 Q5.75 -65.355 10.312 -69.917 Q14.875 -74.48 21.5 -74.48 H22.75 L38.5 -58.73 H21.5 Q21.5 -58.73 21.5 -58.73 Q21.5 -58.73 21.5 -58.73 V-1.73 Q21.5 -1.73 21.5 -1.73 Q21.5 -1.73 21.5 -1.73 H95.5 L111.25 14.02 H21.5 Z M79.75 -17.48 Q76.625 -12.605 71.438 -9.667 Q66.25 -6.73 60 -6.73 Q50.208 -6.73 43.354 -13.584 Q36.5 -20.438 36.5 -30.23 Q36.5 -36.48 39.438 -41.667 Q42.375 -46.855 47.25 -49.98 L57.125 -40.105 Q53.875 -39.105 51.812 -36.48 Q49.75 -33.855 49.75 -30.23 Q49.75 -25.855 52.688 -22.917 Q55.625 -19.98 60 -19.98 Q63.625 -19.98 66.25 -22.042 Q68.875 -24.105 69.875 -27.355 L79.75 -17.48 Z M76.625 -46.855 Q79.875 -43.605 81.688 -39.44 Q83.5 -35.276 83.5 -30.48 Q83.5 -30.48 83.5 -30.48 Q83.5 -30.48 83.5 -30.48 L60.125 -53.73 Q60.125 -53.73 60.125 -53.73 Q60.125 -53.73 60.125 -53.73 Q64.875 -53.73 69.125 -51.917 Q73.375 -50.105 76.625 -46.855 Z M104.375 23.895  2.75 -77.73  11.125 -86.105  112.75 15.52  104.375 23.895 Z"/></g><g id="Semibold-M" transform="matrix(1 0 0 1 1985.97 1126)"><path d="M112.402 0.324  99.152 -12.926 V-59.382 Q99.152 -59.382 99.152 -59.382 Q99.152 -59.382 99.152 -59.382 H79.962 L70.06 -69.382 H50.152 L46.391 -65.616 L37.005 -75.002 L44.717 -82.632 H75.283 L85.522 -72.632 H99.152 Q104.69 -72.632 108.546 -68.776 Q112.402 -64.92 112.402 -59.382 V0.324 Z M20.848 12.172 Q15.31 12.172 11.454 8.316 Q7.598 4.46 7.598 -1.078 V-59.382 Q7.598 -64.92 11.454 -68.776 Q15.31 -72.632 20.848 -72.632 H23.782 L37.033 -59.382 H20.848 Q20.848 -59.382 20.848 -59.382 Q20.848 -59.382 20.848 -59.382 V-1.078 Q20.848 -1.078 20.848 -1.078 Q20.848 -1.078 20.848 -1.078 H95.337 L108.587 12.172 H20.848 Z M79.098 -17.317 Q75.973 -12.714 71.003 -9.939 Q66.033 -7.165 60 -7.165 Q50.389 -7.165 43.662 -13.892 Q36.935 -20.619 36.935 -30.23 Q36.935 -36.263 39.709 -41.233 Q42.484 -46.203 47.087 -49.328 L55.821 -40.594 Q52.679 -39.322 50.726 -36.589 Q48.772 -33.855 48.772 -30.23 Q48.772 -25.475 52.008 -22.238 Q55.245 -19.002 60 -19.002 Q63.625 -19.002 66.359 -20.956 Q69.092 -22.909 70.364 -26.051 L79.098 -17.317 Z M76.353 -46.583 Q79.549 -43.442 81.307 -39.294 Q83.065 -35.147 83.065 -30.371 Q83.065 -30.045 83.065 -29.719 Q83.065 -29.393 83.011 -29.067 L58.766 -53.241 Q59.093 -53.295 59.419 -53.295 Q59.745 -53.295 60.071 -53.295 Q64.821 -53.295 69.016 -51.537 Q73.212 -49.779 76.353 -46.583 Z M103.505 22.754  3.022 -77.73  10.853 -85.561  111.337 14.922  103.505 22.754 Z"/></g><g id="Medium-M" transform="matrix(1 0 0 1 1689.91 1126)"><path d="M111.016 0.365  99.641 -11.01 V-59.871 Q99.641 -59.871 99.641 -59.871 Q99.641 -59.871 99.641 -59.871 H79.84 L70.386 -69.871 H49.704 L45.372 -65.249 L37.291 -73.331 L44.88 -81.246 H75.12 L84.788 -71.246 H99.641 Q104.364 -71.246 107.69 -67.92 Q111.016 -64.594 111.016 -59.871 V0.365 Z M20.359 10.786 Q15.636 10.786 12.31 7.46 Q8.984 4.134 8.984 -0.589 V-59.871 Q8.984 -64.594 12.31 -67.92 Q15.636 -71.246 20.359 -71.246 H24.557 L35.932 -59.871 H20.359 Q20.359 -59.871 20.359 -59.871 Q20.359 -59.871 20.359 -59.871 V-0.589 Q20.359 -0.589 20.359 -0.589 Q20.359 -0.589 20.359 -0.589 H95.215 L106.59 10.786 H20.359 Z M78.609 -17.195 Q75.484 -12.795 70.677 -10.143 Q65.87 -7.491 60 -7.491 Q50.525 -7.491 43.893 -14.123 Q37.261 -20.755 37.261 -30.23 Q37.261 -36.1 39.913 -40.907 Q42.565 -45.714 46.965 -48.839 L54.842 -40.961 Q51.783 -39.485 49.91 -36.67 Q48.038 -33.855 48.038 -30.23 Q48.038 -25.189 51.499 -21.729 Q54.959 -18.268 60 -18.268 Q63.625 -18.268 66.44 -20.14 Q69.255 -22.013 70.731 -25.072 L78.609 -17.195 Z M76.15 -46.379 Q79.304 -43.32 81.022 -39.185 Q82.739 -35.051 82.739 -30.29 Q82.739 -29.719 82.739 -29.148 Q82.739 -28.578 82.644 -28.007 L57.747 -52.874 Q58.318 -52.969 58.889 -52.969 Q59.459 -52.969 60.03 -52.969 Q64.78 -52.969 68.935 -51.252 Q73.09 -49.534 76.15 -46.379 Z M102.853 21.898  3.225 -77.73  10.649 -85.154  110.277 14.474  102.853 21.898 Z"/></g><g id="Regular-M" transform="matrix(1 0 0 1 1394.06 1126)"><path d="M110 0.395  100 -9.605 V-60.23 Q100 -60.23 100 -60.23 Q100 -60.23 100 -60.23 H79.75 L70.625 -70.23 H49.375 L44.625 -64.98 L37.5 -72.105 L45 -80.23 H75 L84.25 -70.23 H100 Q104.125 -70.23 107.062 -67.292 Q110 -64.355 110 -60.23 V0.395 Z M20 9.77 Q15.875 9.77 12.938 6.833 Q10 3.895 10 -0.23 V-60.23 Q10 -64.355 12.938 -67.292 Q15.875 -70.23 20 -70.23 H25.125 L35.125 -60.23 H20 Q20 -60.23 20 -60.23 Q20 -60.23 20 -60.23 V-0.23 Q20 -0.23 20 -0.23 Q20 -0.23 20 -0.23 H95.125 L105.125 9.77 H20 Z M78.25 -17.105 Q75.125 -12.855 70.438 -10.292 Q65.75 -7.73 60 -7.73 Q50.625 -7.73 44.062 -14.292 Q37.5 -20.855 37.5 -30.23 Q37.5 -35.98 40.062 -40.667 Q42.625 -45.355 46.875 -48.48 L54.125 -41.23 Q51.125 -39.605 49.312 -36.73 Q47.5 -33.855 47.5 -30.23 Q47.5 -24.98 51.125 -21.355 Q54.75 -17.73 60 -17.73 Q63.625 -17.73 66.5 -19.542 Q69.375 -21.355 71 -24.355 L78.25 -17.105 Z M76 -46.23 Q79.125 -43.23 80.812 -39.105 Q82.5 -34.98 82.5 -30.23 Q82.5 -29.48 82.5 -28.73 Q82.5 -27.98 82.375 -27.23 L57 -52.605 Q57.75 -52.73 58.5 -52.73 Q59.25 -52.73 60 -52.73 Q64.75 -52.73 68.875 -51.042 Q73 -49.355 76 -46.23 Z M102.375 21.27  3.375 -77.73  10.5 -84.855  109.5 14.145  102.375 21.27 Z"/></g><g id="Light-M" transform="matrix(1 0 0 1 1098.18 1126)"><path d="M107.5 -1.961  100 -9.461 V-58.691 Q100 -59.364 99.567 -59.797 Q99.135 -60.23 98.461 -60.23 H79.846 L70.673 -70.23 H49.327 L44.529 -64.932 L39.183 -70.278 L46.058 -77.73 H73.942 L83.192 -67.73 H98.461 Q102.25 -67.73 104.875 -65.105 Q107.5 -62.48 107.5 -58.691 V-1.961 Z M21.539 7.27 Q17.75 7.27 15.125 4.645 Q12.5 2.02 12.5 -1.769 V-58.691 Q12.5 -62.48 15.125 -65.105 Q17.75 -67.73 21.539 -67.73 H27.577 L35.077 -60.23 H21.539 Q20.866 -60.23 20.433 -59.797 Q20 -59.364 20 -58.691 V-1.769 Q20 -1.095 20.433 -0.663 Q20.866 -0.23 21.539 -0.23 H95.077 L102.577 7.27 H21.539 Z M76.856 -18.451 Q74.019 -14.442 69.668 -12.047 Q65.317 -9.653 60 -9.653 Q51.394 -9.653 45.409 -15.639 Q39.423 -21.624 39.423 -30.23 Q39.423 -35.547 41.817 -39.898 Q44.212 -44.249 48.221 -47.086 L53.644 -41.663 Q50.596 -39.99 48.76 -36.994 Q46.923 -33.999 46.923 -30.23 Q46.923 -24.691 50.692 -20.922 Q54.462 -17.153 60 -17.153 Q63.769 -17.153 66.764 -18.99 Q69.76 -20.826 71.433 -23.874 L76.856 -18.451 Z M74.606 -44.836 Q77.346 -42.172 78.889 -38.6 Q80.433 -35.028 80.529 -30.855 Q80.529 -30.393 80.529 -29.932 Q80.529 -29.47 80.452 -29.009 L58.779 -50.682 Q59.24 -50.759 59.702 -50.759 Q60.163 -50.759 60.625 -50.759 Q64.798 -50.662 68.37 -49.119 Q71.942 -47.576 74.606 -44.836 Z M103.962 19.347  6.404 -78.211  11.75 -83.557  109.308 14.001  103.962 19.347 Z"/></g><g id="Thin-M" transform="matrix(1 0 0 1 802.565 1126)"><path d="M105 -4.316  100 -9.316 V-57.153 Q100 -58.499 99.135 -59.365 Q98.269 -60.23 96.923 -60.23 H79.942 L70.721 -70.23 H49.279 L44.433 -64.884 L40.865 -68.451 L47.115 -75.23 H72.885 L82.135 -65.23 H96.923 Q100.375 -65.23 102.688 -62.917 Q105 -60.605 105 -57.153 V-4.316 Z M23.077 4.77 Q19.625 4.77 17.312 2.458 Q15 0.145 15 -3.307 V-57.153 Q15 -60.605 17.312 -62.917 Q19.625 -65.23 23.077 -65.23 H30.029 L35.029 -60.23 H23.077 Q21.731 -60.23 20.865 -59.365 Q20 -58.499 20 -57.153 V-3.307 Q20 -1.961 20.865 -1.095 Q21.731 -0.23 23.077 -0.23 H95.029 L100.029 4.77 H23.077 Z M75.462 -19.797 Q72.913 -16.028 68.899 -13.802 Q64.885 -11.576 60 -11.576 Q52.163 -11.576 46.755 -16.985 Q41.346 -22.393 41.346 -30.23 Q41.346 -35.115 43.572 -39.129 Q45.798 -43.143 49.567 -45.691 L53.163 -42.095 Q50.067 -40.374 48.207 -37.259 Q46.346 -34.143 46.346 -30.23 Q46.346 -24.403 50.26 -20.49 Q54.173 -16.576 60 -16.576 Q63.913 -16.576 67.029 -18.437 Q70.144 -20.297 71.865 -23.393 L75.462 -19.797 Z M73.212 -43.441 Q75.567 -41.115 76.966 -38.095 Q78.365 -35.076 78.558 -31.48 Q78.558 -31.307 78.558 -31.134 Q78.558 -30.961 78.529 -30.788 L60.558 -48.759 Q60.731 -48.788 60.904 -48.788 Q61.077 -48.788 61.25 -48.788 Q64.846 -48.595 67.865 -47.196 Q70.885 -45.797 73.212 -43.441 Z M105.548 17.424  9.433 -78.691  13 -82.259  109.115 13.857  105.548 17.424 Z"/></g><g id="Ultralight-M" transform="matrix(1 0 0 1 506.415 1126)"><path d="M103.5 -5.73  100 -9.23 V-56.23 Q100 -57.98 98.875 -59.105 Q97.75 -60.23 96 -60.23 H80 L70.75 -70.23 H49.25 L44.375 -64.855 L41.875 -67.355 L47.75 -73.73 H72.25 L81.5 -63.73 H96 Q99.25 -63.73 101.375 -61.605 Q103.5 -59.48 103.5 -56.23 V-5.73 Z M24 3.27 Q20.75 3.27 18.625 1.145 Q16.5 -0.98 16.5 -4.23 V-56.23 Q16.5 -59.48 18.625 -61.605 Q20.75 -63.73 24 -63.73 H31.5 L35 -60.23 H24 Q22.25 -60.23 21.125 -59.105 Q20 -57.98 20 -56.23 V-4.23 Q20 -2.48 21.125 -1.355 Q22.25 -0.23 24 -0.23 H95 L98.5 3.27 H24 Z M74.625 -20.605 Q72.25 -16.98 68.438 -14.855 Q64.625 -12.73 60 -12.73 Q52.625 -12.73 47.562 -17.792 Q42.5 -22.855 42.5 -30.23 Q42.5 -34.855 44.625 -38.667 Q46.75 -42.48 50.375 -44.855 L52.875 -42.355 Q49.75 -40.605 47.875 -37.417 Q46 -34.23 46 -30.23 Q46 -24.23 50 -20.23 Q54 -16.23 60 -16.23 Q64 -16.23 67.188 -18.105 Q70.375 -19.98 72.125 -23.105 L74.625 -20.605 Z M72.375 -42.605 Q74.5 -40.48 75.812 -37.792 Q77.125 -35.105 77.375 -31.855 Q77.375 -31.855 77.375 -31.855 Q77.375 -31.855 77.375 -31.855 L61.625 -47.605 Q61.625 -47.605 61.625 -47.605 Q61.625 -47.605 61.625 -47.605 Q64.875 -47.355 67.562 -46.042 Q70.25 -44.73 72.375 -42.605 Z M106.5 16.27  11.25 -78.98  13.75 -81.48  109 13.77  106.5 16.27 Z"/></g><g id="Bold-S" transform="matrix(1 0 0 1 2294.23 696)"><path d="M88.565 -7.516  76.928 -19.154 V-50.615 Q76.928 -50.615 76.928 -50.615 Q76.928 -50.615 76.928 -50.615 H63.021 L54.826 -60.083 H40.14 L38.267 -57.716 L29.982 -66.001 L35.111 -71.721 H59.57 L68.051 -62.253 H76.928 Q81.829 -62.253 85.197 -58.851 Q88.565 -55.448 88.565 -50.615 V-7.516 Z M17.753 1.261 Q12.92 1.261 9.517 -2.141 Q6.115 -5.544 6.115 -10.376 V-50.615 Q6.115 -55.448 9.517 -58.851 Q12.92 -62.253 17.753 -62.253 H21.796 L33.434 -50.615 H17.753 Q17.753 -50.615 17.753 -50.615 Q17.753 -50.615 17.753 -50.615 V-10.376 Q17.753 -10.376 17.753 -10.376 Q17.753 -10.376 17.753 -10.376 H73.673 L85.311 1.261 H17.753 Z M62.43 -21.62 Q60.26 -17.773 56.266 -15.456 Q52.271 -13.138 47.34 -13.138 Q39.91 -13.138 34.946 -18.201 Q29.982 -23.264 29.982 -30.496 Q29.982 -35.23 32.25 -39.274 Q34.519 -43.317 38.464 -45.586 L45.762 -38.287 Q43.001 -37.696 41.324 -35.594 Q39.647 -33.493 39.647 -30.595 Q39.647 -27.267 41.768 -25.035 Q43.888 -22.803 47.34 -22.803 Q50.397 -22.803 52.468 -24.529 Q54.54 -26.255 55.131 -28.918 L62.43 -21.62 Z M59.632 -42.7 Q62.035 -40.26 63.367 -37.224 Q64.698 -34.189 64.698 -30.693 Q64.698 -30.792 64.698 -31.038 Q64.698 -31.285 64.698 -31.384 L48.129 -47.854 Q48.03 -47.854 47.784 -47.854 Q47.537 -47.854 47.439 -47.854 Q50.941 -47.854 54.082 -46.494 Q57.223 -45.134 59.632 -42.7 Z M80.774 8.658  5.03 -67.086  11.046 -73.003  86.691 2.642  80.774 8.658 Z"/></g><g id="Semibold-S" transform="matrix(1 0 0 1 1998.1 696)"><path d="M87.107 -7.473  77.442 -17.139 V-51.13 Q77.442 -51.13 77.442 -51.13 Q77.442 -51.13 77.442 -51.13 H62.893 L55.169 -60.598 H39.669 L37.195 -57.331 L30.282 -64.243 L35.282 -70.263 H59.398 L67.279 -60.795 H77.442 Q81.486 -60.795 84.297 -57.95 Q87.107 -55.105 87.107 -51.13 V-7.473 Z M17.238 -0.197 Q13.263 -0.197 10.418 -3.042 Q7.573 -5.887 7.573 -9.862 V-51.13 Q7.573 -55.105 10.418 -57.95 Q13.263 -60.795 17.238 -60.795 H22.611 L32.276 -51.13 H17.238 Q17.238 -51.13 17.238 -51.13 Q17.238 -51.13 17.238 -51.13 V-9.862 Q17.238 -9.862 17.238 -9.862 Q17.238 -9.862 17.238 -9.862 H73.544 L83.21 -0.197 H17.238 Z M61.915 -21.491 Q59.745 -17.859 55.923 -15.67 Q52.1 -13.481 47.34 -13.481 Q40.053 -13.481 35.189 -18.444 Q30.325 -23.406 30.325 -30.496 Q30.325 -35.058 32.465 -38.931 Q34.605 -42.803 38.335 -45.071 L44.733 -38.673 Q42.057 -37.867 40.466 -35.68 Q38.875 -33.493 38.875 -30.595 Q38.875 -26.967 41.232 -24.499 Q43.588 -22.031 47.34 -22.031 Q50.397 -22.031 52.554 -23.672 Q54.711 -25.312 55.517 -27.889 L61.915 -21.491 Z M59.418 -42.485 Q61.778 -40.131 63.066 -37.109 Q64.355 -34.087 64.355 -30.607 Q64.355 -30.449 64.355 -30.438 Q64.355 -30.427 64.312 -30.269 L47.057 -47.468 Q47.216 -47.511 47.226 -47.511 Q47.237 -47.511 47.396 -47.511 Q50.899 -47.511 53.996 -46.194 Q57.094 -44.877 59.418 -42.485 Z M80.088 7.758  5.244 -67.086  10.832 -72.575  85.577 2.17  80.088 7.758 Z"/></g><g id="Medium-S" transform="matrix(1 0 0 1 1701.85 696)"><path d="M86.014 -7.441  77.828 -15.627 V-51.516 Q77.828 -51.516 77.828 -51.516 Q77.828 -51.516 77.828 -51.516 H62.796 L55.426 -60.984 H39.315 L36.39 -57.041 L30.507 -62.924 L35.411 -69.17 H59.269 L66.7 -59.702 H77.828 Q81.229 -59.702 83.621 -57.275 Q86.014 -54.848 86.014 -51.516 V-7.441 Z M16.852 -1.29 Q13.52 -1.29 11.093 -3.717 Q8.666 -6.144 8.666 -9.476 V-51.516 Q8.666 -54.848 11.093 -57.275 Q13.52 -59.702 16.852 -59.702 H23.222 L31.408 -51.516 H16.852 Q16.852 -51.516 16.852 -51.516 Q16.852 -51.516 16.852 -51.516 V-9.476 Q16.852 -9.476 16.852 -9.476 Q16.852 -9.476 16.852 -9.476 H73.448 L81.634 -1.29 H16.852 Z M61.529 -21.395 Q59.359 -17.923 55.665 -15.831 Q51.971 -13.738 47.34 -13.738 Q40.16 -13.738 35.371 -18.626 Q30.582 -23.514 30.582 -30.496 Q30.582 -34.93 32.626 -38.673 Q34.669 -42.417 38.239 -44.685 L43.961 -38.963 Q41.35 -37.996 39.823 -35.744 Q38.296 -33.493 38.296 -30.595 Q38.296 -26.742 40.83 -24.097 Q43.363 -21.452 47.34 -21.452 Q50.397 -21.452 52.619 -23.028 Q54.84 -24.604 55.807 -27.117 L61.529 -21.395 Z M59.257 -42.324 Q61.585 -40.035 62.841 -37.023 Q64.098 -34.011 64.098 -30.543 Q64.098 -30.192 64.098 -29.988 Q64.098 -29.784 64.023 -29.433 L46.253 -47.179 Q46.605 -47.254 46.808 -47.254 Q47.012 -47.254 47.364 -47.254 Q50.866 -47.254 53.932 -45.969 Q56.997 -44.684 59.257 -42.324 Z M79.573 7.082  5.405 -67.086  10.671 -72.253  84.74 1.817  79.573 7.082 Z"/></g><g id="Regular-S" transform="matrix(1 0 0 1 1405.73 696)"><path d="M85.212 -7.418  78.111 -14.519 V-51.799 Q78.111 -51.799 78.111 -51.799 Q78.111 -51.799 78.111 -51.799 H62.726 L55.615 -61.267 H39.056 L35.801 -56.829 L30.672 -61.957 L35.505 -68.368 H59.175 L66.276 -58.9 H78.111 Q81.04 -58.9 83.126 -56.78 Q85.212 -54.659 85.212 -51.799 V-7.418 Z M16.569 -2.092 Q13.709 -2.092 11.588 -4.212 Q9.468 -6.333 9.468 -9.193 V-51.799 Q9.468 -54.659 11.588 -56.78 Q13.709 -58.9 16.569 -58.9 H23.67 L30.771 -51.799 H16.569 Q16.569 -51.799 16.569 -51.799 Q16.569 -51.799 16.569 -51.799 V-9.193 Q16.569 -9.193 16.569 -9.193 Q16.569 -9.193 16.569 -9.193 H73.377 L80.478 -2.092 H16.569 Z M61.246 -21.324 Q59.076 -17.971 55.477 -15.949 Q51.877 -13.927 47.34 -13.927 Q40.239 -13.927 35.505 -18.76 Q30.771 -23.592 30.771 -30.496 Q30.771 -34.835 32.744 -38.485 Q34.716 -42.134 38.168 -44.402 L43.395 -39.175 Q40.831 -38.09 39.351 -35.791 Q37.872 -33.493 37.872 -30.595 Q37.872 -26.577 40.535 -23.802 Q43.198 -21.028 47.34 -21.028 Q50.397 -21.028 52.666 -22.557 Q54.934 -24.085 56.019 -26.551 L61.246 -21.324 Z M59.139 -42.206 Q61.443 -39.964 62.676 -36.96 Q63.909 -33.955 63.909 -30.496 Q63.909 -30.003 63.909 -29.658 Q63.909 -29.312 63.81 -28.819 L45.663 -46.966 Q46.157 -47.065 46.502 -47.065 Q46.847 -47.065 47.34 -47.065 Q50.843 -47.065 53.885 -45.804 Q56.927 -44.542 59.139 -42.206 Z M79.196 6.587  5.523 -67.086  10.553 -72.017  84.127 1.557  79.196 6.587 Z"/></g><g id="Light-S" transform="matrix(1 0 0 1 1109.75 696)"><path d="M83.239 -9.277  78.111 -14.405 V-50.585 Q78.111 -51.116 77.77 -51.458 Q77.428 -51.799 76.897 -51.799 H62.801 L55.653 -61.267 H39.018 L35.725 -56.791 L32 -60.516 L36.34 -66.395 H58.34 L65.441 -56.927 H76.897 Q79.561 -56.927 81.4 -55.054 Q83.239 -53.18 83.239 -50.585 V-9.277 Z M17.783 -4.065 Q15.188 -4.065 13.314 -5.938 Q11.441 -7.812 11.441 -10.407 V-50.585 Q11.441 -53.18 13.314 -55.054 Q15.188 -56.927 17.783 -56.927 H25.605 L30.733 -51.799 H17.783 Q17.252 -51.799 16.91 -51.458 Q16.569 -51.116 16.569 -50.585 V-10.407 Q16.569 -9.876 16.91 -9.534 Q17.252 -9.193 17.783 -9.193 H73.339 L78.467 -4.065 H17.783 Z M60.146 -22.386 Q58.204 -19.222 54.87 -17.333 Q51.535 -15.444 47.34 -15.444 Q40.846 -15.444 36.567 -19.822 Q32.288 -24.199 32.288 -30.496 Q32.288 -34.494 34.128 -37.878 Q35.968 -41.261 39.23 -43.302 L43.016 -39.516 Q40.413 -38.394 38.915 -36 Q37.417 -33.607 37.417 -30.595 Q37.417 -26.349 40.193 -23.461 Q42.97 -20.573 47.34 -20.573 Q50.511 -20.573 52.874 -22.12 Q55.238 -23.668 56.36 -26.172 L60.146 -22.386 Z M58.039 -41.106 Q60.04 -39.129 61.159 -36.561 Q62.278 -33.993 62.354 -30.989 Q62.354 -30.724 62.354 -30.606 Q62.354 -30.489 62.293 -30.223 L47.067 -45.449 Q47.333 -45.51 47.45 -45.51 Q47.568 -45.51 47.833 -45.51 Q50.881 -45.434 53.486 -44.286 Q56.092 -43.139 58.039 -41.106 Z M80.448 5.07  7.913 -67.465  11.539 -70.993  83.975 1.443  80.448 5.07 Z"/></g><g id="Thin-S" transform="matrix(1 0 0 1 814.015 696)"><path d="M81.267 -11.135  78.111 -14.291 V-49.371 Q78.111 -50.433 77.428 -51.116 Q76.745 -51.799 75.683 -51.799 H62.877 L55.691 -61.267 H38.98 L35.649 -56.753 L33.328 -59.074 L37.174 -64.423 H57.506 L64.607 -54.955 H75.683 Q78.081 -54.955 79.674 -53.328 Q81.267 -51.7 81.267 -49.371 V-11.135 Z M18.997 -6.037 Q16.668 -6.037 15.04 -7.664 Q13.413 -9.292 13.413 -11.621 V-49.371 Q13.413 -51.7 15.04 -53.328 Q16.668 -54.955 18.997 -54.955 H27.539 L30.695 -51.799 H18.997 Q17.935 -51.799 17.252 -51.116 Q16.569 -50.433 16.569 -49.371 V-11.621 Q16.569 -10.559 17.252 -9.876 Q17.935 -9.193 18.997 -9.193 H73.301 L76.457 -6.037 H18.997 Z M59.046 -23.448 Q57.332 -20.474 54.263 -18.718 Q51.194 -16.962 47.34 -16.962 Q41.453 -16.962 37.629 -20.884 Q33.806 -24.806 33.806 -30.496 Q33.806 -34.153 35.513 -37.271 Q37.219 -40.389 40.292 -42.202 L42.636 -39.858 Q39.996 -38.697 38.479 -36.209 Q36.962 -33.72 36.962 -30.595 Q36.962 -26.121 39.852 -23.12 Q42.743 -20.118 47.34 -20.118 Q50.625 -20.118 53.083 -21.684 Q55.541 -23.251 56.702 -25.792 L59.046 -23.448 Z M56.939 -40.006 Q58.636 -38.295 59.642 -36.163 Q60.647 -34.031 60.799 -31.482 Q60.799 -31.444 60.799 -31.554 Q60.799 -31.664 60.776 -31.626 L48.47 -43.932 Q48.508 -43.955 48.398 -43.955 Q48.288 -43.955 48.326 -43.955 Q50.919 -43.803 53.088 -42.769 Q55.258 -41.735 56.939 -40.006 Z M81.699 3.552  10.302 -67.844  12.525 -69.969  83.824 1.329  81.699 3.552 Z"/></g><g id="Ultralight-S" transform="matrix(1 0 0 1 517.792 696)"><path d="M80.084 -12.25  78.111 -14.223 V-48.643 Q78.111 -50.024 77.223 -50.911 Q76.336 -51.799 74.955 -51.799 H62.923 L55.713 -61.267 H38.957 L35.604 -56.73 L34.124 -58.21 L37.675 -63.239 H57.005 L64.106 -53.771 H74.955 Q77.194 -53.771 78.639 -52.292 Q80.084 -50.813 80.084 -48.643 V-12.25 Z M19.725 -7.22 Q17.555 -7.22 16.076 -8.7 Q14.597 -10.179 14.597 -12.349 V-48.643 Q14.597 -50.813 16.076 -52.292 Q17.555 -53.771 19.725 -53.771 H28.7 L30.672 -51.799 H19.725 Q18.344 -51.799 17.457 -50.911 Q16.569 -50.024 16.569 -48.643 V-12.349 Q16.569 -10.968 17.457 -10.081 Q18.344 -9.193 19.725 -9.193 H73.278 L75.251 -7.22 H19.725 Z M58.386 -24.085 Q56.808 -21.225 53.899 -19.549 Q50.989 -17.872 47.34 -17.872 Q41.817 -17.872 38.267 -21.521 Q34.716 -25.17 34.716 -30.496 Q34.716 -33.948 36.343 -36.907 Q37.971 -39.865 40.929 -41.542 L42.409 -40.063 Q39.746 -38.879 38.217 -36.334 Q36.689 -33.789 36.689 -30.595 Q36.689 -25.985 39.647 -22.915 Q42.606 -19.844 47.34 -19.844 Q50.693 -19.844 53.208 -21.422 Q55.723 -23 56.907 -25.565 L58.386 -24.085 Z M56.279 -39.346 Q57.794 -37.794 58.731 -35.924 Q59.668 -34.054 59.865 -31.778 Q59.865 -31.877 59.865 -32.123 Q59.865 -32.37 59.865 -32.468 L49.312 -43.021 Q49.214 -43.021 48.967 -43.021 Q48.721 -43.021 48.622 -43.021 Q50.941 -42.824 52.849 -41.859 Q54.757 -40.893 56.279 -39.346 Z M82.451 2.642  11.736 -68.072  13.117 -69.354  83.733 1.261  82.451 2.642 Z"/></g></g></svg>