<svg xmlns="http://www.w3.org/2000/svg" version="1.1" width="3300" height="2000"><g id="Notes"><style>
    text {
      font-family: monospace;
      text-anchor: middle;
    }
    text.emphasis {
      font-weight:bold;
    }
    text.lanchor {
      text-anchor: start;
    }
  </style><rect height="2200" id="artboard" fill="white" width="3300" x="0" y="0"/><line id="" style="fill:none;stroke:black;stroke-width:0.5;" x1="263" x2="3036" y1="292" y2="292"/><text class="lanchor emphasis" transform="matrix(1 0 0 1 263 322)">Weight/Scale Variations</text><text transform="matrix(1 0 0 1 559.711 322)">Ultralight</text><text transform="matrix(1 0 0 1 856.422 322)">Thin</text><text transform="matrix(1 0 0 1 1153.13 322)">Light</text><text transform="matrix(1 0 0 1 1449.84 322)">Regular</text><text transform="matrix(1 0 0 1 1746.56 322)">Medium</text><text transform="matrix(1 0 0 1 2043.27 322)">Semibold</text><text transform="matrix(1 0 0 1 2339.98 322)">Bold</text><text transform="matrix(1 0 0 1 2636.69 322)">Heavy</text><text transform="matrix(1 0 0 1 2933.4 322)">Black</text><text id="template-version" style="text-anchor: end;" transform="matrix(1 0 0 1 3036 1933)">Template v.1.0</text><text class="lanchor" transform="matrix(1 0 0 1 263 726)">Small</text><text class="lanchor" transform="matrix(1 0 0 1 263 1156)">Medium</text><text class="lanchor" transform="matrix(1 0 0 1 263 1586)">Large</text></g><g id="Guides"><g id="H-reference" style="fill:#27AAE1;stroke:none;" transform="matrix(1 0 0 1 339 696)"><path d="M 54.9316 0 L 57.666 0 L 30.5664 -70.459 L 28.0762 -70.459 L 0.976562 0 L 3.66211 0 L 12.9395 -24.4629 L 45.7031 -24.4629 Z M 29.1992 -67.0898 L 29.4434 -67.0898 L 44.8242 -26.709 L 13.8184 -26.709 Z"/></g><line id="Baseline-S" style="fill:none;stroke:#27AAE1;opacity:1;stroke-width:0.577;" x1="263" x2="3036" y1="696" y2="696"/><line id="Capline-S" style="fill:none;stroke:#27AAE1;opacity:1;stroke-width:0.577;" x1="263" x2="3036" y1="625.541" y2="625.541"/><g id="H-reference" style="fill:#27AAE1;stroke:none;" transform="matrix(1 0 0 1 339 1126)"><path d="M 54.9316 0 L 57.666 0 L 30.5664 -70.459 L 28.0762 -70.459 L 0.976562 0 L 3.66211 0 L 12.9395 -24.4629 L 45.7031 -24.4629 Z M 29.1992 -67.0898 L 29.4434 -67.0898 L 44.8242 -26.709 L 13.8184 -26.709 Z"/></g><line id="Baseline-M" style="fill:none;stroke:#27AAE1;opacity:1;stroke-width:0.577;" x1="263" x2="3036" y1="1126" y2="1126"/><line id="Capline-M" style="fill:none;stroke:#27AAE1;opacity:1;stroke-width:0.577;" x1="263" x2="3036" y1="1055.54" y2="1055.54"/><g id="H-reference" style="fill:#27AAE1;stroke:none;" transform="matrix(1 0 0 1 339 1556)"><path d="M 54.9316 0 L 57.666 0 L 30.5664 -70.459 L 28.0762 -70.459 L 0.976562 0 L 3.66211 0 L 12.9395 -24.4629 L 45.7031 -24.4629 Z M 29.1992 -67.0898 L 29.4434 -67.0898 L 44.8242 -26.709 L 13.8184 -26.709 Z"/></g><line id="Baseline-L" style="fill:none;stroke:#27AAE1;opacity:1;stroke-width:0.577;" x1="263" x2="3036" y1="1556" y2="1556"/><line id="Capline-L" style="fill:none;stroke:#27AAE1;opacity:1;stroke-width:0.577;" x1="263" x2="3036" y1="1485.54" y2="1485.54"/><rect height="119.336" id="left-margin" style="fill:darkred;stroke:none;opacity:0.4;" width="12.4512" x="1394.06" y="1030.79"/><rect height="119.336" id="right-margin" style="fill:darkgreen;stroke:none;opacity:0.4;" width="12.4512" x="1502.5112" y="1030.79"/><rect x="1406.5112" y="1045" width="96" height="96" fill="none" stroke="blue" stroke-dasharray="5"/><rect x="1394.06" y="1030.79" width="120.9024" height="119.336" fill="none" stroke="blue"/></g><g id="Symbols"><g id="Bold-L" transform="matrix(1 0 0 1 2266 1556)"><path d="M133.676 37.655  114.683 18.628 H39.99 Q24.355 18.628 13.548 7.982 Q2.741 -2.663 2.741 -18.299 Q2.741 -31.682 11.207 -41.519 Q19.672 -51.355 32.411 -53.451 Q32.411 -54.902 32.814 -57.563 Q33.218 -60.224 34.346 -61.836 L7.74 -88.442 L15.964 -96.344 L141.9 29.593 L133.676 37.655 Z M40.06 3.47 H99.814 L47.73 -48.614 Q46.117 -46.84 45.663 -44.348 Q45.209 -41.857 45.209 -39.584 H39.99 Q30.833 -39.584 24.366 -33.674 Q17.899 -27.764 17.899 -18.603 Q17.899 -9.441 24.366 -2.986 Q30.833 3.47 40.06 3.47 Z M140.287 12.661  128.839 1.051 Q132.709 -1.69 134.805 -4.63 Q136.901 -7.571 136.901 -11.915 Q136.901 -17.925 132.36 -22.385 Q127.82 -26.845 121.744 -26.845 H109.166 V-41.68 Q109.166 -55.027 99.867 -64.156 Q90.568 -73.285 77.217 -73.285 Q72.547 -73.285 67.798 -71.753 Q63.049 -70.221 59.179 -67.48 L48.375 -78.284 Q54.18 -83.282 61.92 -85.862 Q69.66 -88.442 77.129 -88.442 Q95.543 -88.442 109.208 -75.542 Q122.873 -62.642 124.163 -44.26 V-40.874 Q136.095 -39.584 144.077 -31.515 Q152.059 -23.447 152.059 -11.509 Q152.059 -5.076 148.914 2.019 Q145.77 9.114 140.287 12.661 Z"/></g><g id="Semibold-L" transform="matrix(1 0 0 1 1970.27 1556)"><path d="M132.905 35.692  114.107 16.875 H39.99 Q24.983 16.875 14.668 6.721 Q4.354 -3.432 4.354 -18.439 Q4.354 -31.612 12.679 -40.958 Q21.004 -50.303 33.533 -52.33 Q33.673 -54.131 34.216 -56.862 Q34.76 -59.593 35.959 -61.486 L9.282 -88.162 L16.875 -95.573 L140.568 28.12 L132.905 35.692 Z M40.03 4.101 H101.637 L46.959 -50.577 Q45.276 -48.522 44.774 -45.782 Q44.272 -43.042 44.272 -40.495 H39.99 Q30.468 -40.495 23.798 -34.385 Q17.128 -28.276 17.128 -18.786 Q17.128 -9.296 23.798 -2.598 Q30.468 4.101 40.03 4.101 Z M139.166 11.329  129.4 1.472 Q133.34 -1.269 135.506 -4.404 Q137.672 -7.538 137.672 -12.026 Q137.672 -18.438 132.933 -23.097 Q128.193 -27.756 121.744 -27.756 H109.937 V-41.82 Q109.937 -55.534 100.405 -64.865 Q90.872 -74.196 77.189 -74.196 Q72.554 -74.196 67.591 -72.7 Q62.628 -71.203 58.548 -68.251 L49.497 -77.302 Q55.302 -82.161 62.586 -84.566 Q69.87 -86.97 77.107 -86.97 Q95.297 -86.97 108.594 -74.14 Q121.891 -61.311 122.62 -43.138 V-39.752 Q134.413 -39.093 142.429 -31.308 Q150.446 -23.522 150.446 -11.797 Q150.446 -5.707 147.512 1.002 Q144.578 7.712 139.166 11.329 Z"/></g><g id="Medium-L" transform="matrix(1 0 0 1 1674.31 1556)"><path d="M132.327 34.22  113.675 15.56 H39.99 Q25.454 15.56 15.509 5.776 Q5.563 -4.008 5.563 -18.544 Q5.563 -31.56 13.783 -40.537 Q22.004 -49.515 34.374 -51.488 Q34.62 -53.553 35.268 -56.336 Q35.917 -59.12 37.168 -61.223 L10.439 -87.952 L17.559 -94.994 L139.569 27.016 L132.327 34.22 Z M40.007 4.574 H103.004 L46.38 -52.049 Q44.645 -49.785 44.107 -46.858 Q43.569 -43.931 43.569 -41.179 H39.99 Q30.194 -41.179 23.371 -34.919 Q16.549 -28.66 16.549 -18.923 Q16.549 -9.187 23.371 -2.307 Q30.194 4.574 40.007 4.574 Z M138.324 10.33  129.82 1.787 Q133.813 -0.954 136.032 -4.234 Q138.251 -7.513 138.251 -12.11 Q138.251 -18.823 133.362 -23.631 Q128.472 -28.44 121.744 -28.44 H110.516 V-41.925 Q110.516 -55.914 100.808 -65.397 Q91.1 -74.88 77.169 -74.88 Q72.559 -74.88 67.436 -73.409 Q62.313 -71.939 58.075 -68.83 L50.338 -76.566 Q56.143 -81.319 63.086 -83.593 Q70.028 -85.866 77.09 -85.866 Q95.112 -85.866 108.133 -73.089 Q121.155 -60.311 121.463 -42.297 V-38.911 Q133.15 -38.725 141.194 -31.152 Q149.237 -23.579 149.237 -12.013 Q149.237 -6.18 146.461 0.24 Q143.684 6.66 138.324 10.33 Z"/></g><g id="Regular-L" transform="matrix(1 0 0 1 1378.56 1556)"><path d="M131.903 33.14  113.359 14.596 H39.99 Q25.8 14.596 16.125 5.083 Q6.45 -4.431 6.45 -18.621 Q6.45 -31.521 14.593 -40.229 Q22.736 -48.936 34.991 -50.871 Q35.314 -53.129 36.039 -55.951 Q36.765 -58.772 38.055 -61.03 L11.287 -87.797 L18.06 -94.57 L138.836 26.206 L131.903 33.14 Z M39.99 4.921 H104.006 L45.956 -53.129 Q44.183 -50.71 43.618 -47.646 Q43.054 -44.582 43.054 -41.68 H39.99 Q29.992 -41.68 23.059 -35.311 Q16.125 -28.941 16.125 -19.024 Q16.125 -9.107 23.059 -2.093 Q29.992 4.921 39.99 4.921 Z M137.708 9.598  130.129 2.019 Q134.16 -0.722 136.417 -4.109 Q138.675 -7.495 138.675 -12.171 Q138.675 -19.105 133.676 -24.023 Q128.678 -28.941 121.744 -28.941 H110.94 V-42.002 Q110.94 -56.192 101.104 -65.787 Q91.267 -75.381 77.154 -75.381 Q72.562 -75.381 67.322 -73.93 Q62.081 -72.479 57.727 -69.254 L50.955 -76.026 Q56.76 -80.702 63.452 -82.879 Q70.144 -85.056 77.078 -85.056 Q94.976 -85.056 107.796 -72.317 Q120.615 -59.579 120.615 -41.68 V-38.294 Q132.225 -38.455 140.287 -31.037 Q148.35 -23.62 148.35 -12.171 Q148.35 -6.527 145.689 -0.319 Q143.029 5.889 137.708 9.598 Z"/></g><g id="Light-L" transform="matrix(1 0 0 1 1082.77 1556)"><path d="M132.895 30.783  114.103 11.867 H40.486 Q27.475 11.867 18.575 3.067 Q9.675 -5.734 9.675 -18.745 Q9.675 -31.211 17.818 -39.422 Q25.961 -47.634 37.41 -48.762 Q37.609 -51.268 38.644 -54.865 Q39.68 -58.462 41.28 -61.03 L15.381 -86.929 L20.541 -92.089 L138.154 25.524 L132.895 30.783 Z M40.486 4.549 H106.921 L47.135 -55.238 Q45.237 -52.509 44.424 -48.856 Q43.612 -45.203 43.612 -41.68 H40.486 Q30.675 -41.68 23.834 -35.249 Q16.993 -28.817 16.993 -19.046 Q16.993 -9.274 23.834 -2.363 Q30.675 4.549 40.486 4.549 Z M135.909 6.993  130.191 1.274 Q133.788 -1.405 135.797 -4.648 Q137.807 -7.891 137.807 -12.295 Q137.807 -19.151 132.88 -24.015 Q127.953 -28.879 121.124 -28.879 H110.568 V-41.94 Q110.568 -55.882 100.859 -65.446 Q91.151 -75.009 77.219 -75.009 Q72.687 -75.009 67.756 -73.651 Q62.826 -72.293 58.658 -69.316 L53.56 -74.538 Q59.365 -78.718 65.126 -80.523 Q70.888 -82.327 77.14 -82.327 Q94.001 -82.327 105.943 -70.403 Q117.886 -58.479 117.886 -41.68 V-35.999 H119.871 Q130.426 -36.222 137.776 -29.456 Q145.125 -22.69 145.125 -12.295 Q145.125 -7.396 142.929 -2.025 Q140.734 3.346 135.909 6.993 Z"/></g><g id="Thin-L" transform="matrix(1 0 0 1 787.282 1556)"><path d="M133.887 28.427  114.847 9.139 H40.982 Q29.149 9.139 21.024 1.051 Q12.9 -7.036 12.9 -18.869 Q12.9 -30.901 21.043 -38.616 Q29.186 -46.331 39.829 -46.654 Q39.903 -49.408 41.249 -53.78 Q42.595 -58.152 44.505 -61.03 L19.474 -86.061 L23.022 -89.608 L137.472 24.842 L133.887 28.427 Z M40.982 4.177 H109.836 L48.313 -57.346 Q46.291 -54.307 45.231 -50.065 Q44.17 -45.823 44.17 -41.68 H40.982 Q31.357 -41.68 24.609 -35.187 Q17.862 -28.693 17.862 -19.067 Q17.862 -9.441 24.609 -2.632 Q31.357 4.177 40.982 4.177 Z M134.11 4.388  130.253 0.53 Q133.416 -2.087 135.177 -5.187 Q136.938 -8.287 136.938 -12.419 Q136.938 -19.197 132.084 -24.007 Q127.229 -28.817 120.503 -28.817 H110.196 V-41.878 Q110.196 -55.572 100.615 -65.105 Q91.035 -74.637 77.284 -74.637 Q72.811 -74.637 68.19 -73.372 Q63.57 -72.107 59.588 -69.378 L56.165 -73.049 Q61.97 -76.733 66.801 -78.166 Q71.632 -79.599 77.202 -79.599 Q93.025 -79.599 104.091 -68.489 Q115.157 -57.38 115.157 -41.68 V-33.704 H119.127 Q128.628 -33.99 135.264 -27.875 Q141.9 -21.759 141.9 -12.419 Q141.9 -8.264 140.17 -3.73 Q138.439 0.803 134.11 4.388 Z"/></g><g id="Ultralight-L" transform="matrix(1 0 0 1 491.205 1556)"><path d="M134.483 27.013  115.294 7.501 H41.28 Q30.154 7.501 22.494 -0.158 Q14.835 -7.817 14.835 -18.944 Q14.835 -30.715 22.978 -38.132 Q31.121 -45.55 41.28 -45.389 Q41.28 -48.291 42.812 -53.129 Q44.344 -57.966 46.44 -61.03 L21.93 -85.54 L24.51 -88.12 L137.062 24.433 L134.483 27.013 Z M41.28 3.954 H111.585 L49.02 -58.611 Q46.924 -55.386 45.714 -50.791 Q44.505 -46.195 44.505 -41.68 H41.28 Q31.766 -41.68 25.074 -35.149 Q18.383 -28.619 18.383 -19.08 Q18.383 -9.541 25.074 -2.793 Q31.766 3.954 41.28 3.954 Z M133.031 2.825  130.29 0.084 Q133.192 -2.496 134.805 -5.51 Q136.417 -8.524 136.417 -12.494 Q136.417 -19.224 131.606 -24.002 Q126.794 -28.78 120.131 -28.78 H109.972 V-41.841 Q109.972 -55.386 100.469 -64.9 Q90.965 -74.414 77.323 -74.414 Q72.885 -74.414 68.451 -73.204 Q64.016 -71.995 60.146 -69.415 L57.727 -72.156 Q63.532 -75.542 67.806 -76.752 Q72.079 -77.961 77.239 -77.961 Q92.44 -77.961 102.98 -67.341 Q113.52 -56.72 113.52 -41.68 V-32.327 H118.68 Q127.549 -32.65 133.757 -26.926 Q139.965 -21.201 139.965 -12.494 Q139.965 -8.785 138.514 -4.754 Q137.062 -0.722 133.031 2.825 Z"/></g><g id="Bold-M" transform="matrix(1 0 0 1 2281.8 1126)"><path d="M100.75 22.52  87.151 9.02 H32.5 Q19.38 9.02 10.252 -0.107 Q1.125 -9.234 1.125 -22.355 Q1.125 -32.48 7.375 -41.167 Q13.625 -49.855 23.625 -52.105 Q23.75 -52.355 23.75 -53.167 Q23.75 -53.98 23.875 -54.23 L3.375 -74.855 L11.75 -83.105 L109.125 14.27 L100.75 22.52 Z M32.5 -6.73 H71.375 L37.25 -40.855 Q37.25 -40.105 37.188 -39.419 Q37.125 -38.734 37.125 -37.98 H32.5 Q26.027 -37.98 21.451 -33.398 Q16.875 -28.817 16.875 -22.336 Q16.875 -15.855 21.451 -11.292 Q26.027 -6.73 32.5 -6.73 Z M110.625 1.645  99.375 -9.48 Q101.25 -11.23 102.188 -13.134 Q103.125 -15.039 103.125 -17.406 Q103.125 -21.73 100 -24.855 Q96.875 -27.98 92.5 -27.98 H83.125 V-39.855 Q83.125 -49.452 76.361 -56.216 Q69.597 -62.98 60 -62.98 Q56.625 -62.98 53.938 -62.105 Q51.25 -61.23 49 -59.98 L37.625 -71.355 Q42 -74.855 48 -76.792 Q54 -78.73 60 -78.73 Q75.25 -78.73 86.25 -68.355 Q97.25 -57.98 98.625 -42.855 Q107.625 -40.48 113.25 -33.355 Q118.875 -26.23 118.875 -16.98 Q118.875 -11.355 116.438 -6.292 Q114 -1.23 110.625 1.645 Z"/></g><g id="Semibold-M" transform="matrix(1 0 0 1 1985.97 1126)"><path d="M99.989 20.455  86.542 7.172 H32.5 Q20.084 7.172 11.447 -1.465 Q2.81 -10.102 2.81 -22.518 Q2.81 -32.426 8.924 -40.597 Q15.038 -48.768 24.766 -50.964 Q25 -51.54 25.163 -52.407 Q25.326 -53.273 25.56 -53.904 L4.951 -74.583 L12.728 -82.29 L107.766 12.748 L99.989 20.455 Z M32.5 -6.078 H73.277 L36.489 -42.866 Q36.38 -41.844 36.291 -40.913 Q36.201 -39.982 36.201 -38.958 H32.5 Q25.689 -38.958 20.875 -34.14 Q16.06 -29.323 16.06 -22.507 Q16.06 -15.692 20.875 -10.885 Q25.689 -6.078 32.5 -6.078 Z M109.484 0.286  99.973 -9.045 Q101.957 -10.795 102.948 -12.877 Q103.94 -14.959 103.94 -17.547 Q103.94 -22.273 100.598 -25.616 Q97.255 -28.958 92.5 -28.958 H83.94 V-40.018 Q83.94 -49.953 76.938 -56.956 Q69.935 -63.958 60 -63.958 Q56.625 -63.958 53.747 -63.11 Q50.87 -62.262 48.348 -60.795 L38.766 -70.377 Q43.141 -73.659 48.679 -75.434 Q54.217 -77.208 60 -77.208 Q74.978 -77.208 85.625 -66.915 Q96.272 -56.621 97.049 -41.714 Q105.886 -39.936 111.538 -33.11 Q117.19 -26.284 117.19 -17.306 Q117.19 -12.007 114.997 -7.325 Q112.804 -2.643 109.484 0.286 Z"/></g><g id="Medium-M" transform="matrix(1 0 0 1 1689.91 1126)"><path d="M99.418 18.906  86.085 5.786 H32.5 Q20.613 5.786 12.343 -2.483 Q4.073 -10.753 4.073 -22.64 Q4.073 -32.385 10.086 -40.169 Q16.098 -47.953 25.622 -50.108 Q25.938 -50.928 26.223 -51.836 Q26.508 -52.744 26.823 -53.659 L6.133 -74.379 L13.462 -81.678 L106.747 11.607 L99.418 18.906 Z M32.5 -5.589 H74.704 L35.919 -44.374 Q35.728 -43.148 35.618 -42.033 Q35.508 -40.918 35.508 -39.692 H32.5 Q25.436 -39.692 20.442 -34.697 Q15.448 -29.702 15.448 -22.636 Q15.448 -15.57 20.442 -10.579 Q25.436 -5.589 32.5 -5.589 Z M108.628 -0.733  100.421 -8.719 Q102.486 -10.469 103.519 -12.684 Q104.552 -14.899 104.552 -17.653 Q104.552 -22.681 101.046 -26.186 Q97.541 -29.692 92.5 -29.692 H84.552 V-40.14 Q84.552 -50.329 77.37 -57.511 Q70.189 -64.692 60 -64.692 Q56.625 -64.692 53.605 -63.864 Q50.584 -63.037 47.859 -61.407 L39.622 -69.643 Q43.997 -72.763 49.189 -74.415 Q54.38 -76.067 60 -76.067 Q74.775 -76.067 85.156 -65.835 Q95.538 -55.602 95.867 -40.858 Q104.582 -39.529 110.254 -32.927 Q115.927 -26.325 115.927 -17.551 Q115.927 -12.496 113.917 -8.099 Q111.908 -3.703 108.628 -0.733 Z"/></g><g id="Regular-M" transform="matrix(1 0 0 1 1394.06 1126)"><path d="M99 17.77  85.75 4.77 H32.5 Q21 4.77 13 -3.23 Q5 -11.23 5 -22.73 Q5 -32.355 10.938 -39.855 Q16.875 -47.355 26.25 -49.48 Q26.625 -50.48 27 -51.417 Q27.375 -52.355 27.75 -53.48 L7 -74.23 L14 -81.23 L106 10.77 L99 17.77 Z M32.5 -5.23 H75.75 L35.5 -45.48 Q35.25 -44.105 35.125 -42.855 Q35 -41.605 35 -40.23 H32.5 Q25.25 -40.23 20.125 -35.105 Q15 -29.98 15 -22.73 Q15 -15.48 20.125 -10.355 Q25.25 -5.23 32.5 -5.23 Z M108 -1.48  100.75 -8.48 Q102.875 -10.23 103.938 -12.542 Q105 -14.855 105 -17.73 Q105 -22.98 101.375 -26.605 Q97.75 -30.23 92.5 -30.23 H85 V-40.23 Q85 -50.605 77.688 -57.917 Q70.375 -65.23 60 -65.23 Q56.625 -65.23 53.5 -64.417 Q50.375 -63.605 47.5 -61.855 L40.25 -69.105 Q44.625 -72.105 49.562 -73.667 Q54.5 -75.23 60 -75.23 Q74.625 -75.23 84.812 -65.042 Q95 -54.855 95 -40.23 Q103.625 -39.23 109.312 -32.792 Q115 -26.355 115 -17.73 Q115 -12.855 113.125 -8.667 Q111.25 -4.48 108 -1.48 Z"/></g><g id="Light-M" transform="matrix(1 0 0 1 1098.18 1126)"><path d="M100.635 15.943  86.904 2.27 H32.5 Q22.01 2.27 14.755 -4.985 Q7.5 -12.24 7.5 -22.73 Q7.5 -32.115 13.534 -39.038 Q19.567 -45.961 28.366 -47.268 Q28.596 -48.701 29.26 -50.552 Q29.923 -52.403 30.731 -53.961 L10.654 -74.038 L15.923 -79.307 L105.904 10.674 L100.635 15.943 Z M32.5 -5.23 H79.308 L36.462 -48.076 Q35.779 -46.365 35.389 -44.345 Q35 -42.326 35 -40.23 H32.5 Q25.25 -40.23 20.125 -35.105 Q15 -29.98 15 -22.73 Q15 -15.48 20.125 -10.355 Q25.25 -5.23 32.5 -5.23 Z M106.269 -3.211  100.846 -8.48 Q102.875 -10.278 103.938 -12.576 Q105 -14.873 105 -17.73 Q105 -22.98 101.375 -26.605 Q97.75 -30.23 92.5 -30.23 H85 V-40.23 Q85 -50.605 77.688 -57.917 Q70.375 -65.23 60 -65.23 Q56.625 -65.23 53.5 -64.417 Q50.375 -63.605 47.5 -61.855 L42.077 -67.326 Q46.452 -70.134 50.764 -71.432 Q55.077 -72.73 60 -72.73 Q73.58 -72.73 83.04 -63.27 Q92.5 -53.81 92.5 -40.23 V-37.73 H94.038 Q101.942 -37.114 107.221 -31.374 Q112.5 -25.634 112.5 -17.73 Q112.5 -13.576 110.937 -9.869 Q109.375 -6.163 106.269 -3.211 Z"/></g><g id="Thin-M" transform="matrix(1 0 0 1 802.565 1126)"><path d="M102.269 14.116  88.058 -0.23 H32.5 Q23.019 -0.23 16.51 -6.74 Q10 -13.249 10 -22.73 Q10 -31.874 16.13 -38.22 Q22.26 -44.566 30.481 -45.057 Q30.567 -46.922 31.519 -49.687 Q32.471 -52.451 33.712 -54.441 L14.308 -73.845 L17.846 -77.384 L105.808 10.578 L102.269 14.116 Z M32.5 -5.23 H82.865 L37.423 -50.672 Q36.308 -48.624 35.654 -45.836 Q35 -43.047 35 -40.23 H32.5 Q25.25 -40.23 20.125 -35.105 Q15 -29.98 15 -22.73 Q15 -15.48 20.125 -10.355 Q25.25 -5.23 32.5 -5.23 Z M104.538 -4.941  100.942 -8.48 Q102.875 -10.326 103.938 -12.609 Q105 -14.892 105 -17.73 Q105 -22.98 101.375 -26.605 Q97.75 -30.23 92.5 -30.23 H85 V-40.23 Q85 -50.605 77.688 -57.917 Q70.375 -65.23 60 -65.23 Q56.625 -65.23 53.5 -64.417 Q50.375 -63.605 47.5 -61.855 L43.904 -65.547 Q48.279 -68.163 51.966 -69.196 Q55.654 -70.23 60 -70.23 Q72.536 -70.23 81.268 -61.498 Q90 -52.766 90 -40.23 V-35.23 H93.077 Q100.26 -34.999 105.13 -29.956 Q110 -24.913 110 -17.73 Q110 -14.297 108.75 -11.071 Q107.5 -7.845 104.538 -4.941 Z"/></g><g id="Ultralight-M" transform="matrix(1 0 0 1 506.415 1126)"><path d="M103.25 13.02  88.75 -1.73 H32.5 Q23.625 -1.73 17.562 -7.792 Q11.5 -13.855 11.5 -22.73 Q11.5 -31.73 17.688 -37.73 Q23.875 -43.73 31.75 -43.73 Q31.75 -45.855 32.875 -49.167 Q34 -52.48 35.5 -54.73 L16.5 -73.73 L19 -76.23 L105.75 10.52 L103.25 13.02 Z M32.5 -5.23 H85 L38 -52.23 Q36.625 -49.98 35.812 -46.73 Q35 -43.48 35 -40.23 H32.5 Q25.25 -40.23 20.125 -35.105 Q15 -29.98 15 -22.73 Q15 -15.48 20.125 -10.355 Q25.25 -5.23 32.5 -5.23 Z M103.5 -5.98  101 -8.48 Q102.875 -10.355 103.938 -12.629 Q105 -14.903 105 -17.73 Q105 -22.98 101.375 -26.605 Q97.75 -30.23 92.5 -30.23 H85 V-40.23 Q85 -50.605 77.688 -57.917 Q70.375 -65.23 60 -65.23 Q56.625 -65.23 53.5 -64.417 Q50.375 -63.605 47.5 -61.855 L45 -64.48 Q49.375 -66.98 52.688 -67.855 Q56 -68.73 60 -68.73 Q71.909 -68.73 80.204 -60.434 Q88.5 -52.139 88.5 -40.23 V-33.73 H92.5 Q99.25 -33.73 103.875 -29.105 Q108.5 -24.48 108.5 -17.73 Q108.5 -14.73 107.438 -11.792 Q106.375 -8.855 103.5 -5.98 Z"/></g><g id="Bold-S" transform="matrix(1 0 0 1 2294.23 696)"><path d="M77.125 6.982  66.79 -3.473 H23.67 Q14.473 -3.473 8.075 -9.871 Q1.677 -16.269 1.677 -25.466 Q1.677 -33.356 7.052 -39.717 Q12.427 -46.079 20.317 -46.67 Q20.448 -47.142 20.481 -48.04 Q20.514 -48.939 20.81 -49.235 L6.016 -64.127 L12.131 -70.143 L83.24 0.965 L77.125 6.982 Z M23.67 -15.11 H55.131 L30.771 -39.471 Q30.574 -38.682 30.278 -37.796 Q29.982 -36.91 29.588 -36.118 L22.881 -35.723 Q18.76 -35.329 16.037 -32.436 Q13.314 -29.543 13.314 -25.451 Q13.314 -21.155 16.347 -18.133 Q19.38 -15.11 23.67 -15.11 Z M84.916 -7.319  76.533 -15.702 Q78.604 -16.886 79.985 -18.814 Q81.366 -20.742 81.366 -23.14 Q81.366 -26.385 79.014 -28.737 Q76.663 -31.088 73.377 -31.088 H65.388 L64.797 -38.978 Q64.106 -45.662 59.115 -50.21 Q54.123 -54.758 47.318 -54.758 Q44.905 -54.758 43.016 -54.117 Q41.127 -53.476 39.549 -52.785 L31.166 -61.168 Q34.322 -63.535 38.675 -64.965 Q43.029 -66.395 47.34 -66.395 Q57.992 -66.395 66.128 -59.393 Q74.265 -52.391 76.237 -42.035 Q83.437 -40.95 88.22 -35.575 Q93.003 -30.2 93.003 -22.803 Q93.003 -17.971 90.636 -13.73 Q88.269 -9.489 84.916 -7.319 Z"/></g><g id="Semibold-S" transform="matrix(1 0 0 1 1998.1 696)"><path d="M76.524 5.352  66.309 -4.931 H23.67 Q15.029 -4.931 9.017 -10.942 Q3.006 -16.953 3.006 -25.595 Q3.006 -33.313 8.274 -39.267 Q13.542 -45.221 21.217 -45.77 Q21.434 -46.499 21.596 -47.44 Q21.757 -48.381 22.139 -48.977 L7.26 -63.913 L12.903 -69.5 L82.168 -0.235 L76.524 5.352 Z M23.67 -14.596 H56.632 L30.171 -41.057 Q29.888 -40.054 29.57 -38.974 Q29.253 -37.895 28.859 -36.889 L22.881 -36.495 Q18.493 -36.1 15.582 -33.021 Q12.671 -29.942 12.671 -25.586 Q12.671 -21.026 15.892 -17.811 Q19.113 -14.596 23.67 -14.596 Z M84.016 -8.391  77.005 -15.359 Q79.162 -16.543 80.585 -18.611 Q82.009 -20.679 82.009 -23.251 Q82.009 -26.814 79.486 -29.337 Q76.963 -31.86 73.377 -31.86 H66.032 L65.44 -39.106 Q64.749 -46.058 59.57 -50.794 Q54.39 -55.53 47.318 -55.53 Q44.905 -55.53 42.866 -54.91 Q40.827 -54.29 39.034 -53.428 L32.066 -60.397 Q35.222 -62.592 39.211 -63.893 Q43.201 -65.195 47.34 -65.195 Q57.777 -65.195 65.635 -58.257 Q73.493 -51.319 74.994 -41.135 Q82.065 -40.521 86.869 -35.382 Q91.674 -30.243 91.674 -23.061 Q91.674 -18.485 89.5 -14.544 Q87.326 -10.604 84.016 -8.391 Z"/></g><g id="Medium-S" transform="matrix(1 0 0 1 1701.85 696)"><path d="M76.074 4.13  65.949 -6.024 H23.67 Q15.446 -6.024 9.724 -11.746 Q4.003 -17.467 4.003 -25.691 Q4.003 -33.281 9.19 -38.93 Q14.378 -44.578 21.893 -45.095 Q22.174 -46.017 22.432 -46.99 Q22.69 -47.963 23.136 -48.785 L8.192 -63.752 L13.482 -69.018 L81.363 -1.136 L76.074 4.13 Z M23.67 -14.21 H57.758 L29.72 -42.247 Q29.373 -41.083 29.04 -39.858 Q28.706 -38.633 28.312 -37.468 L22.881 -37.074 Q18.294 -36.679 15.241 -33.46 Q12.189 -30.241 12.189 -25.688 Q12.189 -20.93 15.551 -17.57 Q18.914 -14.21 23.67 -14.21 Z M83.34 -9.195  77.358 -15.102 Q79.58 -16.285 81.035 -18.459 Q82.491 -20.632 82.491 -23.334 Q82.491 -27.136 79.84 -29.787 Q77.188 -32.439 73.377 -32.439 H66.514 L65.922 -39.203 Q65.232 -46.354 59.911 -51.231 Q54.59 -56.109 47.318 -56.109 Q44.905 -56.109 42.753 -55.505 Q40.601 -54.901 38.648 -53.911 L32.741 -59.818 Q35.897 -61.884 39.613 -63.089 Q43.33 -64.294 47.34 -64.294 Q57.616 -64.294 65.265 -57.405 Q72.914 -50.515 74.061 -40.459 Q81.035 -40.2 85.856 -35.237 Q90.677 -30.275 90.677 -23.253 Q90.677 -18.871 88.648 -15.155 Q86.618 -11.44 83.34 -9.195 Z"/></g><g id="Regular-S" transform="matrix(1 0 0 1 1405.73 696)"><path d="M75.744 3.234  65.684 -6.826 H23.67 Q15.751 -6.826 10.243 -12.335 Q4.734 -17.843 4.734 -25.762 Q4.734 -33.257 9.863 -38.682 Q14.991 -44.106 22.388 -44.599 Q22.717 -45.663 23.045 -46.66 Q23.374 -47.657 23.867 -48.643 L8.876 -63.634 L13.906 -68.664 L80.774 -1.796 L75.744 3.234 Z M23.67 -13.927 H58.583 L29.39 -43.12 Q28.996 -41.838 28.651 -40.506 Q28.305 -39.175 27.911 -37.893 L22.881 -37.498 Q18.147 -37.104 14.991 -33.782 Q11.835 -30.461 11.835 -25.762 Q11.835 -20.859 15.301 -17.393 Q18.767 -13.927 23.67 -13.927 Z M82.845 -9.785  77.618 -14.913 Q79.886 -16.097 81.366 -18.347 Q82.845 -20.597 82.845 -23.395 Q82.845 -27.372 80.099 -30.117 Q77.354 -32.863 73.377 -32.863 H66.868 L66.276 -39.274 Q65.586 -46.572 60.161 -51.552 Q54.737 -56.533 47.318 -56.533 Q44.905 -56.533 42.671 -55.941 Q40.436 -55.349 38.365 -54.265 L33.237 -59.393 Q36.393 -61.366 39.908 -62.5 Q43.424 -63.634 47.34 -63.634 Q57.498 -63.634 64.994 -56.78 Q72.489 -49.925 73.377 -39.964 Q80.281 -39.964 85.113 -35.131 Q89.946 -30.299 89.946 -23.395 Q89.946 -19.154 88.023 -15.604 Q86.1 -12.053 82.845 -9.785 Z"/></g><g id="Light-S" transform="matrix(1 0 0 1 1109.75 696)"><path d="M77.034 1.792  66.595 -8.799 H23.67 Q16.548 -8.799 11.627 -13.719 Q6.707 -18.64 6.707 -25.762 Q6.707 -33.068 11.911 -38.037 Q17.115 -43.006 24.057 -42.854 Q24.272 -44.259 24.828 -45.977 Q25.385 -47.695 26.219 -49.022 L11.759 -63.482 L15.424 -67.146 L80.698 -1.872 L77.034 1.792 Z M23.67 -13.927 H61.391 L30.149 -45.169 Q29.413 -43.621 28.859 -41.682 Q28.305 -39.744 27.911 -37.893 L22.881 -37.498 Q18.147 -37.104 14.991 -33.782 Q11.835 -30.461 11.835 -25.762 Q11.835 -20.859 15.301 -17.393 Q18.767 -13.927 23.67 -13.927 Z M81.479 -11.15  77.694 -14.913 Q79.886 -16.135 81.366 -18.373 Q82.845 -20.612 82.845 -23.395 Q82.845 -27.372 80.099 -30.117 Q77.354 -32.863 73.377 -32.863 H66.868 L66.276 -39.274 Q65.586 -46.572 60.161 -51.552 Q54.737 -56.533 47.318 -56.533 Q44.905 -56.533 42.671 -55.941 Q40.436 -55.349 38.365 -54.265 L34.678 -57.989 Q37.834 -59.81 40.857 -60.736 Q43.879 -61.661 47.34 -61.661 Q56.674 -61.661 63.595 -55.381 Q70.517 -49.101 71.404 -39.964 V-37.991 H72.618 Q78.953 -38.295 83.463 -34.012 Q87.973 -29.73 87.973 -23.395 Q87.973 -19.723 86.297 -16.552 Q84.62 -13.381 81.479 -11.15 Z"/></g><g id="Thin-S" transform="matrix(1 0 0 1 814.015 696)"><path d="M78.323 0.351  67.505 -10.771 H23.67 Q17.344 -10.771 13.012 -15.104 Q8.679 -19.436 8.679 -25.762 Q8.679 -32.878 13.959 -37.392 Q19.239 -41.906 25.726 -41.11 Q25.827 -42.856 26.611 -45.294 Q27.395 -47.733 28.571 -49.402 L14.642 -63.331 L16.941 -65.629 L80.622 -1.948 L78.323 0.351 Z M23.67 -13.927 H64.197 L30.908 -47.217 Q29.83 -45.404 29.068 -42.858 Q28.305 -40.313 27.911 -37.893 L22.881 -37.498 Q18.147 -37.104 14.991 -33.782 Q11.835 -30.461 11.835 -25.762 Q11.835 -20.859 15.301 -17.393 Q18.767 -13.927 23.67 -13.927 Z M80.114 -12.516  77.77 -14.913 Q79.886 -16.173 81.366 -18.4 Q82.845 -20.626 82.845 -23.395 Q82.845 -27.372 80.099 -30.117 Q77.354 -32.863 73.377 -32.863 H66.868 L66.276 -39.274 Q65.586 -46.572 60.161 -51.552 Q54.737 -56.533 47.318 -56.533 Q44.905 -56.533 42.671 -55.941 Q40.436 -55.349 38.365 -54.265 L36.12 -56.586 Q39.276 -58.255 41.805 -58.972 Q44.334 -59.689 47.34 -59.689 Q55.85 -59.689 62.197 -53.983 Q68.544 -48.277 69.432 -39.964 V-36.019 H71.86 Q77.625 -36.626 81.813 -32.893 Q86.001 -29.161 86.001 -23.395 Q86.001 -20.292 84.571 -17.5 Q83.141 -14.708 80.114 -12.516 Z"/></g><g id="Ultralight-S" transform="matrix(1 0 0 1 517.792 696)"><path d="M79.097 -0.514  68.051 -11.954 H23.67 Q17.822 -11.954 13.843 -15.935 Q9.863 -19.914 9.863 -25.762 Q9.863 -32.764 15.188 -37.005 Q20.514 -41.246 26.727 -40.063 Q26.76 -42.014 27.681 -44.884 Q28.601 -47.755 29.982 -49.629 L16.372 -63.239 L17.851 -64.719 L80.577 -1.993 L79.097 -0.514 Z M23.67 -13.927 H65.882 L31.363 -48.446 Q30.081 -46.473 29.193 -43.564 Q28.305 -40.654 27.911 -37.893 L22.881 -37.498 Q18.147 -37.104 14.991 -33.782 Q11.835 -30.461 11.835 -25.762 Q11.835 -20.859 15.301 -17.393 Q18.767 -13.927 23.67 -13.927 Z M79.294 -13.335  77.815 -14.913 Q79.886 -16.195 81.366 -18.415 Q82.845 -20.635 82.845 -23.395 Q82.845 -27.372 80.099 -30.117 Q77.354 -32.863 73.377 -32.863 H66.868 L66.276 -39.274 Q65.586 -46.572 60.161 -51.552 Q54.737 -56.533 47.318 -56.533 Q44.905 -56.533 42.671 -55.941 Q40.436 -55.349 38.365 -54.265 L36.984 -55.744 Q40.14 -57.322 42.374 -57.914 Q44.607 -58.505 47.34 -58.505 Q55.355 -58.505 61.358 -53.144 Q67.361 -47.782 68.249 -39.964 V-34.835 H71.404 Q76.829 -35.624 80.823 -32.222 Q84.818 -28.819 84.818 -23.395 Q84.818 -20.633 83.535 -18.069 Q82.253 -15.505 79.294 -13.335 Z"/></g></g></svg>