<svg xmlns="http://www.w3.org/2000/svg" version="1.1" width="3300" height="2000"><g id="Notes"><style>
    text {
      font-family: monospace;
      text-anchor: middle;
    }
    text.emphasis {
      font-weight:bold;
    }
    text.lanchor {
      text-anchor: start;
    }
  </style><rect height="2200" id="artboard" fill="white" width="3300" x="0" y="0"/><line id="" style="fill:none;stroke:black;stroke-width:0.5;" x1="263" x2="3036" y1="292" y2="292"/><text class="lanchor emphasis" transform="matrix(1 0 0 1 263 322)">Weight/Scale Variations</text><text transform="matrix(1 0 0 1 559.711 322)">Ultralight</text><text transform="matrix(1 0 0 1 856.422 322)">Thin</text><text transform="matrix(1 0 0 1 1153.13 322)">Light</text><text transform="matrix(1 0 0 1 1449.84 322)">Regular</text><text transform="matrix(1 0 0 1 1746.56 322)">Medium</text><text transform="matrix(1 0 0 1 2043.27 322)">Semibold</text><text transform="matrix(1 0 0 1 2339.98 322)">Bold</text><text transform="matrix(1 0 0 1 2636.69 322)">Heavy</text><text transform="matrix(1 0 0 1 2933.4 322)">Black</text><text id="template-version" style="text-anchor: end;" transform="matrix(1 0 0 1 3036 1933)">Template v.1.0</text><text class="lanchor" transform="matrix(1 0 0 1 263 726)">Small</text><text class="lanchor" transform="matrix(1 0 0 1 263 1156)">Medium</text><text class="lanchor" transform="matrix(1 0 0 1 263 1586)">Large</text></g><g id="Guides"><g id="H-reference" style="fill:#27AAE1;stroke:none;" transform="matrix(1 0 0 1 339 696)"><path d="M 54.9316 0 L 57.666 0 L 30.5664 -70.459 L 28.0762 -70.459 L 0.976562 0 L 3.66211 0 L 12.9395 -24.4629 L 45.7031 -24.4629 Z M 29.1992 -67.0898 L 29.4434 -67.0898 L 44.8242 -26.709 L 13.8184 -26.709 Z"/></g><line id="Baseline-S" style="fill:none;stroke:#27AAE1;opacity:1;stroke-width:0.577;" x1="263" x2="3036" y1="696" y2="696"/><line id="Capline-S" style="fill:none;stroke:#27AAE1;opacity:1;stroke-width:0.577;" x1="263" x2="3036" y1="625.541" y2="625.541"/><g id="H-reference" style="fill:#27AAE1;stroke:none;" transform="matrix(1 0 0 1 339 1126)"><path d="M 54.9316 0 L 57.666 0 L 30.5664 -70.459 L 28.0762 -70.459 L 0.976562 0 L 3.66211 0 L 12.9395 -24.4629 L 45.7031 -24.4629 Z M 29.1992 -67.0898 L 29.4434 -67.0898 L 44.8242 -26.709 L 13.8184 -26.709 Z"/></g><line id="Baseline-M" style="fill:none;stroke:#27AAE1;opacity:1;stroke-width:0.577;" x1="263" x2="3036" y1="1126" y2="1126"/><line id="Capline-M" style="fill:none;stroke:#27AAE1;opacity:1;stroke-width:0.577;" x1="263" x2="3036" y1="1055.54" y2="1055.54"/><g id="H-reference" style="fill:#27AAE1;stroke:none;" transform="matrix(1 0 0 1 339 1556)"><path d="M 54.9316 0 L 57.666 0 L 30.5664 -70.459 L 28.0762 -70.459 L 0.976562 0 L 3.66211 0 L 12.9395 -24.4629 L 45.7031 -24.4629 Z M 29.1992 -67.0898 L 29.4434 -67.0898 L 44.8242 -26.709 L 13.8184 -26.709 Z"/></g><line id="Baseline-L" style="fill:none;stroke:#27AAE1;opacity:1;stroke-width:0.577;" x1="263" x2="3036" y1="1556" y2="1556"/><line id="Capline-L" style="fill:none;stroke:#27AAE1;opacity:1;stroke-width:0.577;" x1="263" x2="3036" y1="1485.54" y2="1485.54"/><rect height="119.336" id="left-margin" style="fill:darkred;stroke:none;opacity:0.4;" width="12.4512" x="1394.06" y="1030.79"/><rect height="119.336" id="right-margin" style="fill:darkgreen;stroke:none;opacity:0.4;" width="12.4512" x="1502.5112" y="1030.79"/><rect x="1406.5112" y="1045" width="96" height="96" fill="none" stroke="blue" stroke-dasharray="5"/><rect x="1394.06" y="1030.79" width="120.9024" height="119.336" fill="none" stroke="blue"/></g><g id="Symbols"><g id="Bold-L" transform="matrix(1 0 0 1 2266 1556)"><path d="M31.444 -50.549  45.634 -44.421 Q48.053 -48.775 50.633 -53.29 Q53.212 -57.805 55.954 -61.997 L44.989 -64.094 Q44.989 -64.094 44.989 -64.094 Q44.989 -64.094 44.989 -64.094 L31.444 -50.549 Z M57.889 -35.391  78.206 -14.912 Q88.365 -20.072 95.782 -24.829 Q103.2 -29.586 108.038 -34.424 Q120.454 -47.001 126.42 -59.74 Q132.386 -72.479 133.354 -90.539 Q115.294 -89.571 102.555 -83.605 Q89.816 -77.639 77.4 -65.222 Q72.562 -60.385 67.806 -52.967 Q63.049 -45.55 57.889 -35.391 Z M96.266 -53.29 Q93.203 -56.354 93.203 -60.707 Q93.203 -65.061 96.266 -68.125 Q99.33 -71.027 103.603 -71.027 Q107.876 -71.027 110.94 -68.125 Q113.843 -65.061 113.843 -60.707 Q113.843 -56.354 110.94 -53.29 Q107.876 -50.387 103.603 -50.387 Q99.33 -50.387 96.266 -53.29 Z M93.203 11.371  106.909 -2.174 Q106.909 -2.174 106.909 -2.174 Q106.909 -2.174 106.909 -2.174 L104.812 -13.139 Q100.62 -10.397 96.105 -7.737 Q91.59 -5.076 87.236 -2.819 L93.203 11.371 Z M149.317 -106.341 Q150.446 -79.574 143.109 -60.224 Q135.773 -40.874 120.131 -25.071 Q119.648 -24.749 119.164 -24.184 Q118.68 -23.62 118.358 -23.297 L121.905 -5.237 Q122.711 -1.367 121.502 2.261 Q120.293 5.889 117.551 8.63 L88.204 38.139 L71.918 0.245 L42.57 -29.102 L4.676 -45.389 L34.346 -74.736 Q37.087 -77.477 40.635 -78.687 Q44.183 -79.896 48.053 -79.09 L66.112 -75.542 Q66.435 -75.865 66.919 -76.187 Q67.403 -76.51 67.886 -76.832 Q83.689 -92.796 103.119 -100.133 Q122.55 -107.47 149.317 -106.341 Z M19.027 -9.591 Q25.961 -16.525 35.556 -16.525 Q45.15 -16.525 51.922 -9.752 Q58.534 -3.141 58.534 6.534 Q58.534 16.209 51.761 22.981 Q46.44 28.303 35.314 31.689 Q24.188 35.075 5.482 36.849 Q7.256 18.144 10.562 6.856 Q13.867 -4.431 19.027 -9.591 Z M29.831 1.213 Q27.735 3.47 26.526 7.34 Q25.316 11.21 24.026 18.305 Q31.121 17.015 34.991 15.644 Q38.861 14.274 40.958 12.178 Q43.538 10.081 43.457 6.776 Q43.376 3.47 41.119 0.89 Q38.539 -1.367 35.233 -1.287 Q31.928 -1.206 29.831 1.213 Z"/></g><g id="Semibold-L" transform="matrix(1 0 0 1 1970.27 1556)"><path d="M30.883 -48.866  46.335 -42.248 Q48.964 -47.233 51.859 -52.238 Q54.755 -57.244 57.917 -61.857 L46.181 -64.164 Q46.181 -64.164 46.181 -64.164 Q46.181 -64.164 46.181 -64.164 L30.883 -48.866 Z M56.627 -34.62  77.435 -13.721 Q87.173 -18.46 94.871 -23.462 Q102.569 -28.465 107.477 -33.372 Q120.173 -46.16 126.21 -59.319 Q132.246 -72.479 133.003 -90.188 Q115.294 -89.431 102.134 -83.395 Q88.975 -77.358 76.278 -64.662 Q71.371 -59.754 66.369 -52.056 Q61.366 -44.358 56.627 -34.62 Z M94.373 -51.467 Q91.24 -54.601 91.24 -59.13 Q91.24 -63.659 94.373 -66.793 Q97.507 -69.836 101.991 -69.836 Q106.474 -69.836 109.608 -66.793 Q112.651 -63.659 112.651 -59.13 Q112.651 -54.601 109.608 -51.467 Q106.474 -48.425 101.991 -48.425 Q97.507 -48.425 94.373 -51.467 Z M91.59 11.932  106.979 -3.366 Q106.979 -3.366 106.979 -3.366 Q106.979 -3.366 106.979 -3.366 L104.672 -15.102 Q100.059 -11.94 95.053 -8.999 Q90.048 -6.058 85.063 -3.52 L91.59 11.932 Z M146.163 -103.257 Q147.432 -78.592 140.27 -59.803 Q133.108 -41.014 117.327 -25.141 Q116.983 -24.889 116.64 -24.5 Q116.296 -24.111 116.044 -23.858 L119.592 -5.939 Q120.258 -2.699 119.259 0.333 Q118.259 3.365 115.939 5.686 L87.363 34.423 L72.198 -0.877 L43.692 -29.383 L8.392 -44.548 L37.221 -73.124 Q39.541 -75.444 42.528 -76.444 Q45.514 -77.443 48.754 -76.777 L66.673 -73.229 Q66.926 -73.481 67.269 -73.699 Q67.613 -73.916 67.956 -74.168 Q83.829 -90.132 102.664 -97.329 Q121.498 -104.526 146.163 -103.257 Z M21.201 -9.872 Q27.574 -16.245 36.537 -16.28 Q45.501 -16.315 51.782 -10.033 Q57.973 -3.842 57.938 5.167 Q57.903 14.176 51.621 20.458 Q46.791 25.288 36.681 28.394 Q26.571 31.5 8.357 33.554 Q10.411 15.34 13.436 5.104 Q16.461 -5.132 21.201 -9.872 Z M30.252 -0.75 Q28.086 1.577 26.631 6.008 Q25.176 10.439 23.886 17.954 Q31.402 16.664 35.832 15.119 Q40.263 13.573 42.5 11.406 Q45.29 9.03 45.28 5.374 Q45.269 1.717 42.731 -1.073 Q39.941 -3.611 36.285 -3.53 Q32.629 -3.45 30.252 -0.75 Z"/></g><g id="Medium-L" transform="matrix(1 0 0 1 1674.31 1556)"><path d="M30.462 -47.604  46.861 -40.618 Q49.647 -46.076 52.78 -51.45 Q55.912 -56.823 59.389 -61.752 L47.075 -64.216 Q47.075 -64.216 47.075 -64.216 Q47.075 -64.216 47.075 -64.216 L30.462 -47.604 Z M55.68 -34.042  76.857 -12.827 Q86.279 -17.251 94.188 -22.437 Q102.096 -27.623 107.056 -32.583 Q119.963 -45.529 126.052 -59.004 Q132.141 -72.479 132.74 -89.925 Q115.294 -89.326 101.819 -83.237 Q88.344 -77.148 75.437 -64.241 Q70.477 -59.281 65.29 -51.373 Q60.104 -43.464 55.68 -34.042 Z M92.954 -50.1 Q89.767 -53.286 89.767 -57.947 Q89.767 -62.608 92.954 -65.794 Q96.14 -68.942 100.781 -68.942 Q105.423 -68.942 108.609 -65.794 Q111.757 -62.608 111.757 -57.947 Q111.757 -53.286 108.609 -50.1 Q105.423 -46.952 100.781 -46.952 Q96.14 -46.952 92.954 -50.1 Z M90.381 12.353  107.031 -4.26 Q107.031 -4.26 107.031 -4.26 Q107.031 -4.26 107.031 -4.26 L104.567 -16.574 Q99.638 -13.097 94.265 -9.945 Q88.891 -6.794 83.433 -4.046 L90.381 12.353 Z M143.796 -100.943 Q145.171 -77.856 138.14 -59.488 Q131.11 -41.119 115.224 -25.194 Q114.985 -24.994 114.747 -24.736 Q114.509 -24.479 114.309 -24.279 L117.856 -6.464 Q118.417 -3.699 117.576 -1.113 Q116.735 1.472 114.729 3.477 L86.732 31.636 L72.408 -1.718 L44.533 -29.593 L11.179 -43.917 L39.376 -71.914 Q41.382 -73.92 43.948 -74.761 Q46.514 -75.602 49.279 -75.041 L67.094 -71.494 Q67.294 -71.694 67.532 -71.832 Q67.771 -71.97 68.009 -72.17 Q83.934 -88.134 102.322 -95.225 Q120.71 -102.317 143.796 -100.943 Z M22.831 -10.082 Q28.783 -16.034 37.273 -16.096 Q45.763 -16.157 51.677 -10.243 Q57.552 -4.368 57.491 4.141 Q57.43 12.651 51.516 18.564 Q47.053 23.027 37.706 25.922 Q28.359 28.818 10.513 31.082 Q12.777 13.236 15.592 3.789 Q18.407 -5.658 22.831 -10.082 Z M30.567 -2.223 Q28.348 0.157 26.71 5.009 Q25.071 9.86 23.781 17.692 Q31.612 16.402 36.463 14.724 Q41.315 13.047 43.657 10.828 Q46.605 8.241 46.647 4.322 Q46.689 0.403 43.941 -2.545 Q40.992 -5.294 37.073 -5.213 Q33.154 -5.132 30.567 -2.223 Z"/></g><g id="Regular-L" transform="matrix(1 0 0 1 1378.56 1556)"><path d="M30.154 -46.679  47.246 -39.422 Q50.149 -45.227 53.454 -50.871 Q56.76 -56.515 60.469 -61.675 L47.73 -64.255 Q47.73 -64.255 47.73 -64.255 Q47.73 -64.255 47.73 -64.255 L30.154 -46.679 Z M54.986 -33.617  76.433 -12.171 Q85.624 -16.364 93.686 -21.685 Q101.749 -27.006 106.748 -32.005 Q119.809 -45.066 125.936 -58.772 Q132.064 -72.479 132.548 -89.732 Q115.294 -89.249 101.588 -83.121 Q87.881 -76.994 74.82 -63.932 Q69.821 -58.934 64.5 -50.871 Q59.179 -42.809 54.986 -33.617 Z M91.913 -49.097 Q88.688 -52.322 88.688 -57.079 Q88.688 -61.836 91.913 -65.061 Q95.138 -68.286 99.894 -68.286 Q104.651 -68.286 107.876 -65.061 Q111.101 -61.836 111.101 -57.079 Q111.101 -52.322 107.876 -49.097 Q104.651 -45.872 99.894 -45.872 Q95.138 -45.872 91.913 -49.097 Z M89.494 12.661  107.07 -4.915 Q107.07 -4.915 107.07 -4.915 Q107.07 -4.915 107.07 -4.915 L104.49 -17.654 Q99.33 -13.945 93.686 -10.639 Q88.043 -7.334 82.237 -4.431 L89.494 12.661 Z M142.061 -99.246 Q143.513 -77.316 136.579 -59.256 Q129.645 -41.196 113.681 -25.232 Q113.52 -25.071 113.359 -24.91 Q113.198 -24.749 113.036 -24.587 L116.584 -6.85 Q117.068 -4.431 116.342 -2.174 Q115.616 0.084 113.843 1.858 L86.269 29.593 L72.562 -2.335 L45.15 -29.747 L13.223 -43.454 L40.958 -71.027 Q42.731 -72.801 44.989 -73.527 Q47.246 -74.252 49.665 -73.769 L67.403 -70.221 Q67.564 -70.382 67.725 -70.463 Q67.886 -70.544 68.047 -70.705 Q84.011 -86.669 102.071 -93.683 Q120.131 -100.697 142.061 -99.246 Z M24.026 -10.236 Q29.67 -15.88 37.813 -15.961 Q45.956 -16.041 51.6 -10.397 Q57.244 -4.754 57.163 3.389 Q57.083 11.533 51.439 17.176 Q47.246 21.369 38.458 24.11 Q29.67 26.851 12.094 29.27 Q14.513 11.694 17.173 2.825 Q19.834 -6.044 24.026 -10.236 Z M30.799 -3.302 Q28.541 -0.884 26.768 4.276 Q24.994 9.436 23.704 17.499 Q31.766 16.209 36.926 14.435 Q42.086 12.661 44.505 10.404 Q47.569 7.663 47.649 3.551 Q47.73 -0.561 44.828 -3.625 Q41.764 -6.527 37.652 -6.447 Q33.54 -6.366 30.799 -3.302 Z"/></g><g id="Light-L" transform="matrix(1 0 0 1 1082.77 1556)"><path d="M30.34 -43.205  47.866 -35.763 Q50.955 -41.94 54.571 -47.925 Q58.187 -53.91 62.391 -59.38 L50.211 -61.774 Q49.715 -61.898 49.25 -61.743 Q48.784 -61.588 48.412 -61.216 L30.34 -43.205 Z M53.684 -31.323  74.262 -10.745 Q83.205 -14.937 91.174 -20.258 Q99.144 -25.58 104.825 -31.261 Q116.956 -43.392 122.742 -56.137 Q128.528 -68.881 129.384 -86.507 Q111.696 -85.651 99.013 -79.896 Q86.331 -74.141 74.2 -62.01 Q68.519 -56.329 63.197 -48.328 Q57.876 -40.328 53.684 -31.323 Z M90.734 -47.919 Q87.819 -50.772 87.819 -55.002 Q87.819 -59.231 90.734 -62.146 Q93.649 -65.061 97.91 -65.061 Q102.17 -65.061 105.085 -62.146 Q108 -59.231 108 -55.002 Q108 -50.772 105.085 -47.919 Q102.17 -45.004 97.91 -45.004 Q93.649 -45.004 90.734 -47.919 Z M86.02 12.537  104.093 -5.473 Q104.465 -5.845 104.589 -6.342 Q104.713 -6.838 104.651 -7.272 L102.195 -19.452 Q96.725 -15.309 90.771 -11.694 Q84.817 -8.078 78.578 -4.927 L86.02 12.537 Z M136.665 -93.726 Q137.558 -73.347 131.028 -56.93 Q124.497 -40.514 110.208 -26.287 Q109.799 -25.877 109.42 -25.468 Q109.042 -25.059 108.633 -24.712 L111.808 -8.773 Q112.23 -6.416 111.535 -4.252 Q110.84 -2.087 109.191 -0.437 L83.54 25.313 L71.322 -3.327 L46.142 -28.445 L17.564 -40.787 L43.252 -66.376 Q44.964 -68.025 47.129 -68.751 Q49.293 -69.477 51.65 -68.993 L67.651 -65.818 Q68.06 -66.165 68.407 -66.525 Q68.755 -66.884 69.164 -67.232 Q83.453 -81.521 99.838 -88.07 Q116.224 -94.619 136.665 -93.726 Z M28.244 -9.43 Q32.957 -14.205 39.705 -14.193 Q46.452 -14.181 51.228 -9.467 Q55.941 -4.754 55.892 1.994 Q55.842 8.741 51.129 13.517 Q47.308 17.275 39.45 19.799 Q31.593 22.324 17.8 23.998 Q19.474 10.205 21.949 2.267 Q24.424 -5.672 28.244 -9.43 Z M33.342 -4.109 Q31.146 -1.752 29.403 3.129 Q27.661 8.01 26.619 15.142 Q33.751 14.038 38.632 12.295 Q43.513 10.552 45.869 8.295 Q48.623 5.802 48.673 2.093 Q48.722 -1.616 46.068 -4.369 Q43.314 -7.024 39.606 -6.943 Q35.897 -6.862 33.342 -4.109 Z"/></g><g id="Thin-L" transform="matrix(1 0 0 1 787.282 1556)"><path d="M30.526 -39.733  48.487 -32.104 Q51.761 -38.653 55.687 -44.979 Q59.613 -51.305 64.314 -57.086 L52.692 -59.293 Q51.699 -59.542 50.769 -59.231 Q49.839 -58.921 49.094 -58.177 L30.526 -39.733 Z M52.381 -29.028  72.091 -9.318 Q80.786 -13.511 88.663 -18.832 Q96.539 -24.153 102.902 -30.517 Q114.103 -41.717 119.548 -53.501 Q124.994 -65.285 126.222 -83.282 Q108.1 -82.055 96.44 -76.671 Q84.78 -71.288 73.58 -60.087 Q67.216 -53.724 61.895 -45.786 Q56.574 -37.847 52.381 -29.028 Z M89.556 -46.741 Q86.951 -49.222 86.951 -52.924 Q86.951 -56.627 89.556 -59.231 Q92.161 -61.836 95.925 -61.836 Q99.69 -61.836 102.295 -59.231 Q104.899 -56.627 104.899 -52.924 Q104.899 -49.222 102.295 -46.741 Q99.69 -44.136 95.925 -44.136 Q92.161 -44.136 89.556 -46.741 Z M82.548 12.413  101.116 -6.031 Q101.86 -6.776 102.108 -7.768 Q102.357 -8.76 102.233 -9.628 L99.901 -21.251 Q94.12 -16.674 87.856 -12.748 Q81.593 -8.822 74.919 -5.424 L82.548 12.413 Z M131.27 -88.207 Q131.605 -69.378 125.477 -54.605 Q119.35 -39.832 106.735 -27.341 Q106.078 -26.684 105.482 -26.026 Q104.887 -25.369 104.23 -24.836 L107.033 -10.695 Q107.392 -8.4 106.729 -6.329 Q106.065 -4.258 104.54 -2.732 L80.811 21.034 L70.082 -4.32 L47.135 -27.143 L21.905 -38.12 L45.547 -61.725 Q47.197 -63.25 49.268 -63.976 Q51.339 -64.702 53.634 -64.218 L67.899 -61.415 Q68.556 -61.948 69.089 -62.587 Q69.623 -63.226 70.28 -63.759 Q82.895 -76.374 97.606 -82.458 Q112.317 -88.542 131.27 -88.207 Z M32.461 -8.624 Q36.244 -12.531 41.596 -12.426 Q46.949 -12.32 50.856 -8.537 Q54.639 -4.754 54.62 0.598 Q54.602 5.951 50.819 9.858 Q47.37 13.182 40.443 15.489 Q33.515 17.796 23.505 18.727 Q24.436 8.717 26.724 1.709 Q29.013 -5.3 32.461 -8.624 Z M35.884 -4.915 Q33.751 -2.62 32.039 1.982 Q30.327 6.583 29.534 12.785 Q35.735 11.867 40.337 10.156 Q44.939 8.444 47.234 6.186 Q49.677 3.941 49.696 0.636 Q49.715 -2.67 47.308 -5.113 Q44.865 -7.52 41.559 -7.439 Q38.253 -7.359 35.884 -4.915 Z"/></g><g id="Ultralight-L" transform="matrix(1 0 0 1 491.205 1556)"><path d="M30.637 -37.649  48.859 -29.909 Q52.245 -36.681 56.357 -43.212 Q60.469 -49.742 65.468 -55.709 L54.18 -57.805 Q52.89 -58.127 51.681 -57.724 Q50.471 -57.321 49.504 -56.354 L30.637 -37.649 Z M51.6 -27.651  70.789 -8.462 Q79.335 -12.655 87.156 -17.976 Q94.976 -23.297 101.749 -30.07 Q112.391 -40.712 117.632 -51.919 Q122.873 -63.126 124.324 -81.347 Q105.941 -79.896 94.896 -74.736 Q83.85 -69.576 73.207 -58.934 Q66.435 -52.161 61.114 -44.26 Q55.793 -36.359 51.6 -27.651 Z M88.849 -46.034 Q86.43 -48.291 86.43 -51.677 Q86.43 -55.064 88.849 -57.482 Q91.267 -59.901 94.734 -59.901 Q98.201 -59.901 100.62 -57.482 Q103.039 -55.064 103.039 -51.677 Q103.039 -48.291 100.62 -46.034 Q98.201 -43.615 94.734 -43.615 Q91.267 -43.615 88.849 -46.034 Z M80.464 12.339  99.33 -6.366 Q100.297 -7.334 100.62 -8.624 Q100.943 -9.914 100.781 -11.042 L98.524 -22.33 Q92.558 -17.492 86.108 -13.381 Q79.657 -9.269 72.724 -5.721 L80.464 12.339 Z M128.032 -84.895 Q128.032 -66.996 122.147 -53.209 Q116.261 -39.422 104.651 -27.974 Q103.845 -27.167 103.119 -26.361 Q102.394 -25.555 101.588 -24.91 L104.168 -11.849 Q104.49 -9.591 103.845 -7.576 Q103.2 -5.56 101.749 -4.109 L79.174 18.466 L69.338 -4.915 L47.73 -26.361 L24.51 -36.52 L46.924 -58.934 Q48.536 -60.385 50.552 -61.111 Q52.568 -61.836 54.825 -61.352 L68.047 -58.772 Q68.854 -59.417 69.499 -60.224 Q70.144 -61.03 70.95 -61.675 Q82.56 -73.285 96.266 -79.09 Q109.972 -84.895 128.032 -84.895 Z M34.991 -8.14 Q38.216 -11.526 42.731 -11.365 Q47.246 -11.204 50.633 -7.979 Q53.858 -4.754 53.858 -0.239 Q53.858 4.276 50.633 7.663 Q47.407 10.726 41.038 12.903 Q34.669 15.08 26.929 15.564 Q27.413 7.824 29.589 1.374 Q31.766 -5.076 34.991 -8.14 Z M37.41 -5.399 Q35.314 -3.141 33.621 1.293 Q31.928 5.728 31.283 11.371 Q36.926 10.565 41.361 8.872 Q45.795 7.179 48.053 4.921 Q50.31 2.825 50.31 -0.239 Q50.31 -3.302 48.053 -5.56 Q45.795 -7.817 42.731 -7.737 Q39.668 -7.656 37.41 -5.399 Z"/></g><g id="Bold-M" transform="matrix(1 0 0 1 2281.8 1126)"><path d="M29.5 -49.105  36.375 -46.105 Q37.5 -48.23 38.625 -50.292 Q39.75 -52.355 41.125 -54.48 L35.875 -55.48 Q35.875 -55.48 35.875 -55.48 Q35.875 -55.48 35.875 -55.48 L29.5 -49.105 Z M49 -36.605  62.125 -23.48 Q68.125 -26.355 73.5 -29.917 Q78.875 -33.48 84 -38.605 Q92.125 -46.73 96.938 -56.48 Q101.75 -66.23 101.625 -76.105 Q91.75 -76.23 82 -71.417 Q72.25 -66.605 64.125 -58.48 Q59 -53.355 55.438 -47.98 Q51.875 -42.605 49 -36.605 Z M72.75 -47.23 Q70.125 -49.855 70.125 -53.667 Q70.125 -57.48 72.75 -60.105 Q75.375 -62.73 79.188 -62.73 Q83 -62.73 85.625 -60.105 Q88.25 -57.48 88.25 -53.667 Q88.25 -49.855 85.625 -47.23 Q83 -44.605 79.188 -44.605 Q75.375 -44.605 72.75 -47.23 Z M74.5 -3.98  81 -10.355 Q81 -10.355 81 -10.355 Q81 -10.355 81 -10.355 L80 -15.605 Q77.875 -14.23 75.812 -13.105 Q73.75 -11.98 71.625 -10.855 L74.5 -3.98 Z M117.25 -91.73 Q119.25 -71.605 113.625 -55.98 Q108 -40.355 95.125 -27.48 Q94.875 -27.23 94.562 -26.855 Q94.25 -26.48 94 -26.23 L96.5 -13.48 Q97.25 -9.605 96.125 -5.855 Q95 -2.105 92.125 0.77 L69.25 23.645 L56.125 -7.23 L32.75 -30.605 L1.875 -43.73 L24.75 -66.605 Q27.625 -69.48 31.375 -70.605 Q35.125 -71.73 39 -70.98 L51.75 -68.48 Q52 -68.73 52.312 -68.917 Q52.625 -69.105 52.875 -69.355 Q65.75 -82.23 81.438 -87.98 Q97.125 -93.73 117.25 -91.73 Z M14.5 -14.73 Q20.125 -20.355 27.875 -20.417 Q35.625 -20.48 41.25 -14.855 Q46.875 -9.23 46.812 -1.48 Q46.75 6.27 41.125 11.895 Q37 16.02 27.188 18.958 Q17.375 21.895 3.375 23.145 Q4.625 9.145 7.5 -0.73 Q10.375 -10.605 14.5 -14.73 Z M25.75 -3.605 Q24.75 -2.605 24 -0.667 Q23.25 1.27 22.75 3.77 Q25.25 3.27 27.188 2.458 Q29.125 1.645 30.125 0.645 Q31.125 -0.355 31.125 -1.542 Q31.125 -2.73 30.125 -3.73 Q29.125 -4.73 27.938 -4.667 Q26.75 -4.605 25.75 -3.605 Z"/></g><g id="Semibold-M" transform="matrix(1 0 0 1 1985.97 1126)"><path d="M28.956 -47.366  37.081 -43.877 Q38.478 -46.6 39.929 -49.178 Q41.38 -51.757 43.136 -54.371 L37.125 -55.534 Q37.125 -55.534 37.125 -55.534 Q37.125 -55.534 37.125 -55.534 L28.956 -47.366 Z M47.696 -35.79  61.31 -22.23 Q66.984 -24.725 72.63 -28.532 Q78.277 -32.339 83.457 -37.518 Q91.853 -45.915 96.72 -56.072 Q101.587 -66.23 101.245 -75.725 Q91.75 -76.067 81.565 -71.2 Q71.38 -66.333 62.984 -57.936 Q57.804 -52.757 53.997 -47.11 Q50.19 -41.464 47.696 -35.79 Z M70.794 -45.328 Q68.06 -48.062 68.06 -52.037 Q68.06 -56.013 70.794 -58.746 Q73.527 -61.48 77.53 -61.48 Q81.533 -61.48 84.266 -58.746 Q87 -56.013 87 -52.037 Q87 -48.062 84.266 -45.328 Q81.533 -42.594 77.53 -42.594 Q73.527 -42.594 70.794 -45.328 Z M72.815 -3.436  81.054 -11.605 Q81.054 -11.605 81.054 -11.605 Q81.054 -11.605 81.054 -11.605 L79.891 -17.616 Q77.277 -15.86 74.698 -14.436 Q72.12 -13.012 69.397 -11.616 L72.815 -3.436 Z M113.989 -88.524 Q116.152 -70.572 110.663 -55.518 Q105.174 -40.464 92.245 -27.534 Q92.103 -27.393 91.927 -27.181 Q91.75 -26.969 91.609 -26.828 L94.109 -14.241 Q94.75 -10.964 93.788 -7.811 Q92.826 -4.659 90.44 -2.273 L68.38 19.787 L56.397 -8.371 L33.891 -30.877 L5.733 -42.86 L27.739 -64.92 Q30.125 -67.306 33.304 -68.268 Q36.484 -69.23 39.761 -68.589 L52.348 -66.089 Q52.489 -66.23 52.666 -66.336 Q52.842 -66.442 52.984 -66.583 Q65.913 -79.513 80.976 -85.1 Q96.038 -90.687 113.989 -88.524 Z M16.728 -15.002 Q21.81 -20.083 28.935 -20.146 Q36.06 -20.208 41.141 -15.127 Q46.223 -10.045 46.16 -2.92 Q46.098 4.205 41.016 9.287 Q37.326 12.977 28.601 15.615 Q19.875 18.254 6.364 19.721 Q7.831 6.21 10.435 -2.55 Q13.038 -11.311 16.728 -15.002 Z M26.185 -5.67 Q25.076 -4.561 24.109 -2.026 Q23.141 0.509 22.641 3.39 Q25.522 2.89 28.057 1.914 Q30.592 0.939 31.701 -0.17 Q32.918 -1.387 32.973 -2.983 Q33.027 -4.578 31.81 -5.795 Q30.592 -7.012 28.997 -6.95 Q27.402 -6.887 26.185 -5.67 Z"/></g><g id="Medium-M" transform="matrix(1 0 0 1 1689.91 1126)"><path d="M28.549 -46.061  37.611 -42.206 Q39.212 -45.377 40.908 -48.343 Q42.603 -51.309 44.644 -54.29 L38.062 -55.575 Q38.062 -55.575 38.062 -55.575 Q38.062 -55.575 38.062 -55.575 L28.549 -46.061 Z M46.717 -35.178  60.698 -21.292 Q66.128 -23.502 71.978 -27.492 Q77.829 -31.483 83.049 -36.703 Q91.65 -45.303 96.557 -55.767 Q101.465 -66.23 100.959 -75.439 Q91.75 -75.945 81.239 -71.037 Q70.728 -66.129 62.128 -57.529 Q56.908 -52.309 52.917 -46.458 Q48.927 -40.608 46.717 -35.178 Z M69.326 -43.901 Q66.511 -46.716 66.511 -50.814 Q66.511 -54.912 69.326 -57.727 Q72.141 -60.542 76.287 -60.542 Q80.432 -60.542 83.247 -57.727 Q86.062 -54.912 86.062 -50.814 Q86.062 -46.716 83.247 -43.901 Q80.432 -41.086 76.287 -41.086 Q72.141 -41.086 69.326 -43.901 Z M71.552 -3.029  81.095 -12.542 Q81.095 -12.542 81.095 -12.542 Q81.095 -12.542 81.095 -12.542 L79.81 -19.124 Q76.829 -17.083 73.863 -15.435 Q70.897 -13.787 67.726 -12.186 L71.552 -3.029 Z M111.543 -86.119 Q113.829 -69.798 108.442 -55.172 Q103.054 -40.545 90.084 -27.575 Q90.025 -27.515 89.95 -27.426 Q89.875 -27.336 89.815 -27.276 L92.315 -14.811 Q92.875 -11.983 92.035 -9.279 Q91.196 -6.575 89.177 -4.556 L67.728 16.892 L56.6 -9.227 L34.747 -31.08 L8.628 -42.208 L29.981 -63.657 Q32 -65.676 34.751 -66.515 Q37.503 -67.355 40.331 -66.795 L52.796 -64.295 Q52.856 -64.355 52.931 -64.4 Q53.005 -64.445 53.065 -64.504 Q66.035 -77.475 80.629 -82.939 Q95.223 -88.404 111.543 -86.119 Z M18.399 -15.205 Q23.073 -19.879 29.73 -19.942 Q36.386 -20.004 41.06 -15.33 Q45.734 -10.657 45.671 -4 Q45.609 2.656 40.935 7.33 Q37.571 10.694 29.66 13.108 Q21.75 15.523 8.606 17.153 Q10.236 4.009 12.636 -3.916 Q15.035 -11.841 18.399 -15.205 Z M26.511 -7.219 Q25.321 -6.029 24.19 -3.045 Q23.06 -0.061 22.56 3.104 Q25.726 2.604 28.709 1.506 Q31.693 0.409 32.883 -0.782 Q34.264 -2.162 34.359 -4.063 Q34.454 -5.964 33.073 -7.344 Q31.693 -8.724 29.792 -8.662 Q27.891 -8.599 26.511 -7.219 Z"/></g><g id="Regular-M" transform="matrix(1 0 0 1 1394.06 1126)"><path d="M28.25 -45.105  38 -40.98 Q39.75 -44.48 41.625 -47.73 Q43.5 -50.98 45.75 -54.23 L38.75 -55.605 Q38.75 -55.605 38.75 -55.605 Q38.75 -55.605 38.75 -55.605 L28.25 -45.105 Z M46 -34.73  60.25 -20.605 Q65.5 -22.605 71.5 -26.73 Q77.5 -30.855 82.75 -36.105 Q91.5 -44.855 96.438 -55.542 Q101.375 -66.23 100.75 -75.23 Q91.75 -75.855 81 -70.917 Q70.25 -65.98 61.5 -57.23 Q56.25 -51.98 52.125 -45.98 Q48 -39.98 46 -34.73 Z M68.25 -42.855 Q65.375 -45.73 65.375 -49.917 Q65.375 -54.105 68.25 -56.98 Q71.125 -59.855 75.375 -59.855 Q79.625 -59.855 82.5 -56.98 Q85.375 -54.105 85.375 -49.917 Q85.375 -45.73 82.5 -42.855 Q79.625 -39.98 75.375 -39.98 Q71.125 -39.98 68.25 -42.855 Z M70.625 -2.73  81.125 -13.23 Q81.125 -13.23 81.125 -13.23 Q81.125 -13.23 81.125 -13.23 L79.75 -20.23 Q76.5 -17.98 73.25 -16.167 Q70 -14.355 66.5 -12.605 L70.625 -2.73 Z M109.75 -84.355 Q112.125 -69.23 106.812 -54.917 Q101.5 -40.605 88.5 -27.605 Q88.5 -27.605 88.5 -27.605 Q88.5 -27.605 88.5 -27.605 L91 -15.23 Q91.5 -12.73 90.75 -10.355 Q90 -7.98 88.25 -6.23 L67.25 14.77 L56.75 -9.855 L35.375 -31.23 L10.75 -41.73 L31.625 -62.73 Q33.375 -64.48 35.812 -65.23 Q38.25 -65.98 40.75 -65.48 L53.125 -62.98 Q53.125 -62.98 53.125 -62.98 Q53.125 -62.98 53.125 -62.98 Q66.125 -75.98 80.375 -81.355 Q94.625 -86.73 109.75 -84.355 Z M19.625 -15.355 Q24 -19.73 30.312 -19.792 Q36.625 -19.855 41 -15.48 Q45.375 -11.105 45.312 -4.792 Q45.25 1.52 40.875 5.895 Q37.75 9.02 30.438 11.27 Q23.125 13.52 10.25 15.27 Q12 2.395 14.25 -4.917 Q16.5 -12.23 19.625 -15.355 Z M26.75 -8.355 Q25.5 -7.105 24.25 -3.792 Q23 -0.48 22.5 2.895 Q25.875 2.395 29.188 1.208 Q32.5 0.02 33.75 -1.23 Q35.25 -2.73 35.375 -4.855 Q35.5 -6.98 34 -8.48 Q32.5 -9.98 30.375 -9.917 Q28.25 -9.855 26.75 -8.355 Z"/></g><g id="Light-M" transform="matrix(1 0 0 1 1098.18 1126)"><path d="M27.096 -42.124  38.096 -37.47 Q40.135 -41.547 42.442 -45.35 Q44.75 -49.153 47.529 -52.836 L40.192 -54.259 Q39.808 -54.355 39.447 -54.235 Q39.087 -54.114 38.798 -53.826 L27.096 -42.124 Z M44.077 -32.759  58.279 -18.634 Q63.865 -20.97 69.865 -25.095 Q75.865 -29.22 81.26 -34.614 Q89.673 -43.028 94.274 -52.946 Q98.875 -62.864 98.827 -73.355 Q88.336 -73.403 78.404 -68.802 Q68.471 -64.201 60.058 -55.788 Q54.663 -50.393 50.538 -44.369 Q46.413 -38.345 44.077 -32.759 Z M68.154 -42.759 Q65.615 -45.297 65.615 -48.932 Q65.615 -52.566 68.154 -55.105 Q70.692 -57.643 74.389 -57.643 Q78.086 -57.643 80.625 -55.105 Q83.163 -52.566 83.163 -48.932 Q83.163 -45.297 80.625 -42.759 Q78.086 -40.22 74.389 -40.22 Q70.692 -40.22 68.154 -42.759 Z M67.596 -1.576  79.298 -13.278 Q79.586 -13.567 79.707 -13.927 Q79.827 -14.288 79.731 -14.672 L78.308 -22.009 Q74.625 -19.23 70.822 -16.961 Q67.019 -14.692 62.942 -12.653 L67.596 -1.576 Z M105.663 -80.22 Q107.269 -65.768 102.245 -52.826 Q97.221 -39.884 85.711 -28.374 Q85.471 -28.134 85.279 -27.942 Q85.086 -27.749 84.846 -27.509 L87.106 -16.192 Q87.557 -13.932 86.904 -11.797 Q86.25 -9.663 84.644 -8.057 L65.038 11.501 L55.644 -10.576 L36.048 -30.172 L13.971 -39.614 L33.452 -59.172 Q35.058 -60.778 37.231 -61.456 Q39.404 -62.134 41.663 -61.682 L53.077 -59.374 Q53.317 -59.614 53.486 -59.807 Q53.654 -59.999 53.894 -60.239 Q65.404 -71.749 78.308 -76.787 Q91.211 -81.826 105.663 -80.22 Z M22.606 -14.874 Q26.26 -18.528 31.515 -18.542 Q36.769 -18.557 40.423 -14.903 Q44.077 -11.249 44.038 -5.994 Q44 -0.74 40.346 2.914 Q37.51 5.751 31.038 7.784 Q24.567 9.818 14.433 11.039 Q15.654 0.905 17.712 -5.567 Q19.77 -12.038 22.606 -14.874 Z M27.952 -9.557 Q26.606 -8.211 25.356 -4.922 Q24.106 -1.634 23.654 1.789 Q27.077 1.337 30.366 0.102 Q33.654 -1.134 35 -2.48 Q36.5 -3.98 36.577 -6.081 Q36.654 -8.182 35.154 -9.682 Q33.654 -11.182 31.553 -11.119 Q29.452 -11.057 27.952 -9.557 Z"/></g><g id="Thin-M" transform="matrix(1 0 0 1 802.565 1126)"><path d="M25.942 -39.143  38.192 -33.961 Q40.519 -38.615 43.26 -42.97 Q46 -47.326 49.308 -51.441 L41.635 -52.913 Q40.865 -53.105 40.144 -52.865 Q39.423 -52.624 38.846 -52.047 L25.942 -39.143 Z M42.154 -30.788  56.308 -16.663 Q62.231 -19.336 68.231 -23.461 Q74.231 -27.586 79.769 -33.124 Q87.846 -41.201 92.111 -50.35 Q96.375 -59.499 96.904 -71.48 Q84.923 -70.951 75.808 -66.687 Q66.692 -62.422 58.615 -54.345 Q53.077 -48.807 48.952 -42.759 Q44.827 -36.711 42.154 -30.788 Z M68.058 -42.663 Q65.856 -44.865 65.856 -47.946 Q65.856 -51.028 68.058 -53.23 Q70.26 -55.432 73.404 -55.432 Q76.548 -55.432 78.75 -53.23 Q80.952 -51.028 80.952 -47.946 Q80.952 -44.865 78.75 -42.663 Q76.548 -40.461 73.404 -40.461 Q70.26 -40.461 68.058 -42.663 Z M64.567 -0.422  77.471 -13.326 Q78.048 -13.903 78.288 -14.624 Q78.529 -15.345 78.337 -16.115 L76.865 -23.788 Q72.75 -20.48 68.394 -17.754 Q64.038 -15.028 59.385 -12.701 L64.567 -0.422 Z M101.577 -76.086 Q102.413 -62.307 97.678 -50.735 Q92.942 -39.163 82.923 -29.143 Q82.442 -28.663 82.058 -28.278 Q81.673 -27.893 81.192 -27.413 L83.212 -17.153 Q83.615 -15.134 83.058 -13.24 Q82.5 -11.345 81.038 -9.884 L62.827 8.232 L54.538 -11.297 L36.721 -29.115 L17.192 -37.499 L35.279 -55.615 Q36.74 -57.076 38.649 -57.682 Q40.558 -58.288 42.577 -57.884 L53.029 -55.768 Q53.51 -56.249 53.846 -56.634 Q54.183 -57.018 54.663 -57.499 Q64.683 -67.518 76.24 -72.22 Q87.798 -76.922 101.577 -76.086 Z M25.587 -14.393 Q28.519 -17.326 32.716 -17.292 Q36.913 -17.259 39.846 -14.326 Q42.779 -11.393 42.764 -7.196 Q42.75 -2.999 39.817 -0.066 Q37.269 2.482 31.639 4.299 Q26.01 6.116 18.615 6.809 Q19.308 -0.586 21.173 -6.216 Q23.038 -11.845 25.587 -14.393 Z M29.154 -10.759 Q27.712 -9.316 26.462 -6.052 Q25.212 -2.788 24.808 0.684 Q28.279 0.28 31.543 -1.004 Q34.808 -2.288 36.25 -3.73 Q37.75 -5.23 37.779 -7.307 Q37.808 -9.384 36.308 -10.884 Q34.808 -12.384 32.731 -12.321 Q30.654 -12.259 29.154 -10.759 Z"/></g><g id="Ultralight-M" transform="matrix(1 0 0 1 506.415 1126)"><path d="M25.25 -37.355  38.25 -31.855 Q40.75 -36.855 43.75 -41.542 Q46.75 -46.23 50.375 -50.605 L42.5 -52.105 Q41.5 -52.355 40.562 -52.042 Q39.625 -51.73 38.875 -50.98 L25.25 -37.355 Z M41 -29.605  55.125 -15.48 Q61.25 -18.355 67.25 -22.48 Q73.25 -26.605 78.875 -32.23 Q86.75 -40.105 90.812 -48.792 Q94.875 -57.48 95.75 -70.355 Q82.875 -69.48 74.25 -65.417 Q65.625 -61.355 57.75 -53.48 Q52.125 -47.855 48 -41.792 Q43.875 -35.73 41 -29.605 Z M68 -42.605 Q66 -44.605 66 -47.355 Q66 -50.105 68 -52.105 Q70 -54.105 72.812 -54.105 Q75.625 -54.105 77.625 -52.105 Q79.625 -50.105 79.625 -47.355 Q79.625 -44.605 77.625 -42.605 Q75.625 -40.605 72.812 -40.605 Q70 -40.605 68 -42.605 Z M62.75 0.27  76.375 -13.355 Q77.125 -14.105 77.438 -15.042 Q77.75 -15.98 77.5 -16.98 L76 -24.855 Q71.625 -21.23 66.938 -18.23 Q62.25 -15.23 57.25 -12.73 L62.75 0.27 Z M99.125 -73.605 Q99.5 -60.23 94.938 -49.48 Q90.375 -38.73 81.25 -29.605 Q80.625 -28.98 80.125 -28.48 Q79.625 -27.98 79 -27.355 L80.875 -17.73 Q81.25 -15.855 80.75 -14.105 Q80.25 -12.355 78.875 -10.98 L61.5 6.27 L53.875 -11.73 L37.125 -28.48 L19.125 -36.23 L36.375 -53.48 Q37.75 -54.855 39.5 -55.417 Q41.25 -55.98 43.125 -55.605 L53 -53.605 Q53.625 -54.23 54.062 -54.73 Q54.5 -55.23 55.125 -55.855 Q64.25 -64.98 75 -69.48 Q85.75 -73.98 99.125 -73.605 Z M27.375 -14.105 Q29.875 -16.605 33.438 -16.542 Q37 -16.48 39.5 -13.98 Q42 -11.48 42 -7.917 Q42 -4.355 39.5 -1.855 Q37.125 0.52 32 2.208 Q26.875 3.895 21.125 4.27 Q21.5 -1.48 23.25 -6.605 Q25 -11.73 27.375 -14.105 Z M29.875 -11.48 Q28.375 -9.98 27.125 -6.73 Q25.875 -3.48 25.5 0.02 Q29 -0.355 32.25 -1.667 Q35.5 -2.98 37 -4.48 Q38.5 -5.98 38.5 -8.042 Q38.5 -10.105 37 -11.605 Q35.5 -13.105 33.438 -13.042 Q31.375 -12.98 29.875 -11.48 Z"/></g><g id="Bold-S" transform="matrix(1 0 0 1 2294.23 696)"><path d="M24.755 -44.994  30.179 -43.317 Q31.166 -44.994 32.152 -46.67 Q33.138 -48.347 34.223 -50.024 L30.179 -50.418 Q30.179 -50.418 30.179 -50.418 Q30.179 -50.418 30.179 -50.418 L24.755 -44.994 Z M39.746 -36.907  48.918 -27.636 Q54.244 -30.792 57.992 -33.257 Q61.739 -35.723 65.388 -39.372 Q70.813 -44.797 74.61 -51.257 Q78.407 -57.716 78.801 -66.691 Q69.728 -66.297 63.317 -62.549 Q56.907 -58.801 51.482 -53.377 Q47.833 -49.728 45.318 -45.98 Q42.803 -42.232 39.746 -36.907 Z M57.696 -45.487 Q55.822 -47.361 55.822 -50.024 Q55.822 -52.687 57.696 -54.56 Q59.57 -56.434 62.183 -56.434 Q64.797 -56.434 66.671 -54.56 Q68.544 -52.687 68.544 -50.024 Q68.544 -47.361 66.671 -45.487 Q64.797 -43.613 62.183 -43.613 Q59.57 -43.613 57.696 -45.487 Z M57.005 -12.645  62.528 -18.069 Q62.528 -18.069 62.528 -18.069 Q62.528 -18.069 62.528 -18.069 L62.134 -22.113 Q60.457 -21.028 58.781 -19.992 Q57.104 -18.957 55.427 -17.971 L57.005 -12.645 Z M90.143 -78.033 Q92.412 -64.028 87.776 -52.341 Q83.141 -40.654 75.251 -32.764 Q75.054 -32.567 74.018 -31.433 Q72.983 -30.299 72.785 -30.101 L73.969 -19.844 Q74.363 -17.083 73.525 -14.469 Q72.687 -11.856 70.615 -9.785 L52.37 8.461 L43.592 -16.491 L28.7 -31.482 L3.649 -40.26 L21.993 -58.604 Q24.065 -60.675 26.629 -61.514 Q29.193 -62.352 31.955 -61.957 L42.212 -60.675 Q42.409 -60.872 43.592 -61.908 Q44.776 -62.944 44.973 -63.141 Q52.863 -71.031 64.501 -75.716 Q76.139 -80.4 90.143 -78.033 Z M13.512 -20.042 Q17.654 -23.987 23.078 -23.937 Q28.503 -23.888 32.645 -19.746 Q36.59 -15.801 36.639 -10.475 Q36.689 -5.149 32.941 -1.007 Q27.911 4.615 19.577 6.39 Q11.243 8.165 4.044 8.855 Q4.734 1.754 6.411 -6.53 Q8.087 -14.815 13.512 -20.042 Z M21.204 -11.165 Q19.725 -9.686 19.577 -8.503 Q19.429 -7.319 18.739 -5.741 Q20.317 -6.333 21.451 -6.629 Q22.585 -6.925 23.966 -8.404 Q24.656 -9.193 24.804 -10.031 Q24.952 -10.87 24.262 -11.56 Q23.571 -12.25 22.782 -12.053 Q21.993 -11.856 21.204 -11.165 Z"/></g><g id="Semibold-S" transform="matrix(1 0 0 1 1998.1 696)"><path d="M24.326 -43.622  30.737 -41.559 Q31.937 -43.708 33.181 -45.792 Q34.424 -47.876 35.809 -49.938 L31.165 -50.461 Q31.165 -50.461 31.165 -50.461 Q31.165 -50.461 31.165 -50.461 L24.326 -43.622 Z M38.717 -36.263  48.275 -26.65 Q53.343 -29.506 57.305 -32.164 Q61.268 -34.823 64.96 -38.515 Q70.598 -44.153 74.438 -50.935 Q78.278 -57.716 78.501 -66.391 Q69.728 -66.168 62.974 -62.378 Q56.221 -58.587 50.582 -52.948 Q46.89 -49.256 44.182 -45.294 Q41.474 -41.332 38.717 -36.263 Z M56.152 -43.986 Q54.192 -45.946 54.192 -48.737 Q54.192 -51.529 56.152 -53.489 Q58.112 -55.448 60.875 -55.448 Q63.639 -55.448 65.599 -53.489 Q67.558 -51.529 67.558 -48.737 Q67.558 -45.946 65.599 -43.986 Q63.639 -42.027 60.875 -42.027 Q58.112 -42.027 56.152 -43.986 Z M55.676 -12.216  62.571 -19.055 Q62.571 -19.055 62.571 -19.055 Q62.571 -19.055 62.571 -19.055 L62.048 -23.699 Q59.986 -22.314 57.902 -21.043 Q55.818 -19.772 53.669 -18.571 L55.676 -12.216 Z M87.571 -75.504 Q89.968 -63.214 85.439 -51.977 Q80.911 -40.74 72.978 -32.807 Q72.867 -32.696 71.938 -31.69 Q71.01 -30.685 70.899 -30.573 L72.082 -20.445 Q72.391 -18.155 71.681 -16.013 Q70.972 -13.871 69.286 -12.186 L51.684 5.417 L43.807 -17.392 L29.6 -31.697 L6.693 -39.574 L24.352 -57.275 Q26.037 -58.96 28.151 -59.67 Q30.265 -60.379 32.555 -60.071 L42.683 -58.789 Q42.795 -58.9 43.871 -59.871 Q44.947 -60.843 45.059 -60.954 Q52.992 -68.887 64.136 -73.443 Q75.281 -77.999 87.571 -75.504 Z M15.27 -20.256 Q18.983 -23.772 23.914 -23.723 Q28.846 -23.674 32.559 -19.96 Q36.075 -16.444 36.125 -11.611 Q36.174 -6.779 32.855 -3.065 Q28.168 2.213 20.692 3.753 Q13.216 5.292 6.402 6.154 Q7.264 -0.561 8.726 -7.966 Q10.188 -15.372 15.27 -20.256 Z M21.547 -12.795 Q19.982 -11.23 19.663 -9.575 Q19.343 -7.919 18.653 -6.041 Q20.531 -6.633 22.137 -7.058 Q23.743 -7.482 25.209 -9.047 Q26.071 -10.008 26.262 -11.168 Q26.453 -12.327 25.591 -13.189 Q24.729 -14.051 23.619 -13.854 Q22.508 -13.657 21.547 -12.795 Z"/></g><g id="Medium-S" transform="matrix(1 0 0 1 1701.85 696)"><path d="M24.004 -42.593  31.155 -40.241 Q32.516 -42.743 33.953 -45.132 Q35.389 -47.522 36.999 -49.874 L31.905 -50.493 Q31.905 -50.493 31.905 -50.493 Q31.905 -50.493 31.905 -50.493 L24.004 -42.593 Z M37.945 -35.781  47.792 -25.91 Q52.668 -28.541 56.791 -31.344 Q60.914 -34.147 64.638 -37.871 Q70.438 -43.671 74.31 -50.694 Q78.182 -57.716 78.276 -66.166 Q69.728 -66.072 62.717 -62.249 Q55.706 -58.426 49.906 -52.627 Q46.182 -48.902 43.33 -44.779 Q40.477 -40.657 37.945 -35.781 Z M54.994 -42.861 Q52.97 -44.884 52.97 -47.773 Q52.97 -50.661 54.994 -52.684 Q57.018 -54.708 59.894 -54.708 Q62.771 -54.708 64.794 -52.684 Q66.818 -50.661 66.818 -47.773 Q66.818 -44.884 64.794 -42.861 Q62.771 -40.837 59.894 -40.837 Q57.018 -40.837 54.994 -42.861 Z M54.679 -11.894  62.603 -19.795 Q62.603 -19.795 62.603 -19.795 Q62.603 -19.795 62.603 -19.795 L61.984 -24.889 Q59.632 -23.279 57.242 -21.831 Q54.853 -20.383 52.351 -19.021 L54.679 -11.894 Z M85.641 -73.606 Q88.134 -62.603 83.687 -51.704 Q79.239 -40.804 71.274 -32.839 Q71.227 -32.792 70.379 -31.883 Q69.531 -30.974 69.483 -30.927 L70.667 -20.895 Q70.911 -18.959 70.298 -17.171 Q69.685 -15.383 68.289 -13.987 L51.169 3.133 L43.967 -18.067 L30.276 -31.857 L8.977 -39.059 L26.121 -56.278 Q27.516 -57.674 29.293 -58.287 Q31.069 -58.9 33.005 -58.656 L43.037 -57.373 Q43.084 -57.421 44.08 -58.344 Q45.076 -59.267 45.123 -59.314 Q53.088 -67.279 63.863 -71.738 Q74.638 -76.198 85.641 -73.606 Z M16.588 -20.417 Q19.98 -23.612 24.542 -23.562 Q29.103 -23.513 32.495 -20.121 Q35.689 -16.926 35.739 -12.464 Q35.788 -8.001 32.791 -4.609 Q28.361 0.412 21.528 1.775 Q14.695 3.137 8.171 4.128 Q9.161 -2.298 10.463 -9.044 Q11.764 -15.79 16.588 -20.417 Z M21.805 -14.017 Q20.175 -12.388 19.727 -10.379 Q19.279 -8.37 18.589 -6.266 Q20.692 -6.858 22.652 -7.379 Q24.611 -7.9 26.142 -9.53 Q27.133 -10.619 27.356 -12.02 Q27.579 -13.421 26.588 -14.412 Q25.597 -15.402 24.246 -15.205 Q22.894 -15.008 21.805 -14.017 Z"/></g><g id="Regular-S" transform="matrix(1 0 0 1 1405.73 696)"><path d="M23.769 -41.838  31.461 -39.274 Q32.941 -42.035 34.519 -44.649 Q36.097 -47.262 37.872 -49.826 L32.448 -50.517 Q32.448 -50.517 32.448 -50.517 Q32.448 -50.517 32.448 -50.517 L23.769 -41.838 Z M37.379 -35.427  47.439 -25.367 Q52.173 -27.833 56.413 -30.743 Q60.654 -33.652 64.402 -37.4 Q70.32 -43.317 74.215 -50.517 Q78.111 -57.716 78.111 -66.001 Q69.728 -66.001 62.528 -62.155 Q55.329 -58.308 49.411 -52.391 Q45.663 -48.643 42.705 -44.402 Q39.746 -40.161 37.379 -35.427 Z M54.145 -42.035 Q52.074 -44.106 52.074 -47.065 Q52.074 -50.024 54.145 -52.095 Q56.216 -54.166 59.175 -54.166 Q62.134 -54.166 64.205 -52.095 Q66.276 -50.024 66.276 -47.065 Q66.276 -44.106 64.205 -42.035 Q62.134 -39.964 59.175 -39.964 Q56.216 -39.964 54.145 -42.035 Z M53.948 -11.659  62.627 -20.338 Q62.627 -20.338 62.627 -20.338 Q62.627 -20.338 62.627 -20.338 L61.937 -25.762 Q59.372 -23.987 56.759 -22.409 Q54.145 -20.831 51.384 -19.351 L53.948 -11.659 Z M84.226 -72.214 Q86.79 -62.155 82.401 -51.503 Q78.012 -40.852 70.024 -32.863 Q70.024 -32.863 69.235 -32.025 Q68.446 -31.186 68.446 -31.186 L69.629 -21.225 Q69.827 -19.549 69.284 -18.02 Q68.742 -16.491 67.558 -15.308 L50.792 1.459 L44.085 -18.562 L30.771 -31.975 L10.652 -38.682 L27.418 -55.547 Q28.601 -56.73 30.13 -57.273 Q31.659 -57.815 33.335 -57.618 L43.296 -56.336 Q43.296 -56.336 44.233 -57.223 Q45.17 -58.111 45.17 -58.111 Q53.159 -66.1 63.662 -70.488 Q74.166 -74.877 84.226 -72.214 Z M17.555 -20.535 Q20.711 -23.494 25.001 -23.444 Q29.292 -23.395 32.448 -20.239 Q35.406 -17.28 35.456 -13.089 Q35.505 -8.897 32.744 -5.741 Q28.503 -0.908 22.141 0.324 Q15.78 1.557 9.468 2.642 Q10.553 -3.571 11.736 -9.834 Q12.92 -16.097 17.555 -20.535 Z M21.993 -14.913 Q20.317 -13.237 19.774 -10.968 Q19.232 -8.7 18.541 -6.431 Q20.81 -7.023 23.029 -7.615 Q25.248 -8.207 26.826 -9.883 Q27.911 -11.067 28.157 -12.645 Q28.404 -14.223 27.319 -15.308 Q26.234 -16.393 24.706 -16.195 Q23.177 -15.998 21.993 -14.913 Z"/></g><g id="Light-S" transform="matrix(1 0 0 1 1109.75 696)"><path d="M22.858 -39.486  31.537 -36.504 Q33.244 -39.721 35.164 -42.771 Q37.083 -45.821 39.276 -48.726 L33.586 -49.455 Q33.282 -49.531 32.998 -49.436 Q32.713 -49.341 32.486 -49.113 L22.858 -39.486 Z M35.861 -33.872  45.883 -23.812 Q50.883 -26.543 55.124 -29.453 Q59.365 -32.362 63.226 -36.224 Q68.878 -41.876 72.508 -48.468 Q76.138 -55.061 76.594 -64.522 Q67.034 -64.066 60.48 -60.485 Q53.925 -56.905 48.273 -51.253 Q44.412 -47.391 41.453 -43.131 Q38.494 -38.871 35.861 -33.872 Z M54.069 -41.959 Q52.264 -43.765 52.264 -46.287 Q52.264 -48.81 54.069 -50.615 Q55.875 -52.421 58.397 -52.421 Q60.92 -52.421 62.725 -50.615 Q64.531 -48.81 64.531 -46.287 Q64.531 -43.765 62.725 -41.959 Q60.92 -40.154 58.397 -40.154 Q55.875 -40.154 54.069 -41.959 Z M51.558 -10.748  61.185 -20.376 Q61.413 -20.603 61.508 -20.888 Q61.603 -21.172 61.527 -21.476 L60.798 -27.166 Q57.893 -24.973 54.843 -23.035 Q51.793 -21.096 48.576 -19.389 L51.558 -10.748 Z M81.001 -68.952 Q82.959 -59.423 78.797 -49.853 Q74.636 -40.283 67.824 -33.47 Q67.634 -33.28 66.693 -32.29 Q65.752 -31.3 65.563 -31.111 L66.556 -21.984 Q66.716 -20.497 66.249 -19.158 Q65.783 -17.819 64.713 -16.749 L49.047 -1.121 L43.213 -19.131 L31.302 -31.141 L13.193 -37.013 L28.859 -52.739 Q29.929 -53.809 31.249 -54.295 Q32.569 -54.78 34.056 -54.621 L43.258 -53.491 Q43.448 -53.68 44.518 -54.72 Q45.588 -55.759 45.777 -55.949 Q52.59 -62.761 62.031 -66.885 Q71.473 -71.008 81.001 -68.952 Z M19.907 -20.156 Q22.494 -22.545 25.95 -22.458 Q29.405 -22.371 31.992 -19.784 Q34.382 -17.394 34.45 -14.037 Q34.519 -10.68 32.326 -8.093 Q28.313 -3.488 22.616 -2.426 Q16.918 -1.364 12.768 -0.696 Q13.436 -4.747 14.468 -10.346 Q15.5 -15.945 19.907 -20.156 Z M22.942 -15.862 Q21.189 -14.109 20.647 -11.86 Q20.104 -9.61 19.452 -7.304 Q21.758 -7.858 23.958 -8.488 Q26.158 -9.117 27.812 -10.87 Q28.897 -12.053 29.106 -13.612 Q29.314 -15.171 28.23 -16.256 Q27.145 -17.341 25.635 -17.144 Q24.125 -16.947 22.942 -15.862 Z"/></g><g id="Thin-S" transform="matrix(1 0 0 1 814.015 696)"><path d="M21.948 -37.134  31.613 -33.735 Q33.548 -37.407 35.808 -40.893 Q38.069 -44.379 40.679 -47.626 L34.724 -48.393 Q34.117 -48.544 33.548 -48.355 Q32.979 -48.165 32.523 -47.71 L21.948 -37.134 Z M34.344 -32.317  44.328 -22.257 Q49.593 -25.254 53.834 -28.163 Q58.075 -31.073 62.05 -35.048 Q67.437 -40.434 70.801 -46.42 Q74.166 -52.406 75.076 -63.042 Q64.341 -62.132 58.432 -58.817 Q52.522 -55.501 47.135 -50.115 Q43.16 -46.14 40.201 -41.861 Q37.242 -37.582 34.344 -32.317 Z M53.993 -41.883 Q52.453 -43.423 52.453 -45.51 Q52.453 -47.596 53.993 -49.136 Q55.533 -50.676 57.62 -50.676 Q59.706 -50.676 61.246 -49.136 Q62.786 -47.596 62.786 -45.51 Q62.786 -43.423 61.246 -41.883 Q59.706 -40.343 57.62 -40.343 Q55.533 -40.343 53.993 -41.883 Z M49.168 -9.838  59.744 -20.413 Q60.199 -20.869 60.389 -21.438 Q60.579 -22.007 60.427 -22.614 L59.661 -28.569 Q56.413 -25.959 52.928 -23.66 Q49.442 -21.362 45.77 -19.427 L49.168 -9.838 Z M77.777 -65.69 Q79.128 -56.692 75.194 -48.203 Q71.26 -39.714 65.624 -34.077 Q65.244 -33.697 64.152 -32.556 Q63.059 -31.414 62.68 -31.035 L63.484 -22.743 Q63.606 -21.445 63.215 -20.296 Q62.824 -19.147 61.868 -18.191 L47.302 -3.7 L42.341 -19.7 L31.833 -30.306 L15.734 -35.344 L30.301 -49.933 Q31.257 -50.889 32.368 -51.317 Q33.479 -51.746 34.777 -51.625 L43.221 -50.646 Q43.6 -51.025 44.802 -52.216 Q46.005 -53.407 46.384 -53.787 Q52.021 -59.424 60.4 -63.281 Q68.78 -67.139 77.777 -65.69 Z M22.259 -19.776 Q24.277 -21.597 26.898 -21.472 Q29.519 -21.347 31.537 -19.329 Q33.358 -17.508 33.445 -14.985 Q33.532 -12.463 31.909 -10.445 Q28.123 -6.067 23.09 -5.176 Q18.056 -4.284 16.068 -4.034 Q16.319 -5.923 17.199 -10.858 Q18.079 -15.793 22.259 -19.776 Z M23.89 -16.81 Q22.062 -14.981 21.519 -12.751 Q20.977 -10.521 20.362 -8.176 Q22.707 -8.692 24.888 -9.36 Q27.069 -10.027 28.799 -11.856 Q29.883 -13.039 30.054 -14.579 Q30.225 -16.12 29.14 -17.204 Q28.055 -18.289 26.564 -18.092 Q25.074 -17.895 23.89 -16.81 Z"/></g><g id="Ultralight-S" transform="matrix(1 0 0 1 517.792 696)"><path d="M21.402 -35.723  31.659 -32.074 Q33.73 -36.019 36.195 -39.767 Q38.661 -43.514 41.521 -46.966 L35.406 -47.755 Q34.617 -47.953 33.878 -47.706 Q33.138 -47.459 32.546 -46.868 L21.402 -35.723 Z M33.434 -31.384  43.395 -21.324 Q48.819 -24.48 53.06 -27.389 Q57.301 -30.299 61.345 -34.342 Q66.572 -39.569 69.777 -45.191 Q72.983 -50.813 74.166 -62.155 Q62.726 -60.971 57.203 -57.815 Q51.68 -54.659 46.452 -49.432 Q42.409 -45.388 39.45 -41.098 Q36.491 -36.808 33.434 -31.384 Z M53.948 -41.838 Q52.567 -43.219 52.567 -45.043 Q52.567 -46.868 53.948 -48.248 Q55.329 -49.629 57.153 -49.629 Q58.978 -49.629 60.358 -48.248 Q61.739 -46.868 61.739 -45.043 Q61.739 -43.219 60.358 -41.838 Q58.978 -40.457 57.153 -40.457 Q55.329 -40.457 53.948 -41.838 Z M47.735 -9.292  58.879 -20.436 Q59.471 -21.028 59.717 -21.768 Q59.964 -22.507 59.767 -23.296 L58.978 -29.411 Q55.526 -26.551 51.778 -24.036 Q48.03 -21.521 44.085 -19.45 L47.735 -9.292 Z M75.843 -63.733 Q76.829 -55.054 73.032 -47.213 Q69.235 -39.372 64.303 -34.441 Q63.81 -33.948 62.627 -32.715 Q61.443 -31.482 60.95 -30.989 L61.641 -23.198 Q61.739 -22.014 61.394 -20.979 Q61.049 -19.943 60.161 -19.055 L46.255 -5.248 L41.817 -20.042 L32.152 -29.806 L17.259 -34.342 L31.166 -48.248 Q32.053 -49.136 33.039 -49.531 Q34.026 -49.925 35.209 -49.826 L43.198 -48.939 Q43.691 -49.432 44.973 -50.714 Q46.255 -51.996 46.748 -52.489 Q51.68 -57.421 59.422 -61.119 Q67.164 -64.817 75.843 -63.733 Z M23.67 -19.549 Q25.347 -21.028 27.467 -20.88 Q29.588 -20.732 31.264 -19.055 Q32.744 -17.576 32.842 -15.554 Q32.941 -13.532 31.659 -11.856 Q28.01 -7.615 23.374 -6.826 Q18.739 -6.037 18.048 -6.037 Q18.048 -6.629 18.837 -11.165 Q19.626 -15.702 23.67 -19.549 Z M24.459 -17.379 Q22.585 -15.505 22.043 -13.286 Q21.5 -11.067 20.909 -8.7 Q23.276 -9.193 25.445 -9.883 Q27.615 -10.574 29.39 -12.448 Q30.475 -13.631 30.623 -15.16 Q30.771 -16.688 29.686 -17.773 Q28.601 -18.858 27.122 -18.661 Q25.643 -18.464 24.459 -17.379 Z"/></g></g></svg>