<svg xmlns="http://www.w3.org/2000/svg" version="1.1" width="3300" height="2000"><g id="Notes"><style>
    text {
      font-family: monospace;
      text-anchor: middle;
    }
    text.emphasis {
      font-weight:bold;
    }
    text.lanchor {
      text-anchor: start;
    }
  </style><rect height="2200" id="artboard" fill="white" width="3300" x="0" y="0"/><line id="" style="fill:none;stroke:black;stroke-width:0.5;" x1="263" x2="3036" y1="292" y2="292"/><text class="lanchor emphasis" transform="matrix(1 0 0 1 263 322)">Weight/Scale Variations</text><text transform="matrix(1 0 0 1 559.711 322)">Ultralight</text><text transform="matrix(1 0 0 1 856.422 322)">Thin</text><text transform="matrix(1 0 0 1 1153.13 322)">Light</text><text transform="matrix(1 0 0 1 1449.84 322)">Regular</text><text transform="matrix(1 0 0 1 1746.56 322)">Medium</text><text transform="matrix(1 0 0 1 2043.27 322)">Semibold</text><text transform="matrix(1 0 0 1 2339.98 322)">Bold</text><text transform="matrix(1 0 0 1 2636.69 322)">Heavy</text><text transform="matrix(1 0 0 1 2933.4 322)">Black</text><text id="template-version" style="text-anchor: end;" transform="matrix(1 0 0 1 3036 1933)">Template v.1.0</text><text class="lanchor" transform="matrix(1 0 0 1 263 726)">Small</text><text class="lanchor" transform="matrix(1 0 0 1 263 1156)">Medium</text><text class="lanchor" transform="matrix(1 0 0 1 263 1586)">Large</text></g><g id="Guides"><g id="H-reference" style="fill:#27AAE1;stroke:none;" transform="matrix(1 0 0 1 339 696)"><path d="M 54.9316 0 L 57.666 0 L 30.5664 -70.459 L 28.0762 -70.459 L 0.976562 0 L 3.66211 0 L 12.9395 -24.4629 L 45.7031 -24.4629 Z M 29.1992 -67.0898 L 29.4434 -67.0898 L 44.8242 -26.709 L 13.8184 -26.709 Z"/></g><line id="Baseline-S" style="fill:none;stroke:#27AAE1;opacity:1;stroke-width:0.577;" x1="263" x2="3036" y1="696" y2="696"/><line id="Capline-S" style="fill:none;stroke:#27AAE1;opacity:1;stroke-width:0.577;" x1="263" x2="3036" y1="625.541" y2="625.541"/><g id="H-reference" style="fill:#27AAE1;stroke:none;" transform="matrix(1 0 0 1 339 1126)"><path d="M 54.9316 0 L 57.666 0 L 30.5664 -70.459 L 28.0762 -70.459 L 0.976562 0 L 3.66211 0 L 12.9395 -24.4629 L 45.7031 -24.4629 Z M 29.1992 -67.0898 L 29.4434 -67.0898 L 44.8242 -26.709 L 13.8184 -26.709 Z"/></g><line id="Baseline-M" style="fill:none;stroke:#27AAE1;opacity:1;stroke-width:0.577;" x1="263" x2="3036" y1="1126" y2="1126"/><line id="Capline-M" style="fill:none;stroke:#27AAE1;opacity:1;stroke-width:0.577;" x1="263" x2="3036" y1="1055.54" y2="1055.54"/><g id="H-reference" style="fill:#27AAE1;stroke:none;" transform="matrix(1 0 0 1 339 1556)"><path d="M 54.9316 0 L 57.666 0 L 30.5664 -70.459 L 28.0762 -70.459 L 0.976562 0 L 3.66211 0 L 12.9395 -24.4629 L 45.7031 -24.4629 Z M 29.1992 -67.0898 L 29.4434 -67.0898 L 44.8242 -26.709 L 13.8184 -26.709 Z"/></g><line id="Baseline-L" style="fill:none;stroke:#27AAE1;opacity:1;stroke-width:0.577;" x1="263" x2="3036" y1="1556" y2="1556"/><line id="Capline-L" style="fill:none;stroke:#27AAE1;opacity:1;stroke-width:0.577;" x1="263" x2="3036" y1="1485.54" y2="1485.54"/><rect height="119.336" id="left-margin" style="fill:darkred;stroke:none;opacity:0.4;" width="12.4512" x="1394.06" y="1030.79"/><rect height="119.336" id="right-margin" style="fill:darkgreen;stroke:none;opacity:0.4;" width="12.4512" x="1502.5112" y="1030.79"/><rect x="1406.5112" y="1045" width="96" height="96" fill="none" stroke="blue" stroke-dasharray="5"/><rect x="1394.06" y="1030.79" width="120.9024" height="119.336" fill="none" stroke="blue"/></g><g id="Symbols"><g id="Bold-L" transform="matrix(1 0 0 1 2266 1556)"><path d="M112.391 29.754 H40.151 V-57.321 L83.205 -101.987 L92.638 -95.144 Q94.045 -94.079 94.833 -91.99 Q95.621 -89.901 95.621 -86.991 V-86.83 L88.688 -57.321 H135.289 Q141.191 -57.321 145.899 -52.726 Q150.608 -48.13 150.608 -42.164 V-36.223 Q150.608 -34.774 150.769 -33.228 Q150.93 -31.682 150.285 -30.554 L129.322 18.305 Q127.312 23.196 122.487 26.475 Q117.662 29.754 112.391 29.754 Z M53.535 14.596 H114.487 Q114.487 14.596 114.487 14.596 Q114.487 14.596 114.487 14.596 L135.127 -34.424 V-42.164 Q135.127 -42.164 135.127 -42.164 Q135.127 -42.164 135.127 -42.164 H71.756 L78.851 -76.349 L53.535 -49.259 V14.596 Z M40.151 -57.321 V-42.164 H22.414 V14.596 H40.151 V29.754 H7.256 V-57.321 H40.151 Z"/></g><g id="Semibold-L" transform="matrix(1 0 0 1 1970.27 1556)"><path d="M113.723 26.739 H41.764 V-58.373 L85.589 -103.81 L93.654 -97.769 Q94.871 -96.816 95.526 -95.004 Q96.182 -93.193 96.182 -90.637 V-89.844 L89.108 -58.373 H136.41 Q141.429 -58.373 145.352 -54.513 Q149.276 -50.654 149.276 -45.599 V-36.504 Q149.276 -35.183 149.472 -33.783 Q149.668 -32.384 149.093 -31.255 L128.411 16.693 Q126.653 20.947 122.473 23.843 Q118.293 26.739 113.723 26.739 Z M53.535 13.965 H115.819 Q115.819 13.965 115.819 13.965 Q115.819 13.965 115.819 13.965 L136.319 -34.704 V-45.599 Q136.319 -45.599 136.319 -45.599 Q136.319 -45.599 136.319 -45.599 H74.35 L82.076 -82.378 L53.535 -52.063 V13.965 Z M41.764 -58.373 V-45.599 H22.414 V13.965 H41.764 V26.739 H9.64 V-58.373 H41.764 Z"/></g><g id="Medium-L" transform="matrix(1 0 0 1 1674.31 1556)"><path d="M114.722 24.478 H42.973 V-59.162 L87.376 -105.177 L94.417 -99.737 Q95.49 -98.869 96.046 -97.266 Q96.603 -95.662 96.603 -93.371 V-92.106 L89.424 -59.162 H137.252 Q141.608 -59.162 144.942 -55.854 Q148.276 -52.547 148.276 -48.175 V-36.714 Q148.276 -35.489 148.499 -34.199 Q148.722 -32.909 148.199 -31.781 L127.728 15.483 Q126.157 19.26 122.462 21.869 Q118.767 24.478 114.722 24.478 Z M53.535 13.492 H116.819 Q116.819 13.492 116.819 13.492 Q116.819 13.492 116.819 13.492 L137.213 -34.914 V-48.175 Q137.213 -48.175 137.213 -48.175 Q137.213 -48.175 137.213 -48.175 H76.296 L84.495 -86.9 L53.535 -54.166 V13.492 Z M42.973 -59.162 V-48.175 H22.414 V13.492 H42.973 V24.478 H11.428 V-59.162 H42.973 Z"/></g><g id="Regular-L" transform="matrix(1 0 0 1 1378.56 1556)"><path d="M115.455 22.82 H43.86 V-59.74 L88.688 -106.18 L94.976 -101.181 Q95.944 -100.375 96.428 -98.924 Q96.911 -97.472 96.911 -95.376 V-93.764 L89.655 -59.74 H137.869 Q141.739 -59.74 144.641 -56.837 Q147.544 -53.935 147.544 -50.065 V-36.868 Q147.544 -35.714 147.786 -34.504 Q148.028 -33.295 147.544 -32.166 L127.226 14.596 Q125.795 18.023 122.454 20.421 Q119.114 22.82 115.455 22.82 Z M53.535 13.145 H117.551 Q117.551 13.145 117.551 13.145 Q117.551 13.145 117.551 13.145 L137.869 -35.069 V-50.065 Q137.869 -50.065 137.869 -50.065 Q137.869 -50.065 137.869 -50.065 H77.722 L86.269 -90.216 L53.535 -55.709 V13.145 Z M43.86 -59.74 V-50.065 H22.414 V13.145 H43.86 V22.82 H12.739 V-59.74 H43.86 Z"/></g><g id="Light-L" transform="matrix(1 0 0 1 1082.77 1556)"><path d="M113.904 19.595 H45.597 V-56.887 L88.129 -100.35 L92.303 -97.14 Q93.215 -96.343 93.699 -95.047 Q94.182 -93.751 94.182 -92.089 V-90.911 L87.174 -56.887 H135.264 Q138.923 -56.887 141.745 -54.065 Q144.567 -51.243 144.567 -47.584 V-36.926 Q144.567 -35.9 144.684 -34.783 Q144.802 -33.667 144.381 -32.662 L125.241 11.867 Q123.85 15.118 120.582 17.356 Q117.315 19.595 113.904 19.595 Z M52.915 12.277 H115.442 Q116.063 12.277 116.807 11.905 Q117.551 11.532 117.923 10.664 L137.249 -35.131 V-47.584 Q137.249 -48.39 136.659 -48.98 Q136.07 -49.569 135.264 -49.569 H78.281 L86.207 -88.294 L52.915 -53.786 V12.277 Z M45.597 -56.887 V-49.569 H23.344 V12.277 H45.597 V19.595 H16.026 V-56.887 H45.597 Z"/></g><g id="Thin-L" transform="matrix(1 0 0 1 787.282 1556)"><path d="M112.354 16.37 H47.333 V-54.034 L87.571 -94.52 L89.63 -93.099 Q90.486 -92.312 90.97 -91.171 Q91.454 -90.03 91.454 -88.802 V-88.058 L84.693 -54.034 H132.659 Q136.107 -54.034 138.849 -51.293 Q141.59 -48.552 141.59 -45.103 V-36.982 Q141.59 -36.086 141.584 -35.063 Q141.578 -34.039 141.218 -33.159 L123.257 9.139 Q121.906 12.214 118.711 14.292 Q115.517 16.37 112.354 16.37 Z M52.295 11.408 H113.334 Q114.574 11.408 116.063 10.664 Q117.551 9.92 118.295 8.183 L136.628 -35.193 V-45.103 Q136.628 -46.716 135.45 -47.894 Q134.272 -49.073 132.659 -49.073 H78.839 L86.145 -86.371 L52.295 -51.864 V11.408 Z M47.333 -54.034 V-49.073 H24.274 V11.408 H47.333 V16.37 H19.313 V-54.034 H47.333 Z"/></g><g id="Ultralight-L" transform="matrix(1 0 0 1 491.205 1556)"><path d="M111.424 14.435 H48.375 V-52.322 L87.236 -91.022 L88.026 -90.675 Q88.849 -89.894 89.332 -88.846 Q89.816 -87.797 89.816 -86.83 V-86.346 L83.205 -52.322 H131.096 Q134.418 -52.322 137.111 -49.63 Q139.804 -46.937 139.804 -43.615 V-37.017 Q139.804 -36.197 139.723 -35.23 Q139.643 -34.262 139.32 -33.456 L122.066 7.501 Q120.739 10.471 117.588 12.453 Q114.437 14.435 111.424 14.435 Z M51.922 10.888 H112.069 Q113.681 10.888 115.616 9.92 Q117.551 8.953 118.519 6.695 L136.256 -35.23 V-43.615 Q136.256 -45.711 134.724 -47.243 Q133.192 -48.775 131.096 -48.775 H79.174 L86.108 -85.217 L51.922 -50.71 V10.888 Z M48.375 -52.322 V-48.775 H24.832 V10.888 H48.375 V14.435 H21.285 V-52.322 H48.375 Z"/></g><g id="Bold-M" transform="matrix(1 0 0 1 2281.8 1126)"><path d="M86.875 17.02 H31.125 V-52.73 L64.25 -85.855 L73.79 -77.631 Q75.125 -76.48 76 -74.355 Q76.875 -72.23 76.875 -70.105 V-69.73 L71.75 -52.73 H102.375 Q108.5 -52.73 113.312 -47.917 Q118.125 -43.105 118.125 -36.98 V-34.605 Q118.125 -33.426 117.875 -32.078 Q117.625 -30.73 117.125 -29.73 L101.375 7.645 Q99.625 11.645 95.438 14.333 Q91.25 17.02 86.875 17.02 Z M45 1.27 H86.875 Q86.875 1.27 86.875 1.27 Q86.875 1.27 86.875 1.27 L102.125 -34.605 V-36.98 Q102.125 -36.98 102.125 -36.98 Q102.125 -36.98 102.125 -36.98 H53.875 L59.125 -58.355 L45 -44.23 V1.27 Z M31.125 -52.73 V-36.98 H20 V1.27 H31.125 V17.02 H4.25 V-52.73 H31.125 Z"/></g><g id="Semibold-M" transform="matrix(1 0 0 1 1985.97 1126)"><path d="M88.234 13.868 H32.81 V-53.817 L66.75 -87.757 L74.859 -80.391 Q75.995 -79.36 76.734 -77.507 Q77.473 -75.654 77.473 -73.855 V-72.882 L72.185 -53.817 H103.516 Q108.717 -53.817 112.742 -49.792 Q116.766 -45.768 116.766 -40.567 V-34.877 Q116.766 -33.83 116.516 -32.633 Q116.266 -31.436 115.875 -30.491 L100.451 5.96 Q98.973 9.308 95.465 11.588 Q91.957 13.868 88.234 13.868 Z M45 0.618 H88.234 Q88.234 0.618 88.234 0.618 Q88.234 0.618 88.234 0.618 L103.375 -34.877 V-40.567 Q103.375 -40.567 103.375 -40.567 Q103.375 -40.567 103.375 -40.567 H56.538 L62.44 -64.605 L45 -47.165 V0.618 Z M32.81 -53.817 V-40.567 H20 V0.618 H32.81 V13.868 H6.75 V-53.817 H32.81 Z"/></g><g id="Medium-M" transform="matrix(1 0 0 1 1689.91 1126)"><path d="M89.253 11.504 H34.073 V-54.632 L68.625 -89.184 L75.662 -82.462 Q76.647 -81.521 77.284 -79.871 Q77.921 -78.222 77.921 -76.667 V-75.246 L72.511 -54.632 H104.372 Q108.88 -54.632 112.314 -51.199 Q115.747 -47.765 115.747 -43.257 V-35.08 Q115.747 -34.133 115.497 -33.05 Q115.247 -31.966 114.938 -31.061 L99.758 4.697 Q98.484 7.555 95.485 9.53 Q92.486 11.504 89.253 11.504 Z M45 0.129 H89.253 Q89.253 0.129 89.253 0.129 Q89.253 0.129 89.253 0.129 L104.312 -35.08 V-43.257 Q104.312 -43.257 104.312 -43.257 Q104.312 -43.257 104.312 -43.257 H58.535 L64.927 -69.292 L45 -49.366 V0.129 Z M34.073 -54.632 V-43.257 H20 V0.129 H34.073 V11.504 H8.625 V-54.632 H34.073 Z"/></g><g id="Regular-M" transform="matrix(1 0 0 1 1394.06 1126)"><path d="M90 9.77 H35 V-55.23 L70 -90.23 L76.25 -83.98 Q77.125 -83.105 77.688 -81.605 Q78.25 -80.105 78.25 -78.73 V-76.98 L72.75 -55.23 H105 Q109 -55.23 112 -52.23 Q115 -49.23 115 -45.23 V-35.23 Q115 -34.355 114.75 -33.355 Q114.5 -32.355 114.25 -31.48 L99.25 3.77 Q98.125 6.27 95.5 8.02 Q92.875 9.77 90 9.77 Z M45 -0.23 H90 Q90 -0.23 90 -0.23 Q90 -0.23 90 -0.23 L105 -35.23 V-45.23 Q105 -45.23 105 -45.23 Q105 -45.23 105 -45.23 H60 L66.75 -72.73 L45 -50.98 V-0.23 Z M35 -55.23 V-45.23 H20 V-0.23 H35 V9.77 H10 V-55.23 H35 Z"/></g><g id="Light-M" transform="matrix(1 0 0 1 1098.18 1126)"><path d="M88.654 7.27 H36.058 V-52.73 L69.231 -85.71 L73.461 -81.48 Q74.24 -80.701 74.755 -79.417 Q75.269 -78.134 75.269 -76.999 V-75.73 L69.961 -52.73 H103.461 Q107.029 -52.73 109.764 -49.994 Q112.5 -47.259 112.5 -43.691 V-35.615 Q112.5 -34.836 112.298 -33.932 Q112.096 -33.028 111.846 -32.249 L97.519 1.558 Q96.442 3.962 93.913 5.616 Q91.385 7.27 88.654 7.27 Z M43.558 -0.23 H88.654 Q89.183 -0.23 89.736 -0.518 Q90.288 -0.807 90.577 -1.48 L105 -35.23 V-43.691 Q105 -44.364 104.567 -44.797 Q104.135 -45.23 103.461 -45.23 H60.481 L66.75 -72.634 L43.558 -49.538 V-0.23 Z M36.058 -52.73 V-45.23 H20 V-0.23 H36.058 V7.27 H12.5 V-52.73 H36.058 Z"/></g><g id="Thin-M" transform="matrix(1 0 0 1 802.565 1126)"><path d="M87.308 4.77 H37.115 V-50.23 L68.462 -81.192 L70.673 -78.98 Q71.356 -78.297 71.822 -77.23 Q72.288 -76.163 72.288 -75.268 V-74.48 L67.173 -50.23 H101.923 Q105.058 -50.23 107.529 -47.759 Q110 -45.288 110 -42.153 V-35.999 Q110 -35.316 109.846 -34.509 Q109.692 -33.701 109.442 -33.018 L95.788 -0.653 Q94.76 1.655 92.327 3.212 Q89.894 4.77 87.308 4.77 Z M42.115 -0.23 H87.308 Q88.365 -0.23 89.471 -0.807 Q90.577 -1.384 91.154 -2.73 L105 -35.23 V-42.153 Q105 -43.499 104.135 -44.365 Q103.269 -45.23 101.923 -45.23 H60.962 L66.75 -72.538 L42.115 -48.095 V-0.23 Z M37.115 -50.23 V-45.23 H20 V-0.23 H37.115 V4.77 H15 V-50.23 H37.115 Z"/></g><g id="Ultralight-M" transform="matrix(1 0 0 1 506.415 1126)"><path d="M86.5 3.27 H37.75 V-48.73 L68 -78.48 L69 -77.48 Q69.625 -76.855 70.062 -75.917 Q70.5 -74.98 70.5 -74.23 V-73.73 L65.5 -48.73 H101 Q103.875 -48.73 106.188 -46.417 Q108.5 -44.105 108.5 -41.23 V-36.23 Q108.5 -35.605 108.375 -34.855 Q108.25 -34.105 108 -33.48 L94.75 -1.98 Q93.75 0.27 91.375 1.77 Q89 3.27 86.5 3.27 Z M41.25 -0.23 H86.5 Q87.875 -0.23 89.312 -0.98 Q90.75 -1.73 91.5 -3.48 L105 -35.23 V-41.23 Q105 -42.98 103.875 -44.105 Q102.75 -45.23 101 -45.23 H61.25 L66.75 -72.48 L41.25 -47.23 V-0.23 Z M37.75 -48.73 V-45.23 H20 V-0.23 H37.75 V3.27 H16.5 V-48.73 H37.75 Z"/></g><g id="Bold-S" transform="matrix(1 0 0 1 2294.23 696)"><path d="M68.544 3.628 H22.98 V-47.459 L49.904 -74.384 L55.656 -70.657 Q57.696 -69.256 58.83 -66.938 Q59.964 -64.62 59.57 -62.056 L59.471 -62.648 L56.019 -47.459 H80.774 Q85.409 -47.459 88.91 -43.958 Q92.412 -40.457 92.412 -35.822 V-36.216 Q92.412 -35.187 92.264 -34.272 Q92.116 -33.356 91.623 -32.567 L79.288 -3.354 Q77.914 -0.218 74.906 1.705 Q71.898 3.628 68.544 3.628 Z M33.138 -8.009 H68.544 Q68.544 -8.009 68.544 -8.009 Q68.544 -8.009 68.544 -8.009 L80.577 -36.216 V-35.822 Q80.577 -35.822 80.577 -35.822 Q80.577 -35.822 80.577 -35.822 H43.296 L46.946 -54.955 L33.138 -41.147 V-8.009 Z M22.98 -47.459 V-35.822 H11.835 V-8.009 H22.98 V3.628 H0.197 V-47.459 H22.98 Z"/></g><g id="Semibold-S" transform="matrix(1 0 0 1 1998.1 696)"><path d="M69.616 1.141 H24.309 V-48.317 L51.877 -75.885 L56.5 -72.835 Q58.382 -71.528 59.409 -69.425 Q60.436 -67.321 60.041 -65.015 L59.942 -65.135 L56.362 -48.317 H81.674 Q85.581 -48.317 88.46 -45.438 Q91.34 -42.558 91.34 -38.652 V-36.431 Q91.34 -35.506 91.192 -34.71 Q91.044 -33.914 90.636 -33.167 L78.559 -4.684 Q77.399 -2.062 74.927 -0.46 Q72.455 1.141 69.616 1.141 Z M33.138 -8.524 H69.616 Q69.616 -8.524 69.616 -8.524 Q69.616 -8.524 69.616 -8.524 L81.563 -36.431 V-38.652 Q81.563 -38.652 81.563 -38.652 Q81.563 -38.652 81.563 -38.652 H45.397 L49.561 -59.886 L33.138 -43.463 V-8.524 Z M24.309 -48.317 V-38.652 H11.835 V-8.524 H24.309 V1.141 H2.17 V-48.317 H24.309 Z"/></g><g id="Medium-S" transform="matrix(1 0 0 1 1701.85 696)"><path d="M70.42 -0.724 H25.306 V-48.96 L53.356 -77.011 L57.133 -74.468 Q58.896 -73.233 59.843 -71.29 Q60.789 -69.348 60.395 -67.234 L60.296 -67 L56.619 -48.96 H82.35 Q85.709 -48.96 88.123 -46.547 Q90.536 -44.134 90.536 -40.774 V-36.591 Q90.536 -35.745 90.388 -35.038 Q90.24 -34.332 89.897 -33.618 L78.012 -5.681 Q77.013 -3.445 74.943 -2.085 Q72.873 -0.724 70.42 -0.724 Z M33.138 -8.91 H70.42 Q70.42 -8.91 70.42 -8.91 Q70.42 -8.91 70.42 -8.91 L82.303 -36.591 V-40.774 Q82.303 -40.774 82.303 -40.774 Q82.303 -40.774 82.303 -40.774 H46.973 L51.523 -63.585 L33.138 -45.2 V-8.91 Z M25.306 -48.96 V-40.774 H11.835 V-8.91 H25.306 V-0.724 H3.649 V-48.96 H25.306 Z"/></g><g id="Regular-S" transform="matrix(1 0 0 1 1405.73 696)"><path d="M71.01 -2.092 H26.037 V-49.432 L54.441 -77.836 L57.597 -75.666 Q59.274 -74.483 60.161 -72.658 Q61.049 -70.834 60.654 -68.861 L60.556 -68.368 L56.808 -49.432 H82.845 Q85.804 -49.432 87.875 -47.361 Q89.946 -45.29 89.946 -42.331 V-36.709 Q89.946 -35.92 89.798 -35.279 Q89.65 -34.638 89.354 -33.948 L77.611 -6.412 Q76.73 -4.459 74.955 -3.275 Q73.18 -2.092 71.01 -2.092 Z M33.138 -9.193 H71.01 Q71.01 -9.193 71.01 -9.193 Q71.01 -9.193 71.01 -9.193 L82.845 -36.709 V-42.331 Q82.845 -42.331 82.845 -42.331 Q82.845 -42.331 82.845 -42.331 H48.129 L52.962 -66.297 L33.138 -46.473 V-9.193 Z M26.037 -49.432 V-42.331 H11.835 V-9.193 H26.037 V-2.092 H4.734 V-49.432 H26.037 Z"/></g><g id="Light-S" transform="matrix(1 0 0 1 1109.75 696)"><path d="M69.948 -4.065 H26.872 V-47.459 L53.834 -74.27 L55.397 -73.694 Q56.997 -72.586 57.847 -70.932 Q58.697 -69.278 58.302 -67.495 L58.204 -67.382 L54.608 -47.459 H81.631 Q84.248 -47.459 86.111 -45.597 Q87.973 -43.734 87.973 -41.117 V-37.013 Q87.973 -36.3 87.863 -35.735 Q87.753 -35.169 87.457 -34.555 L76.245 -8.157 Q75.402 -6.28 73.703 -5.172 Q72.004 -4.065 69.948 -4.065 Z M32 -9.193 H69.948 Q70.365 -9.193 70.801 -9.421 Q71.238 -9.648 71.465 -10.179 L82.845 -36.709 V-41.117 Q82.845 -41.648 82.504 -41.99 Q82.162 -42.331 81.631 -42.331 H48.508 L52.962 -66.221 L32 -45.335 V-9.193 Z M26.872 -47.459 V-42.331 H11.835 V-9.193 H26.872 V-4.065 H6.707 V-47.459 H26.872 Z"/></g><g id="Thin-S" transform="matrix(1 0 0 1 814.015 696)"><path d="M68.886 -6.037 H27.706 V-45.487 L53.227 -70.705 L53.197 -71.721 Q54.722 -70.69 55.533 -69.206 Q56.345 -67.723 55.951 -66.13 L55.852 -66.395 L52.408 -45.487 H80.417 Q82.693 -45.487 84.347 -43.833 Q86.001 -42.179 86.001 -39.903 V-37.316 Q86.001 -36.679 85.929 -36.19 Q85.857 -35.7 85.561 -35.162 L74.88 -9.902 Q74.075 -8.101 72.452 -7.069 Q70.828 -6.037 68.886 -6.037 Z M30.862 -9.193 H68.886 Q69.72 -9.193 70.593 -9.648 Q71.465 -10.103 71.92 -11.165 L82.845 -36.709 V-39.903 Q82.845 -40.965 82.162 -41.648 Q81.479 -42.331 80.417 -42.331 H48.888 L52.962 -66.145 L30.862 -44.197 V-9.193 Z M27.706 -45.487 V-42.331 H11.835 V-9.193 H27.706 V-6.037 H8.679 V-45.487 H27.706 Z"/></g><g id="Ultralight-S" transform="matrix(1 0 0 1 517.792 696)"><path d="M68.249 -7.22 H28.207 V-44.303 L52.863 -68.565 L51.877 -70.538 Q53.356 -69.551 54.145 -68.171 Q54.934 -66.79 54.54 -65.311 L54.441 -65.804 L51.088 -44.303 H79.689 Q81.76 -44.303 83.289 -42.775 Q84.818 -41.246 84.818 -39.175 V-37.498 Q84.818 -36.907 84.768 -36.463 Q84.719 -36.019 84.423 -35.526 L74.06 -10.949 Q73.278 -9.193 71.7 -8.207 Q70.122 -7.22 68.249 -7.22 Z M30.179 -9.193 H68.249 Q69.333 -9.193 70.468 -9.785 Q71.602 -10.376 72.194 -11.757 L82.845 -36.709 V-39.175 Q82.845 -40.556 81.957 -41.443 Q81.07 -42.331 79.689 -42.331 H49.115 L52.962 -66.1 L30.179 -43.514 V-9.193 Z M28.207 -44.303 V-42.331 H11.835 V-9.193 H28.207 V-7.22 H9.863 V-44.303 H28.207 Z"/></g></g></svg>